<svg width="22" height="30" viewBox="0 0 22 30" fill="none" xmlns="http://www.w3.org/2000/svg">
<path d="M6.70845 11.5649C9.36494 11.5649 11.9756 11.5649 14.6321 11.5649C14.6321 11.4275 14.6321 11.2901 14.6321 11.1641C14.6321 7.93511 14.6321 4.71756 14.6321 1.48855C14.6321 0.492366 15.113 0 16.0978 0C17.3802 0 18.6627 0 19.9451 0C20.8153 0 21.3191 0.503817 21.3191 1.37405C21.3191 9.97328 21.3191 18.584 21.3191 27.1832C21.3191 28.855 20.1626 30 18.4909 30C13.2695 30 8.04815 30 2.82677 30C1.16647 30 0.00997925 28.8435 0.00997925 27.1718C0.00997925 18.584 0.00997925 9.98473 0.00997925 1.39695C0.00997925 0.492366 0.502345 0 1.42983 0C2.72372 0 4.01761 0 5.31151 0C6.19318 0 6.70845 0.515267 6.70845 1.3855C6.70845 4.6374 6.70845 7.87786 6.70845 11.1298C6.70845 11.2672 6.70845 11.3931 6.70845 11.5649ZM1.07486 14.416C1.07486 18.6756 1.07486 22.9351 1.07486 27.2061C1.07486 28.2366 1.75044 28.9237 2.75807 28.9351C8.02525 28.9351 13.2924 28.9351 18.5596 28.9351C19.5558 28.9351 20.2428 28.2366 20.2428 27.2405C20.2428 18.6527 20.2428 10.0534 20.2543 1.46565C20.2543 1.14504 20.1397 1.06489 19.842 1.07634C18.6283 1.08779 17.4146 1.07634 16.1894 1.07634C15.6856 1.07634 15.6855 1.07634 15.6855 1.58015C15.6855 4.99237 15.6855 8.40458 15.6855 11.8282C15.6855 12.5267 15.5481 12.6527 14.8382 12.6527C12.0443 12.6527 9.26189 12.6527 6.46799 12.6527C5.75807 12.6527 5.62067 12.5267 5.62067 11.8282C5.62067 8.39313 5.62067 4.95801 5.62067 1.5229C5.62067 1.09924 5.59777 1.08779 5.18555 1.08779C3.99471 1.08779 2.79242 1.08779 1.60158 1.08779C1.06341 1.08779 1.06341 1.08779 1.06341 1.6145C1.07486 5.87405 1.07486 10.145 1.07486 14.416Z" fill="white"/>
<path d="M14.5062 22.7862C15.1817 21.2175 14.5634 19.145 13.1207 18.0457C13.0634 17.9999 13.0062 17.9656 12.9604 17.9312C12.6512 17.6908 12.571 17.3816 12.7657 17.1297C12.9489 16.8778 13.2695 16.832 13.5672 17.061C13.9336 17.3587 14.323 17.6564 14.6207 18.0228C15.823 19.5114 16.1207 21.1946 15.571 23.0152C15.5252 23.1526 15.4794 23.29 15.4222 23.4618C15.6283 23.416 15.8 23.3702 15.9718 23.3358C16.2581 23.2786 16.5329 23.4274 16.6016 23.6908C16.6817 23.977 16.5558 24.2633 16.2466 24.3549C15.6741 24.5267 15.0901 24.687 14.5062 24.8244C14.1397 24.9045 13.9451 24.8129 13.8306 24.458C13.6474 23.8625 13.4871 23.2557 13.3382 22.6602C13.2695 22.3854 13.4642 22.1106 13.739 22.0534C14.0252 21.9961 14.2428 22.1221 14.3573 22.3854C14.4146 22.4999 14.4489 22.6144 14.5062 22.7862Z" fill="white"/>
<path d="M6.31916 24.561C6.2619 24.7671 6.2161 24.9388 6.15885 25.0991C6.0558 25.4083 5.78099 25.5571 5.50618 25.4884C5.21992 25.3968 5.04816 25.122 5.12832 24.8014C5.26572 24.2518 5.40313 23.7022 5.57488 23.1526C5.71229 22.7174 5.89549 22.6029 6.33061 22.706C6.89168 22.832 7.45274 22.9923 8.00236 23.1526C8.31152 23.2442 8.44893 23.5075 8.38023 23.8052C8.31152 24.08 8.05961 24.2289 7.72755 24.1716C7.6245 24.1487 7.51 24.1258 7.32679 24.0915C7.45274 24.2289 7.51 24.3091 7.59015 24.3778C8.80389 25.58 10.6245 25.9236 12.2047 25.248C12.2505 25.2251 12.3077 25.2022 12.3535 25.1793C12.7085 25.0304 13.0062 25.122 13.1436 25.4312C13.2695 25.7174 13.1436 25.9923 12.8001 26.164C10.7505 27.1946 8.08252 26.6335 6.55961 24.8358C6.49091 24.7556 6.42221 24.6755 6.31916 24.561Z" fill="white"/>
<path d="M9.93747 16.042C9.80006 15.9275 9.63976 15.8359 9.52525 15.7099C9.31915 15.4924 9.3306 15.1832 9.5138 14.9885C9.71991 14.771 10.0291 14.7481 10.2581 14.9656C10.7046 15.4008 11.1512 15.8359 11.5749 16.2939C11.8039 16.5343 11.7695 16.8092 11.5291 17.0725C11.1283 17.4847 10.7275 17.8855 10.3268 18.2748C10.0634 18.5382 9.75426 18.5382 9.52525 18.3092C9.31915 18.0916 9.3306 17.7939 9.5596 17.5305C9.61686 17.4618 9.67411 17.4046 9.71991 17.2786C9.52525 17.3244 9.3306 17.3588 9.14739 17.4275C7.53289 18.0572 6.59395 19.2252 6.36495 20.9542C6.3535 21.0343 6.34205 21.1145 6.3306 21.1832C6.26189 21.4809 6.02144 21.6527 5.74663 21.6183C5.47182 21.584 5.27716 21.3664 5.28861 21.0572C5.32296 20.084 5.64357 19.2023 6.19319 18.4122C7.02907 17.2214 8.16266 16.4656 9.6054 16.2023C9.69701 16.1908 9.77716 16.1679 9.86876 16.145C9.89166 16.0992 9.91457 16.0763 9.93747 16.042Z" fill="white"/>
</svg>
