<?xml version="1.0" encoding="utf-8"?>
<!-- Generator: Adobe Illustrator 26.3.1, SVG Export Plug-In . SVG Version: 6.00 Build 0)  -->
<svg version="1.1" id="Layer_1" xmlns="http://www.w3.org/2000/svg" xmlns:xlink="http://www.w3.org/1999/xlink" x="0px" y="0px"
	 viewBox="0 0 36 36" style="enable-background:new 0 0 36 36;" xml:space="preserve">
<style type="text/css">
	.st0{fill:#FFFFFF;}
</style>
<g>
	<g>
		<g>
			<path class="st0" d="M17.24,25.11c-4.2,0-7.61-3.41-7.61-7.61c0-4.2,3.41-7.61,7.61-7.61c4.2,0,7.61,3.41,7.61,7.61
				C24.85,21.69,21.43,25.11,17.24,25.11z M17.24,10.46c-3.88,0-7.04,3.16-7.04,7.04c0,3.88,3.16,7.04,7.04,7.04
				c3.88,0,7.04-3.16,7.04-7.04C24.27,13.61,21.12,10.46,17.24,10.46z"/>
			<path class="st0" d="M17.24,22.76c-2.9,0-5.27-2.36-5.27-5.27s2.36-5.27,5.27-5.27c2.9,0,5.27,2.36,5.27,5.27
				S20.14,22.76,17.24,22.76z M17.24,12.8c-2.59,0-4.69,2.11-4.69,4.69c0,2.59,2.11,4.69,4.69,4.69c2.59,0,4.69-2.1,4.69-4.69
				C21.93,14.91,19.82,12.8,17.24,12.8z"/>
		</g>
		<path class="st0" d="M26.95,25.1c-0.56,0-1.02-0.46-1.02-1.02v-7.03c-1.01-0.57-1.66-1.91-1.66-3.44c0-2.05,1.2-3.71,2.68-3.71
			s2.68,1.67,2.68,3.71c0,1.52-0.65,2.86-1.66,3.44v7.03C27.98,24.64,27.52,25.1,26.95,25.1z M26.95,10.47
			c-1.16,0-2.11,1.41-2.11,3.14c0,1.38,0.6,2.59,1.49,3l0.12,0.05c0.03,0.01,0.05,0.04,0.05,0.08v7.33c0,0.25,0.2,0.45,0.45,0.45
			c0.25,0,0.45-0.2,0.45-0.45v-7.33c0-0.03,0.02-0.06,0.05-0.08l0.12-0.05c0.89-0.41,1.49-1.62,1.49-3
			C29.06,11.88,28.11,10.47,26.95,10.47z"/>
		<path class="st0" d="M7.79,25.11c-0.56,0-1.02-0.46-1.02-1.02v-7.18c-0.84-0.42-1.39-1.31-1.39-2.28v-4
			c0-0.42,0.34-0.76,0.76-0.76c0.2,0,0.39,0.08,0.54,0.22c0.14,0.14,0.22,0.34,0.22,0.54v2.98c0,0.11,0.05,0.18,0.07,0.19
			c0-0.01,0.06-0.07,0.06-0.19v-2.98c0-0.42,0.34-0.76,0.76-0.76c0.2,0,0.39,0.08,0.54,0.22c0.14,0.14,0.22,0.33,0.22,0.54v2.98
			c0,0.12,0.06,0.18,0.07,0.19c0.01-0.01,0.06-0.08,0.06-0.19v-2.98c0-0.42,0.34-0.76,0.76-0.76c0.2,0,0.39,0.08,0.54,0.22
			c0.14,0.14,0.22,0.34,0.22,0.54v4c0,0.98-0.54,1.87-1.39,2.29v7.17C8.81,24.65,8.35,25.11,7.79,25.11z M6.14,10.45
			c-0.1,0-0.19,0.08-0.19,0.19v4c0,0.81,0.48,1.54,1.21,1.82l0.13,0.05c0.03,0.01,0.05,0.05,0.05,0.08v7.5
			c0,0.25,0.2,0.45,0.45,0.45c0.25,0,0.45-0.2,0.45-0.45v-7.5c0-0.04,0.02-0.07,0.06-0.08l0.13-0.05c0.72-0.28,1.2-1.01,1.2-1.83v-4
			c0-0.05-0.02-0.1-0.05-0.13c-0.04-0.03-0.08-0.05-0.13-0.05c-0.1,0-0.19,0.08-0.19,0.19v2.98c0,0.43-0.28,0.76-0.64,0.76
			c-0.36,0-0.64-0.33-0.64-0.76v-2.98c0-0.05-0.02-0.1-0.05-0.13c-0.03-0.03-0.08-0.05-0.13-0.05c-0.1,0-0.19,0.08-0.19,0.19v2.98
			c0,0.43-0.28,0.76-0.64,0.76c-0.36,0-0.64-0.33-0.64-0.76v-2.98c0-0.05-0.02-0.1-0.05-0.13C6.23,10.47,6.19,10.45,6.14,10.45z"/>
	</g>
</g>
</svg>
