<svg width="29" height="39" viewBox="0 0 29 39" fill="none" xmlns="http://www.w3.org/2000/svg">
<path d="M17.9076 12.1406C17.3249 13.6808 16.2981 14.9434 15.3824 16.2616C15.1465 16.5946 14.869 16.7472 14.4666 16.7333C13.7174 16.7056 12.982 16.7333 12.2327 16.7194C11.539 16.7056 11.2615 16.2199 11.6222 15.6233C12.1772 14.6937 12.7739 13.7918 13.315 12.8621C14.1197 11.4608 14.5637 9.94837 14.6609 8.28336C14.0642 8.28336 13.4815 8.28336 12.8987 8.28336C12.316 8.28336 12.094 8.04748 12.094 7.46473C12.094 6.68772 12.094 5.92459 12.094 5.14758C12.094 4.62033 12.3298 4.38445 12.8571 4.38445C16.312 4.38445 19.753 4.37058 23.2079 4.39833C25.5251 4.4122 27.4399 6.29922 27.5092 8.57474C27.5231 9.12974 27.3705 9.32399 26.8155 9.42112C26.0662 9.57375 25.5806 10.1426 25.5667 10.9058C25.5528 11.6828 25.5528 12.4459 25.5806 13.2229C25.5945 13.5143 25.6916 13.8057 25.7748 14.0832C26.6351 17.0524 27.5092 20.0217 28.3417 22.991C28.8135 24.6699 28.98 26.3904 28.98 28.1248C28.98 30.7611 28.98 33.3973 28.98 36.0336C28.98 37.6986 27.8839 38.7948 26.205 38.7948C23.0831 38.7948 19.9612 38.7948 16.8254 38.7948C15.1326 38.7948 14.0365 37.6986 14.0365 36.0059C14.0365 33.7026 14.0504 31.4132 14.0365 29.1099C14.0226 27.2368 14.425 25.4608 15.2991 23.8096C16.4369 21.6312 17.2694 19.3418 17.6579 16.8998C17.9354 15.3319 17.9909 13.7502 17.9076 12.1406ZM19.309 14.1387C19.1703 15.2764 19.0732 16.3726 18.8928 17.4687C18.4904 19.8691 17.6579 22.1307 16.5201 24.2952C15.7154 25.8354 15.3269 27.4727 15.3546 29.207C15.3824 31.4826 15.3546 33.7442 15.3546 36.0197C15.3546 36.991 15.868 37.5044 16.8254 37.5044C19.9473 37.5044 23.0692 37.5044 26.205 37.5044C27.204 37.5044 27.7035 37.0049 27.7035 36.0059C27.7035 33.3835 27.7035 30.7611 27.7035 28.1387C27.7035 26.5846 27.5647 25.0306 27.1485 23.5182C26.5935 21.4508 25.9691 19.3835 25.3863 17.3299C25.0811 16.2616 24.762 15.207 24.4567 14.1525C22.7223 14.1387 21.0157 14.1387 19.309 14.1387ZM16.0345 6.99297C16.6034 6.99297 17.1584 6.99297 17.6995 6.99297C18.4072 6.99297 18.6014 7.18722 18.6014 7.90873C18.6014 8.67186 18.6014 9.435 18.6014 10.2398C20.4884 10.2398 22.3199 10.2398 24.1653 10.2398C24.2486 10.2398 24.3873 10.1704 24.4012 10.101C24.6926 9.21299 25.3031 8.61636 26.1772 8.25561C26.1495 8.13073 26.1356 8.01973 26.1078 7.92261C25.7332 6.61834 24.5538 5.71646 23.1941 5.70259C20.8769 5.68871 18.5737 5.70259 16.2565 5.70259C16.1871 5.70259 16.1039 5.73034 16.0345 5.73034C16.0345 6.14659 16.0345 6.54897 16.0345 6.99297ZM15.979 8.31111C15.868 10.9751 14.7996 13.2507 13.2872 15.4013C14.314 15.5123 14.314 15.5123 14.8551 14.7769C14.8829 14.7353 14.9245 14.6937 14.9522 14.652C15.8264 13.5004 16.5756 12.2933 16.9503 10.878C17.1723 10.0455 17.3249 9.19912 17.311 8.32498C16.8531 8.31111 16.4508 8.31111 15.979 8.31111ZM24.2763 11.5579C22.5974 11.5579 20.9324 11.5579 19.2952 11.5579C19.2952 12.0019 19.2952 12.4043 19.2952 12.8066C20.974 12.8066 22.6113 12.8066 24.2763 12.8066C24.2763 12.3904 24.2763 11.988 24.2763 11.5579ZM14.6747 6.9791C14.6747 6.56284 14.6747 6.14659 14.6747 5.71646C14.2585 5.71646 13.8422 5.71646 13.4399 5.71646C13.4399 6.14659 13.4399 6.56284 13.4399 6.9791C13.87 6.9791 14.2585 6.9791 14.6747 6.9791Z" fill="white"/>
<path d="M7.30704 6.96531C7.30704 6.54906 7.30704 6.14668 7.30704 5.71655C7.82042 5.71655 8.30605 5.71655 8.8333 5.71655C8.8333 6.11893 8.8333 6.53518 8.8333 6.96531C8.34767 6.96531 7.83429 6.96531 7.30704 6.96531Z" fill="white"/>
<path d="M8.86105 4.96711C9.13856 4.62023 9.38831 4.3011 9.66581 3.95422C10.0821 4.28723 10.4706 4.59248 10.9007 4.93936C10.6371 5.27236 10.3734 5.60536 10.0959 5.95224C9.69356 5.61924 9.29118 5.30011 8.86105 4.96711Z" fill="white"/>
<path d="M5.15636 1.99802C4.74011 1.66501 4.35161 1.35976 3.92148 1.01288C4.18511 0.679881 4.44873 0.346878 4.74011 0C5.15636 0.333003 5.55874 0.652131 5.975 0.985134C5.68362 1.33201 5.43387 1.65114 5.15636 1.99802Z" fill="white"/>
<path d="M7.20991 1.97034C7.64004 2.30334 8.01467 2.62247 8.44479 2.95547C8.16729 3.30235 7.91754 3.62148 7.64004 3.96835C7.22378 3.63535 6.83528 3.3301 6.40515 2.98322C6.66878 2.65022 6.91853 2.33109 7.20991 1.97034Z" fill="white"/>
<path d="M6.39127 9.69876C6.80752 9.36575 7.19602 9.04663 7.62615 8.71362C7.90365 9.04663 8.15341 9.36575 8.44478 9.72651C8.02853 10.0595 7.64003 10.3786 7.2099 10.7116C6.9324 10.3786 6.66877 10.0456 6.39127 9.69876Z" fill="white"/>
<path d="M3.92148 11.6828C4.33773 11.3498 4.72624 11.0306 5.15636 10.6976C5.41999 11.0306 5.68362 11.3498 5.96112 11.7105C5.55874 12.0296 5.17024 12.3488 4.72624 12.6956C4.46261 12.3488 4.19898 12.0296 3.92148 11.6828Z" fill="white"/>
<path d="M10.0959 6.72937C10.3734 7.07625 10.6232 7.39538 10.9146 7.74225C10.4983 8.07526 10.1098 8.39439 9.67969 8.72739C9.40218 8.39439 9.15243 8.08913 8.86105 7.72838C9.27731 7.39538 9.67969 7.07625 10.0959 6.72937Z" fill="white"/>
<path d="M2.52012 5.71655C2.52012 6.13281 2.52012 6.53518 2.52012 6.96531C2.00674 6.96531 1.50724 6.96531 0.97998 6.96531C0.97998 6.54906 0.97998 6.14668 0.97998 5.71655C1.49336 5.71655 1.99286 5.71655 2.52012 5.71655Z" fill="white"/>
<path d="M4.12961 6.96535C4.12961 6.53523 4.12961 6.14672 4.12961 5.73047C4.64299 5.73047 5.15637 5.73047 5.68362 5.73047C5.68362 6.13285 5.68362 6.53523 5.68362 6.96535C5.18412 6.96535 4.67074 6.96535 4.12961 6.96535Z" fill="white"/>
<path d="M17.311 30.9692C17.311 29.7204 17.311 28.4856 17.311 27.2368C17.311 26.3488 17.8383 25.8215 18.7263 25.8215C20.5994 25.8215 22.4864 25.8215 24.3596 25.8215C25.2059 25.8215 25.7471 26.3627 25.7471 27.2229C25.7471 29.7482 25.7471 32.2735 25.7471 34.8126C25.7471 35.6729 25.2059 36.214 24.3596 36.214C22.4725 36.214 20.5717 36.214 18.6846 36.214C17.866 36.214 17.3249 35.659 17.311 34.8404C17.311 33.5361 17.311 32.2596 17.311 30.9692ZM24.4289 34.8959C24.4289 32.2873 24.4289 29.7204 24.4289 27.1535C22.4726 27.1535 20.5578 27.1535 18.6291 27.1535C18.6291 29.7482 18.6291 32.3151 18.6291 34.8959C20.5578 34.8959 22.4726 34.8959 24.4289 34.8959Z" fill="white"/>
<path d="M24.9562 19.8135C24.97 20.2991 24.7897 20.535 24.4705 20.6044C24.1375 20.6876 23.8461 20.5489 23.749 20.2436C23.4438 19.3278 23.1801 18.4121 22.9304 17.4963C22.8333 17.1495 23.0275 16.8858 23.3744 16.7748C23.6796 16.6777 23.9988 16.7748 24.0959 17.0662C24.415 18.0097 24.6925 18.981 24.9562 19.8135Z" fill="white"/>
<path d="M24.9423 21.2845C25.4696 21.3261 25.5251 21.7701 25.6638 22.1725C25.7887 22.5333 25.8164 22.8663 25.4696 23.116C25.1504 23.338 24.7064 23.2409 24.5399 22.8801C24.4151 22.6026 24.3179 22.2974 24.2763 21.9921C24.2208 21.5897 24.5399 21.2706 24.9423 21.2845Z" fill="white"/>
</svg>
