<svg width="30" height="29" viewBox="0 0 30 29" fill="none" xmlns="http://www.w3.org/2000/svg">
<path d="M0.550018 11.0618C0.694759 10.56 0.791253 10.039 0.993891 9.56614C1.46671 8.45646 2.27726 7.65556 3.36764 7.14414C3.55098 7.0573 3.61853 6.9608 3.60888 6.76781C3.58958 6.41079 3.59923 6.05376 3.60888 5.69673C3.61853 4.83793 4.20714 4.24932 5.05629 4.22037C6.17562 4.19142 6.75459 4.75109 6.75459 5.87042C6.75459 6.1213 6.75459 6.37219 6.75459 6.64237C7.05372 6.64237 7.3239 6.64237 7.64233 6.64237C7.64233 6.51693 7.64233 6.40114 7.64233 6.28534C7.66163 5.47479 7.60373 4.65459 7.72918 3.86334C7.99936 2.02031 9.62046 0.582546 11.4828 0.50535C12.882 0.447454 14.2811 0.486052 15.6899 0.486052C16.018 0.486052 16.1917 0.630793 16.2014 0.891327C16.211 1.16151 16.0373 1.32555 15.6996 1.32555C14.4162 1.3352 13.1425 1.3352 11.8591 1.32555C11.0775 1.32555 10.3731 1.53784 9.7652 2.02996C8.99325 2.63787 8.55902 3.43877 8.52043 4.43266C8.47218 5.16601 8.49148 5.89937 8.49148 6.65202C9.03185 6.65202 9.56256 6.65202 10.1222 6.65202C10.1222 5.99586 10.1222 5.34935 10.1222 4.70284C10.1222 4.31687 10.2091 3.95984 10.4407 3.64141C10.7687 3.20718 11.203 2.9756 11.753 2.9756C13.9144 2.9756 16.0759 2.96595 18.247 2.9756C19.183 2.98525 19.8488 3.68001 19.8681 4.616C19.8778 5.28181 19.8681 5.94762 19.8681 6.64237C20.4181 6.64237 20.9392 6.64237 21.5471 6.64237C21.5085 5.71603 21.5664 4.77039 21.4024 3.86334C21.1322 2.36769 19.7813 1.3545 18.2277 1.32555C17.9575 1.3159 17.6777 1.3352 17.4075 1.30625C17.1663 1.28695 17.0409 1.11326 17.0505 0.872028C17.0602 0.650092 17.1952 0.495701 17.4268 0.486052C18.44 0.428155 19.4436 0.495701 20.3409 1.05537C21.5954 1.84662 22.2998 2.98525 22.348 4.48091C22.377 5.19496 22.348 5.90902 22.348 6.64237C22.6472 6.64237 22.927 6.64237 23.2454 6.64237C23.2454 6.33359 23.2454 6.03446 23.2454 5.72568C23.2551 4.81863 23.834 4.23002 24.7507 4.22037C25.8218 4.20107 26.4008 4.77039 26.4008 5.84147C26.4008 6.16955 26.4104 6.49763 26.4008 6.82571C26.3911 6.9801 26.4587 7.04765 26.5938 7.11519C28.4657 8.05119 29.45 9.57579 29.4596 11.6697C29.4789 15.6646 29.4693 19.6691 29.4596 23.6639C29.4596 26.1921 27.7227 28.2184 25.2235 28.5948C24.9437 28.6334 24.6639 28.643 24.3744 28.643C18.1312 28.643 11.8881 28.643 5.63525 28.643C2.98167 28.643 1.03249 26.9833 0.598265 24.3683C0.588616 24.3297 0.569317 24.3008 0.550018 24.2718C0.550018 19.8717 0.550018 15.4716 0.550018 11.0618ZM14.9952 27.8035C18.1505 27.8035 21.3155 27.8132 24.4709 27.8035C26.8253 27.7939 28.5912 26.0184 28.5912 23.6736C28.5912 19.6691 28.5912 15.6646 28.5912 11.6504C28.5912 9.30561 26.806 7.52047 24.4709 7.52047C18.1505 7.52047 11.8302 7.52047 5.50981 7.52047C3.18431 7.52047 1.38952 9.31526 1.38952 11.6311C1.38952 15.6549 1.38952 19.6787 1.38952 23.7122C1.38952 24.0017 1.41846 24.3008 1.47636 24.5806C1.89129 26.5105 3.50274 27.8132 5.50981 27.8132C8.67482 27.8035 11.8398 27.8035 14.9952 27.8035ZM19.019 6.65202C19.019 6.45903 19.019 6.28534 19.019 6.11165C19.0383 3.66071 19.183 3.80545 16.7417 3.8151C15.5548 3.82475 14.368 3.8151 13.1907 3.8151C12.7855 3.8151 12.3802 3.8151 11.9749 3.8151C11.2512 3.8151 10.981 4.08528 10.981 4.82828C10.981 5.359 10.981 5.88007 10.981 6.41079C10.981 6.48798 10.9907 6.57483 11.0003 6.66167C13.6732 6.65202 16.3268 6.65202 19.019 6.65202ZM4.45803 6.73887C4.9598 6.70992 5.42297 6.67132 5.89579 6.64237C5.89579 6.60377 5.90544 6.56518 5.90544 6.52658C5.90544 6.2371 5.91509 5.94762 5.90544 5.65813C5.88614 5.28181 5.6642 5.07917 5.25893 5.06952C4.74751 5.05987 4.48698 5.22391 4.45803 5.60989C4.43873 5.98621 4.45803 6.35289 4.45803 6.73887ZM25.542 6.73887C25.542 6.46868 25.542 6.18885 25.542 5.90902C25.542 5.21426 25.3007 5.00197 24.6156 5.06952C24.3358 5.09847 24.1139 5.29146 24.1042 5.57129C24.0849 5.92832 24.1042 6.27569 24.1042 6.63272C24.577 6.67132 25.0402 6.70992 25.542 6.73887Z" fill="white"/>
<path d="M11.7819 14.4487C11.7819 13.4645 11.7819 12.5285 11.7819 11.5828C11.7819 10.4732 12.4188 9.8363 13.5381 9.8363C14.5224 9.8363 15.5162 9.8363 16.5005 9.8363C17.5619 9.8363 18.1988 10.4828 18.2084 11.5442C18.2084 12.403 18.2084 13.2522 18.2084 14.111C18.2084 14.2075 18.2084 14.3136 18.2084 14.4391C18.3339 14.4391 18.44 14.4391 18.5365 14.4391C19.4339 14.4391 20.3217 14.4391 21.219 14.4391C22.1164 14.4487 22.7822 15.0856 22.8015 15.9733C22.8208 17.083 22.8208 18.1927 22.8015 19.3024C22.7919 20.2191 22.1261 20.8366 21.1804 20.8559C20.3024 20.8656 19.4339 20.8559 18.5558 20.8559C18.4497 20.8559 18.3532 20.8559 18.2084 20.8559C18.2084 20.9814 18.2084 21.0779 18.2084 21.184C18.2084 22.0525 18.2084 22.9112 18.2084 23.7797C18.2084 24.8025 17.5619 25.4587 16.5391 25.4587C15.5066 25.4587 14.4741 25.4587 13.432 25.4587C12.4477 25.4587 11.7916 24.8025 11.7916 23.8086C11.7916 22.863 11.7916 21.9077 11.7819 20.9621C11.7819 20.9428 11.7723 20.9235 11.753 20.8656C11.6275 20.8656 11.4924 20.8752 11.3574 20.8656C11.0775 20.8463 10.8845 20.6822 10.8845 20.441C10.8845 20.1998 11.0679 20.0357 11.3574 20.0261C11.6082 20.0164 11.8688 20.0164 12.1197 20.0261C12.4863 20.0357 12.6311 20.1708 12.6311 20.5375C12.6311 21.5893 12.6311 22.6411 12.6311 23.7025C12.6311 24.378 12.8723 24.6288 13.5381 24.6288C14.5031 24.6288 15.4777 24.6288 16.4426 24.6288C17.1084 24.6288 17.3496 24.378 17.3496 23.7025C17.3496 22.67 17.3496 21.6375 17.3496 20.5954C17.3496 20.1515 17.4751 20.0261 17.919 20.0261C18.9514 20.0261 19.9839 20.0261 21.0261 20.0261C21.7015 20.0261 21.9524 19.7848 21.9524 19.1094C21.9524 18.1251 21.9524 17.1313 21.9524 16.147C21.9524 15.5584 21.6919 15.2979 21.1129 15.2979C20.0611 15.2979 19.0093 15.2979 17.9575 15.2979C17.4847 15.2979 17.3689 15.1724 17.3593 14.69C17.3593 13.6478 17.3593 12.6057 17.3593 11.5539C17.3593 10.9556 17.0988 10.6855 16.5005 10.6855C15.497 10.6855 14.4838 10.6855 13.4802 10.6855C12.9013 10.6855 12.6311 10.9556 12.6311 11.5346C12.6311 12.596 12.6311 13.6575 12.6311 14.7189C12.6311 15.1628 12.496 15.2882 12.0618 15.2882C11.0003 15.2882 9.93889 15.2882 8.87746 15.2882C8.30814 15.2882 8.04761 15.5488 8.03796 16.1084C8.03796 17.1313 8.03796 18.1637 8.03796 19.1866C8.03796 19.7366 8.29849 19.9971 8.84851 20.0068C9.08974 20.0164 9.34063 20.0068 9.58186 20.0068C9.8617 20.0164 10.0257 20.1612 10.0354 20.4024C10.045 20.6533 9.881 20.8366 9.59151 20.8366C9.23449 20.8463 8.87746 20.8463 8.52043 20.8077C7.78707 20.7208 7.21776 20.1129 7.19846 19.3796C7.17916 18.212 7.16951 17.0444 7.19846 15.8768C7.21776 15.0566 7.90287 14.4294 8.73272 14.4198C9.63976 14.4101 10.5372 14.4198 11.4442 14.4198C11.5503 14.4487 11.6468 14.4487 11.7819 14.4487Z" fill="white"/>
</svg>
