<svg width="33" height="30" viewBox="0 0 33 30" fill="none" xmlns="http://www.w3.org/2000/svg">
<path d="M1.22739 28.7984C8.87597 28.7984 16.5116 28.7984 24.1731 28.7984C24.1731 28.6305 24.1731 28.4884 24.1731 28.3333C24.1731 24.8837 24.1731 21.4341 24.1731 17.9845C24.1731 17.3643 24.354 17.0801 24.7674 17.0672C25.1809 17.0543 25.3747 17.3643 25.3747 17.9716C25.3747 21.8475 25.3747 25.7364 25.3747 29.6124C25.3747 29.7416 25.3747 29.8579 25.3747 30C16.8992 30 8.46253 30 0 30C0 20 0 10.0129 0 0C8.43669 0 16.8863 0 25.3488 0C25.3618 0.0775194 25.3747 0.167959 25.3747 0.245478C25.3747 1.35659 25.3747 2.4677 25.3747 3.56589C25.3747 4.04393 25.1421 4.31525 24.7545 4.30233C24.3798 4.28941 24.1602 4.03101 24.1602 3.57881C24.1602 2.7907 24.1602 2.00258 24.1602 1.18863C16.4987 1.18863 8.86305 1.18863 1.21447 1.18863C1.22739 10.3876 1.22739 19.5736 1.22739 28.7984Z" fill="white"/>
<path d="M10.5685 25.1035C10.2971 24.8192 10.0387 24.5608 9.76743 24.2766C9.81911 24.1732 9.87078 24.0699 9.92246 23.9536C10.4005 23.088 10.8915 22.2094 11.3695 21.3438C11.6667 20.8011 11.9638 20.2585 12.0672 19.6125C12.1447 19.1603 12.4289 18.6823 12.7648 18.3464C17.6615 13.411 22.584 8.5014 27.4935 3.59184C27.5323 3.55308 27.584 3.51432 27.6486 3.46264C27.907 3.74688 28.1524 4.00528 28.3721 4.26368C29.1085 3.52724 29.7933 2.82957 30.4522 2.17065C31.2145 2.93293 31.8992 3.60476 32.6227 4.31536C31.9638 4.97427 31.2661 5.64611 30.5039 6.39546C30.8269 6.66678 31.1111 6.91226 31.4599 7.20941C31.1886 7.41613 30.9819 7.57117 30.6847 7.79081C31.1499 8.17841 31.5504 8.51432 31.9638 8.86316C30.9561 9.87091 30.0387 10.7882 29.1214 11.7055C27.7261 13.088 26.3437 14.4833 24.9483 15.8657C24.7287 16.0854 24.4703 16.2533 24.1473 16.0725C23.8889 15.9174 23.7855 15.6719 23.863 15.4006C23.9018 15.2456 24.031 15.0906 24.1473 14.9743C26.0465 13.0621 27.9586 11.1629 29.8579 9.25076C29.9612 9.1474 30.0775 9.0828 30.2067 8.97944C30.0904 8.85024 30.0129 8.7598 29.9225 8.66936C29.8579 8.73396 29.7933 8.77272 29.7416 8.8244C27.584 10.982 25.4393 13.1396 23.2816 15.2973C21.0594 17.5195 18.8372 19.7288 16.6279 21.951C16.1111 22.4678 15.5039 22.7908 14.7674 22.8425C14.6124 22.8554 14.4573 22.9329 14.3152 23.0104C13.0878 23.7081 11.8475 24.4058 10.5685 25.1035ZM29.5736 7.20941C28.9406 6.56342 28.2687 5.9045 27.6356 5.25851C25.2971 7.59701 22.9457 9.94843 20.6072 12.2869C21.2532 12.9329 21.9121 13.6048 22.5581 14.2378C24.8966 11.8993 27.248 9.535 29.5736 7.20941ZM19.6511 13.1784C19.5865 13.243 19.4961 13.3076 19.4186 13.398C18.3721 14.4446 17.3385 15.4781 16.292 16.5247C15.3876 17.4291 14.4961 18.3205 13.6046 19.2249C13.1524 19.69 13.062 20.3748 13.3592 20.9303C13.6434 21.4859 14.2377 21.7831 14.8837 21.628C15.1938 21.5505 15.5168 21.3567 15.7493 21.1371C17.6744 19.2378 19.5865 17.3128 21.4987 15.4006C21.5633 15.336 21.6279 15.2585 21.6666 15.2068C20.9819 14.5221 20.323 13.8502 19.6511 13.1784ZM29.3798 5.19391C29.4703 5.28435 29.5607 5.40063 29.6253 5.47815C30.0646 5.03887 30.4651 4.62543 30.8785 4.212C30.801 4.13448 30.7106 4.0182 30.6201 3.92776C30.1938 4.35412 29.8062 4.75463 29.3798 5.19391ZM11.9121 22.8812C11.938 22.9071 11.9638 22.92 11.9896 22.9458C12.3256 22.765 12.6615 22.5712 12.9586 22.4032C12.7778 22.2353 12.6098 22.0802 12.4418 21.9123C12.2739 22.2094 12.093 22.5453 11.9121 22.8812Z" fill="white"/>
<path d="M6.82172 26.4858C5.36177 26.4858 3.90182 26.4858 2.42896 26.4858C2.42896 25.0259 2.42896 23.5788 2.42896 22.106C3.87598 22.106 5.33593 22.106 6.82172 22.106C6.82172 23.553 6.82172 25 6.82172 26.4858ZM3.64343 23.3075C3.64343 23.9923 3.64343 24.6253 3.64343 25.2843C4.31526 25.2843 4.96125 25.2843 5.62017 25.2843C5.62017 24.6124 5.62017 23.9664 5.62017 23.3075C4.94833 23.3075 4.30234 23.3075 3.64343 23.3075Z" fill="white"/>
<path d="M7.85529 4.6253C9.37984 4.6253 10.9044 4.6253 12.416 4.6253C12.5323 4.6253 12.6486 4.61238 12.7519 4.63822C13.0878 4.6899 13.2558 4.90954 13.2687 5.24545C13.2687 5.55553 13.0879 5.76225 12.7778 5.82685C12.6873 5.85269 12.584 5.83977 12.4806 5.83977C9.39276 5.83977 6.31782 5.83977 3.22997 5.83977C3.16537 5.83977 3.10077 5.83977 3.03617 5.83977C2.68733 5.80101 2.41602 5.54261 2.41602 5.21962C2.41602 4.8837 2.68733 4.6253 3.06201 4.6253C4.05684 4.6253 5.05167 4.6253 6.04651 4.6253C6.65374 4.6253 7.24806 4.6253 7.85529 4.6253Z" fill="white"/>
<path d="M7.85529 12.6357C9.4186 12.6357 10.969 12.6357 12.5323 12.6357C13.0103 12.6357 13.2816 12.8424 13.2816 13.23C13.2946 13.6047 13.0233 13.8373 12.5323 13.8373C9.4186 13.8373 6.29198 13.8373 3.17829 13.8373C2.71317 13.8373 2.41602 13.5918 2.41602 13.23C2.41602 12.8554 2.70025 12.6228 3.16537 12.6228C4.72868 12.6357 6.29198 12.6357 7.85529 12.6357Z" fill="white"/>
<path d="M7.8553 16.4987C6.33075 16.4987 4.8062 16.4987 3.29457 16.4987C3.16538 16.4987 3.03618 16.5116 2.9199 16.4858C2.63566 16.4212 2.45478 16.2274 2.42894 15.9431C2.4031 15.646 2.57106 15.4393 2.84238 15.3488C2.97158 15.3101 3.1137 15.3101 3.25582 15.3101C6.33075 15.3101 9.39277 15.3101 12.4677 15.3101C12.584 15.3101 12.7003 15.3101 12.8036 15.3359C13.1395 15.4134 13.3075 15.6331 13.2817 15.9561C13.2687 16.292 13.0749 16.4858 12.7261 16.5116C12.6098 16.5245 12.4935 16.5116 12.3902 16.5116C10.8786 16.4987 9.36693 16.4987 7.8553 16.4987Z" fill="white"/>
<path d="M7.86823 9.96131C9.37986 9.96131 10.8915 9.96131 12.4031 9.96131C12.5323 9.96131 12.6615 9.94839 12.7778 9.97423C13.1137 10.0388 13.2687 10.2843 13.2817 10.5944C13.2817 10.8915 13.0879 11.0724 12.8036 11.137C12.7003 11.1629 12.584 11.1629 12.4677 11.1629C9.4057 11.1629 6.3566 11.1629 3.29459 11.1629C3.21707 11.1629 3.13955 11.1629 3.06203 11.1629C2.67443 11.137 2.42896 10.8915 2.42896 10.5427C2.42896 10.2068 2.67443 9.96131 3.07495 9.96131C4.37986 9.94839 5.69769 9.96131 7.0026 9.96131C7.28684 9.96131 7.58399 9.96131 7.86823 9.96131Z" fill="white"/>
<path d="M7.89408 8.50134C6.33077 8.50134 4.78038 8.51425 3.21707 8.48841C2.99744 8.48841 2.7132 8.37214 2.57108 8.20418C2.261 7.84242 2.48064 7.3773 2.94576 7.29978C3.06203 7.28686 3.16539 7.28687 3.28167 7.28687C6.33077 7.28687 9.36695 7.28687 12.416 7.28687C12.5065 7.28687 12.5969 7.28687 12.6744 7.28687C13.0362 7.32562 13.2946 7.60986 13.2817 7.93286C13.2688 8.24294 13.0104 8.48841 12.6357 8.48841C11.4212 8.50133 10.2067 8.50134 8.99227 8.50134C8.61759 8.50134 8.25583 8.50134 7.89408 8.50134Z" fill="white"/>
</svg>
