<svg width="30" height="31" viewBox="0 0 30 31" fill="none" xmlns="http://www.w3.org/2000/svg">
<path d="M-1.52588e-05 4.77998C0.109985 4.35998 0.199985 3.92999 0.339985 3.51999C0.539985 2.93999 0.849985 2.87999 1.27998 3.30999C2.04998 4.06999 2.80998 4.83998 3.56998 5.60998C3.69998 5.73998 3.80998 5.77998 3.97998 5.71999C4.21998 5.63999 4.45998 5.55998 4.70998 5.52998C5.05998 5.48998 5.19999 5.29998 5.25998 4.96999C5.30999 4.64998 5.52998 4.30999 5.44998 4.04998C5.37998 3.75998 5.03998 3.54998 4.80998 3.31998C4.20998 2.70998 3.59998 2.10998 2.98998 1.49998C2.63998 1.14998 2.70998 0.829985 3.15998 0.639985C6.12998 -0.600015 9.60998 1.40999 10.01 4.59999C10.1 5.31999 10.05 6.01998 9.86998 6.70998C9.84998 6.79998 9.86998 6.94999 9.92998 7.00998C11.75 8.83998 13.58 10.67 15.41 12.49C15.42 12.5 15.44 12.51 15.48 12.53C15.55 12.47 15.62 12.4 15.68 12.34C18.19 9.82998 20.7 7.31999 23.2 4.80999C23.32 4.68999 23.42 4.53998 23.48 4.37998C23.73 3.72998 23.96 3.05998 24.22 2.40998C24.29 2.23998 24.44 2.05998 24.6 1.96998C25.57 1.43998 26.56 0.929985 27.55 0.419985C27.89 0.239985 28.02 0.259985 28.3 0.539985C28.76 0.989985 29.21 1.44999 29.66 1.89998C29.94 2.17998 29.96 2.30998 29.78 2.64998C29.27 3.62998 28.76 4.61999 28.23 5.59999C28.14 5.75998 27.97 5.91998 27.79 5.98998C27.14 6.25998 26.48 6.47998 25.83 6.73998C25.67 6.79998 25.52 6.89999 25.4 7.01999C24.84 7.55999 24.29 8.11998 23.74 8.66998C23.48 8.92999 23.22 8.94998 23.03 8.74998C22.84 8.54998 22.87 8.29998 23.13 8.03998C23.73 7.43998 24.33 6.83998 24.93 6.23998C25.04 6.12998 25.18 6.04998 25.32 5.98998C25.95 5.73998 26.6 5.51999 27.23 5.26999C27.37 5.20999 27.51 5.08998 27.58 4.95998C28 4.18998 28.39 3.40998 28.81 2.63998C28.9 2.47998 28.9 2.36998 28.76 2.23998C28.44 1.92998 28.13 1.59999 27.82 1.27999C26.89 1.75999 26 2.21998 25.12 2.68998C25.04 2.72998 24.99 2.84998 24.95 2.94998C24.71 3.56998 24.5 4.18999 24.25 4.80999C24.17 4.99999 24.05 5.18998 23.91 5.33998C21.39 7.87998 18.86 10.4 16.33 12.93C16.25 13.01 16.17 13.07 16.09 13.13C16.43 13.46 16.75 13.77 17.12 14.13C17.16 14.08 17.21 13.98 17.28 13.91C18.73 12.45 20.19 11 21.64 9.54998C21.72 9.46999 21.79 9.38999 21.88 9.33998C22.07 9.22999 22.26 9.23998 22.41 9.39998C22.57 9.55998 22.59 9.74998 22.47 9.92999C22.42 10.02 22.33 10.09 22.26 10.17C20.81 11.62 19.35 13.08 17.9 14.53C17.83 14.6 17.72 14.65 17.63 14.72C17.75 14.85 17.81 14.91 17.87 14.97C19.62 16.72 21.37 18.47 23.12 20.23C23.27 20.38 23.39 20.41 23.6 20.36C25.58 19.88 27.31 20.35 28.67 21.87C30.01 23.38 30.29 25.15 29.59 27.05C29.41 27.54 29.08 27.6 28.71 27.23C27.94 26.46 27.16 25.69 26.4 24.91C26.26 24.77 26.15 24.74 25.97 24.8C25.6 24.92 25.12 24.91 24.88 25.15C24.64 25.39 24.65 25.87 24.52 26.24C24.46 26.43 24.51 26.56 24.65 26.7C25.42 27.45 26.17 28.21 26.93 28.97C27.36 29.4 27.29 29.71 26.71 29.91C26.3 30.05 25.87 30.14 25.45 30.25C25.1 30.25 24.75 30.25 24.4 30.25C24.15 30.19 23.91 30.15 23.66 30.08C20.94 29.37 19.33 26.58 20.08 23.88C20.13 23.68 20.11 23.56 19.96 23.42C19.5 22.98 19.05 22.54 18.62 22.07C18.51 21.95 18.43 21.74 18.44 21.59C18.47 21.27 18.89 21.14 19.14 21.38C19.76 21.98 20.37 22.6 20.98 23.22C21.16 23.4 21.08 23.61 21.01 23.82C20.5 25.4 20.78 26.83 21.91 28.05C22.92 29.13 24.19 29.53 25.65 29.3C25.73 29.29 25.81 29.26 25.97 29.22C25.78 29.05 25.63 28.91 25.49 28.77C24.91 28.19 24.33 27.61 23.75 27.04C23.57 26.86 23.5 26.67 23.57 26.41C23.73 25.86 23.87 25.3 24.01 24.75C24.07 24.51 24.21 24.37 24.46 24.3C25.02 24.16 25.57 24.02 26.13 23.86C26.39 23.78 26.58 23.85 26.76 24.04C27.41 24.7 28.07 25.35 28.72 26.01C28.79 26.08 28.86 26.14 28.95 26.23C29.18 25.32 29.1 24.46 28.76 23.63C27.93 21.62 25.68 20.59 23.62 21.3C23.26 21.42 23.02 21.38 22.74 21.1C18.2 16.52 13.67 12 9.13998 7.47998C8.88998 7.22998 8.83998 7.00998 8.94998 6.67999C9.98998 3.65999 7.45998 0.699985 4.30998 1.22998C4.22998 1.22998 4.14998 1.25999 4.02998 1.29999C4.71999 1.97998 5.35998 2.65999 6.03998 3.29998C6.38998 3.61998 6.48998 3.92998 6.32998 4.37998C6.16998 4.81998 6.06998 5.27998 5.96998 5.72998C5.89998 5.99998 5.75998 6.15998 5.46998 6.22998C4.93998 6.35998 4.40998 6.49998 3.88998 6.64998C3.59998 6.72998 3.38998 6.66998 3.17998 6.45998C2.47998 5.73998 1.76998 5.03998 1.01998 4.28998C0.869985 4.74998 0.839985 5.18998 0.879985 5.62998C1.11998 8.36998 3.81998 10.12 6.41998 9.20998C6.72998 9.09999 6.94999 9.15999 7.16998 9.38999C10.7 12.93 14.24 16.46 17.77 20C17.79 20.02 17.81 20.04 17.83 20.06C18.05 20.29 18.07 20.55 17.89 20.73C17.7 20.92 17.45 20.91 17.22 20.68C16.77 20.24 16.32 19.79 15.88 19.34C15.69 19.15 15.51 18.94 15.34 18.74C15 18.98 14.82 19.25 14.73 19.6C14.58 20.22 14.39 20.84 14.21 21.45C14.16 21.61 14.07 21.78 13.95 21.89C11.63 24.22 9.31998 26.55 6.97998 28.86C5.81998 30.01 4.40998 30.35 2.85998 29.83C1.32998 29.32 0.419985 28.19 0.179985 26.59C-1.52588e-05 25.36 0.349985 24.24 1.20998 23.34C2.03998 22.47 2.89998 21.64 3.74998 20.79C3.96998 20.57 4.23998 20.55 4.41998 20.73C4.60998 20.92 4.58998 21.19 4.34998 21.42C3.50998 22.26 2.64998 23.08 1.83998 23.95C0.299985 25.61 1.00998 28.32 3.15998 29.01C4.35998 29.39 5.42999 29.12 6.33998 28.25C6.89998 27.72 7.42998 27.16 7.97998 26.62C9.69998 24.9 11.43 23.18 13.14 21.45C13.26 21.33 13.36 21.15 13.41 20.99C13.55 20.55 13.68 20.1 13.8 19.64C13.95 19.07 14.08 18.5 14.62 18.19C13.74 17.31 12.88 16.46 12.01 15.59C12.04 15.58 12.02 15.58 12.01 15.59C11.66 16.05 11.17 16.24 10.62 16.37C10.05 16.5 9.43998 16.59 8.94998 16.87C8.45998 17.16 8.09999 17.66 7.68998 18.08C7.02998 18.73 6.37998 19.39 5.71998 20.04C5.47998 20.28 5.17999 20.29 5.00998 20.07C4.85998 19.88 4.88998 19.64 5.09998 19.42C6.02998 18.49 6.97998 17.57 7.87998 16.62C8.26999 16.21 8.70998 15.94 9.25998 15.82C9.71998 15.72 10.16 15.56 10.61 15.45C10.96 15.37 11.2 15.18 11.41 14.9C11.36 14.85 11.32 14.8 11.27 14.75C9.76998 13.25 8.25998 11.75 6.76998 10.24C6.67998 10.13 6.57998 10.1 6.39998 10.15C3.44998 10.96 0.529985 9.05998 0.0599847 6.02998C0.0499847 5.95998 0.0199847 5.89998 0.00998474 5.82998C-1.52588e-05 5.47998 -1.52588e-05 5.12998 -1.52588e-05 4.77998Z" fill="white"/>
</svg>
