<svg width="30" height="31" viewBox="0 0 30 31" fill="none" xmlns="http://www.w3.org/2000/svg">
<path d="M1.71285 17.5092C10.5776 17.5092 19.4424 17.5092 28.2972 17.5092C28.3773 17.5092 28.4574 17.5092 28.5275 17.4992C29.429 17.419 29.98 16.818 29.99 15.9165C29.99 15.596 30 15.2755 29.98 14.9549C29.9499 14.2838 29.5092 13.7329 28.8781 13.5626C28.7479 13.5326 28.6177 13.5125 28.5175 13.4925C28.3973 12.6912 28.3272 11.9099 28.1669 11.1586C27.4958 8.04341 25.9032 5.47913 23.419 3.47579C22.3072 2.57429 21.0651 1.88314 19.7229 1.37229C19.6227 1.33222 19.4825 1.2621 19.4624 1.18197C19.3022 0.540902 18.8614 0.210351 18.2805 0C16.0968 0 13.9032 0 11.7195 0C11.1386 0.200334 10.6978 0.540902 10.5376 1.18197C10.5175 1.2621 10.3773 1.33222 10.2771 1.37229C8.93489 1.88314 7.70283 2.56427 6.58096 3.46578C4.09682 5.46912 2.51418 8.02337 1.83305 11.1386C1.66276 11.9099 1.59265 12.6912 1.48246 13.4424C1.21201 13.5526 0.921529 13.6327 0.661095 13.773C0.300494 13.9733 0.150244 14.3339 0.0100098 14.7045C0.0100098 15.2354 0.0100098 15.7563 0.0100098 16.2871C0.0600932 16.3973 0.10016 16.5175 0.16026 16.6277C0.480795 17.2788 1.0217 17.5092 1.71285 17.5092ZM4.34724 7.49249C5.80968 5.11853 7.85308 3.41569 10.4975 2.36394C10.4975 2.50417 10.4975 2.60434 10.4975 2.70451C10.4975 5.34892 10.4975 7.99332 10.4975 10.6377C10.4975 10.7179 10.4975 10.798 10.4975 10.8681C10.5075 11.2688 10.6878 11.4891 11.0083 11.4891C11.3289 11.4891 11.4992 11.2688 11.4992 10.8581C11.4992 7.83306 11.4992 4.80801 11.4992 1.78297C11.4992 1.1419 11.6394 1.00167 12.2704 1.00167C13.0017 1.00167 13.7329 1.00167 14.5042 1.00167C14.5042 1.17195 14.5042 1.30217 14.5042 1.42237C14.5042 4.84808 14.5042 8.27379 14.5042 11.6995C14.5042 11.8397 14.5042 11.97 14.5342 12.1102C14.5843 12.3606 14.7646 12.4908 15.015 12.4808C15.2554 12.4708 15.4257 12.3506 15.4758 12.1102C15.5058 11.98 15.5058 11.8397 15.5058 11.6995C15.5058 8.27379 15.5058 4.84808 15.5058 1.42237C15.5058 1.29215 15.5058 1.17195 15.5058 1.00167C15.616 1.00167 15.7162 1.00167 15.8063 1.00167C16.4674 1.00167 17.1386 1.00167 17.7997 1.00167C18.3506 1.00167 18.5108 1.16194 18.5108 1.72287C18.5108 4.62771 18.5108 7.54257 18.5108 10.4474C18.5108 10.6177 18.5108 10.778 18.5108 10.9482C18.5209 11.2888 18.7112 11.4891 19.0017 11.4891C19.2921 11.4891 19.4825 11.2888 19.5125 10.9583C19.5225 10.8681 19.5125 10.778 19.5125 10.6978C19.5125 8.04341 19.5125 5.38898 19.5125 2.73456C19.5125 2.62437 19.5125 2.52421 19.5125 2.36394C21.576 3.15526 23.2688 4.38731 24.6511 6.05008C26.6444 8.45409 27.4357 11.2888 27.4658 13.4725C19.1719 13.4725 10.8781 13.4725 2.54423 13.4725C2.61435 11.3189 3.21535 9.32554 4.34724 7.49249ZM1.01168 15.0751C1.0217 14.7045 1.202 14.5242 1.57261 14.5042C1.65275 14.4942 1.73288 14.5042 1.803 14.5042C10.6077 14.5042 19.4123 14.5042 28.207 14.5042C28.2972 14.5042 28.3873 14.5042 28.4674 14.5042C28.808 14.5342 28.9783 14.7045 28.9983 15.0451C29.0083 15.3456 29.0083 15.6461 28.9983 15.9566C28.9883 16.2972 28.808 16.4674 28.4674 16.4975C28.3673 16.5075 28.2771 16.4975 28.177 16.4975C23.7796 16.4975 19.3723 16.4975 14.975 16.4975C10.5876 16.4975 6.19031 16.4975 1.803 16.4975C1.1419 16.4975 1.01168 16.3673 1.01168 15.7162C1.00166 15.5058 1.00166 15.2955 1.01168 15.0751Z" fill="white"/>
<path d="M30 22.6578C30 22.187 29.8297 22.0067 29.3389 22.0067C28.798 21.9967 28.2671 21.9967 27.7262 22.0067C27.5159 22.0167 27.4257 21.9566 27.3556 21.7463C27.0851 20.9049 26.5142 20.3539 25.6628 20.1135C25.3823 20.0334 25.0818 20.0034 24.8013 20.0034C18.2705 19.9933 11.7396 20.0034 5.20868 20.0034C4.09683 20.0034 3.23539 20.4341 2.74457 21.4658C2.59432 21.7863 2.54424 22.1469 2.44407 22.5075C1.88314 22.5075 1.29215 22.5175 0.711185 22.5075C0.400668 22.4975 0.160267 22.5877 0 22.8681C0 24.2905 0 25.7229 0 27.1453C0.130217 27.4357 0.360601 27.5259 0.661102 27.5159C1.19199 27.5059 1.71286 27.5259 2.24374 27.5059C2.53422 27.4958 2.67446 27.576 2.79466 27.8665C3.30551 29.0785 4.22705 29.8498 5.53923 29.9499C6.8414 30.0501 8.15359 29.99 9.45576 29.98C10.207 29.97 10.9182 29.7596 11.5993 29.4591C12.8214 28.9182 13.773 28.0768 14.5042 26.9549C14.8047 26.4942 15.1452 26.5142 15.4758 26.9449C15.7563 27.3155 16.0267 27.7062 16.3472 28.0468C17.4391 29.1586 18.7613 29.8498 20.3139 29.9599C21.5359 30.0501 22.7679 30.02 24 30.02C25.6427 30.01 27.0451 28.8581 27.3957 27.2454C27.4357 27.0451 27.5259 27.0251 27.6861 27.0251C28.2371 27.0351 28.778 27.0351 29.3289 27.0251C29.7997 27.0251 29.98 26.8448 29.98 26.364C30 25.1119 30 23.8798 30 22.6578ZM2.49416 26.4741C1.99332 26.4741 1.52254 26.4741 1.0217 26.4741C1.0217 25.9933 1.0217 25.5226 1.0217 25.0217C1.5025 25.0217 1.98331 25.0217 2.49416 25.0217C2.49416 25.5226 2.49416 25.9933 2.49416 26.4741ZM2.50417 24.6711C2.01336 24.6711 1.53255 24.6711 1.03172 24.6711C1.03172 24.3105 1.03172 23.9399 1.03172 23.5192C1.51252 23.5192 1.99332 23.5192 2.50417 23.5192C2.50417 23.9199 2.50417 24.2604 2.50417 24.6711ZM24.0401 28.9883C22.8381 29.0184 21.6361 29.0284 20.4441 28.9382C18.8414 28.818 17.5693 28.0367 16.5977 26.7546C16.4775 26.6044 16.3773 26.4341 16.2571 26.2738C15.586 25.3623 14.4541 25.3623 13.7629 26.2638C13.4324 26.6945 13.1119 27.1453 12.7212 27.5159C11.7796 28.4074 10.6477 28.9082 9.35559 28.9583C8.12354 28.9983 6.87145 29.0084 5.6394 28.9282C4.54758 28.8581 3.58598 27.8464 3.54591 26.7446C3.49583 25.2721 3.51586 23.7997 3.53589 22.3272C3.54591 21.6661 4.12688 21.1052 4.78798 21.015C4.95826 20.995 5.13857 20.985 5.30885 20.985C8.54424 20.985 11.7696 20.985 15.005 20.985C18.2705 20.985 21.5459 20.985 24.8114 20.985C25.4725 20.985 26.0234 21.1953 26.3339 21.8264C26.4341 22.0367 26.4942 22.2972 26.4942 22.5276C26.5142 23.8397 26.5142 25.1419 26.4942 26.4541C26.4741 27.8965 25.4725 28.9483 24.0401 28.9883ZM28.9783 25.9833C28.4975 25.9833 28.0167 25.9833 27.5058 25.9833C27.5058 25.4925 27.5058 25.0117 27.5058 24.5209C27.9967 24.5209 28.4775 24.5209 28.9783 24.5209C28.9783 25.0017 28.9783 25.4825 28.9783 25.9833ZM28.9883 24.1903C28.4975 24.1903 28.0067 24.1903 27.5058 24.1903C27.5058 23.7997 27.5058 23.4391 27.5058 23.0284C27.9967 23.0284 28.4775 23.0284 28.9883 23.0284C28.9883 23.4391 28.9883 23.7897 28.9883 24.1903Z" fill="white"/>
<path d="M12.631 22.0366C12.5108 22.0066 12.3806 22.0066 12.2504 22.0066C11.2487 22.0066 10.237 22.0066 9.23535 22.0066C9.23535 22.0166 9.23535 22.0266 9.23535 22.0366C8.09345 22.0366 6.95155 22.0066 5.80964 22.0467C5.15856 22.0667 4.57759 22.6477 4.53752 23.2887C4.48744 24.04 4.51749 24.7912 4.52751 25.5425C4.52751 25.8129 4.71782 25.9632 4.97826 26.0033C5.21866 26.0333 5.42901 25.873 5.48911 25.6226C5.50914 25.5325 5.51916 25.4323 5.51916 25.3321C5.51916 24.8513 5.51916 24.3805 5.51916 23.8997C5.51916 23.0984 5.59929 23.0183 6.41065 23.0183C8.35388 23.0183 10.2971 23.0183 12.2303 23.0183C12.3706 23.0183 12.5008 23.0183 12.641 22.9882C12.8814 22.9281 13.0016 22.7478 13.0016 22.5174C12.9916 22.267 12.8714 22.0867 12.631 22.0366Z" fill="white"/>
<path d="M15.586 22.0267C15.1953 21.9966 14.8047 22.0066 14.424 22.0267C14.1636 22.0467 14.0334 22.237 14.0134 22.4874C13.9933 22.7278 14.1736 22.9382 14.424 22.9782C14.6144 23.0083 14.8047 22.9983 15.005 23.0183C15.1953 23.0083 15.3957 23.0083 15.586 22.9782C15.8464 22.9382 15.9766 22.7679 15.9967 22.5175C16.0167 22.2771 15.8364 22.0467 15.586 22.0267Z" fill="white"/>
</svg>
