<svg width="74" height="145" viewBox="0 0 74 145" fill="none" xmlns="http://www.w3.org/2000/svg">
<g clip-path="url(#clip0_204_267)">
<path d="M65.4159 140.818C65.4159 143.036 67.217 144.837 69.4212 144.837C71.6255 144.837 73.44 143.036 73.44 140.818C73.44 138.601 71.6389 136.799 69.4212 136.799C67.2035 136.799 65.4159 138.601 65.4159 140.818Z" fill="#F3BF1B"/>
<path d="M65.4159 118.023C65.4159 120.241 67.217 122.042 69.4212 122.042C71.6255 122.042 73.44 120.241 73.44 118.023C73.44 115.805 71.6389 114.004 69.4212 114.004C67.2035 114.004 65.4159 115.805 65.4159 118.023Z" fill="#F3BF1B"/>
<path d="M65.4159 95.214C65.4159 97.4317 67.217 99.2327 69.4212 99.2327C71.6255 99.2327 73.44 97.4317 73.44 95.214C73.44 92.9962 71.6389 91.2086 69.4212 91.2086C67.2035 91.2086 65.4159 93.0097 65.4159 95.214Z" fill="#F3BF1B"/>
<path d="M65.4159 72.4185C65.4159 74.6363 67.217 76.4373 69.4212 76.4373C71.6255 76.4373 73.44 74.6363 73.44 72.4185C73.44 70.2008 71.6389 68.3998 69.4212 68.3998C67.2035 68.3998 65.4159 70.2008 65.4159 72.4185Z" fill="#F3BF1B"/>
<path d="M65.4159 49.6097C65.4159 51.8274 67.217 53.6284 69.4212 53.6284C71.6255 53.6284 73.44 51.8274 73.44 49.6097C73.44 47.3919 71.6389 45.6043 69.4212 45.6043C67.2035 45.6043 65.4159 47.4054 65.4159 49.6097Z" fill="#F3BF1B"/>
<path d="M65.4159 26.8142C65.4159 29.032 67.217 30.833 69.4212 30.833C71.6255 30.833 73.44 29.032 73.44 26.8142C73.44 24.5965 71.6389 22.7955 69.4212 22.7955C67.2035 22.7955 65.4159 24.5965 65.4159 26.8142Z" fill="#F3BF1B"/>
<path d="M65.4159 4.00534C65.4159 6.22306 67.217 8.02411 69.4212 8.02411C71.6255 8.02411 73.44 6.22306 73.44 4.00534C73.44 1.78762 71.6389 -2.72018e-07 69.4212 -1.75079e-07C67.2035 -7.81393e-08 65.4159 1.80106 65.4159 4.00534Z" fill="#F3BF1B"/>
<path d="M43.6151 140.818C43.6151 143.036 45.4161 144.837 47.6204 144.837C49.8247 144.837 51.6392 143.036 51.6392 140.818C51.6392 138.601 49.8381 136.799 47.6204 136.799C45.4027 136.799 43.6151 138.601 43.6151 140.818Z" fill="#F3BF1B"/>
<path d="M43.6151 118.023C43.6151 120.241 45.4161 122.042 47.6204 122.042C49.8247 122.042 51.6392 120.241 51.6392 118.023C51.6392 115.805 49.8381 114.004 47.6204 114.004C45.4027 114.004 43.6151 115.805 43.6151 118.023Z" fill="#F3BF1B"/>
<path d="M43.6151 95.214C43.6151 97.4317 45.4161 99.2327 47.6204 99.2327C49.8247 99.2327 51.6392 97.4317 51.6392 95.214C51.6392 92.9962 49.8381 91.2086 47.6204 91.2086C45.4027 91.2086 43.6151 93.0097 43.6151 95.214Z" fill="#F3BF1B"/>
<path d="M43.6151 72.4185C43.6151 74.6363 45.4161 76.4373 47.6204 76.4373C49.8247 76.4373 51.6392 74.6363 51.6392 72.4185C51.6392 70.2008 49.8381 68.3998 47.6204 68.3998C45.4027 68.3998 43.6151 70.2008 43.6151 72.4185Z" fill="#F3BF1B"/>
<path d="M43.6151 49.6097C43.6151 51.8274 45.4161 53.6284 47.6204 53.6284C49.8247 53.6284 51.6392 51.8274 51.6392 49.6097C51.6392 47.3919 49.8381 45.6043 47.6204 45.6043C45.4027 45.6043 43.6151 47.4054 43.6151 49.6097Z" fill="#F3BF1B"/>
<path d="M43.6151 26.8142C43.6151 29.032 45.4161 30.833 47.6204 30.833C49.8247 30.833 51.6392 29.032 51.6392 26.8142C51.6392 24.5965 49.8381 22.7955 47.6204 22.7955C45.4027 22.7955 43.6151 24.5965 43.6151 26.8142Z" fill="#F3BF1B"/>
<path d="M43.6151 4.00534C43.6151 6.22306 45.4161 8.02411 47.6204 8.02411C49.8247 8.02411 51.6392 6.22306 51.6392 4.00534C51.6392 1.78762 49.8381 -2.72018e-07 47.6204 -1.75079e-07C45.4027 -7.81391e-08 43.6151 1.80106 43.6151 4.00534Z" fill="#F3BF1B"/>
<path d="M21.8008 140.818C21.8008 143.036 23.6019 144.837 25.8061 144.837C28.0104 144.837 29.8249 143.036 29.8249 140.818C29.8249 138.601 28.0239 136.799 25.8061 136.799C23.5884 136.799 21.8008 138.601 21.8008 140.818Z" fill="#F3BF1B"/>
<path d="M21.8008 118.023C21.8008 120.241 23.6019 122.042 25.8061 122.042C28.0104 122.042 29.8249 120.241 29.8249 118.023C29.8249 115.805 28.0239 114.004 25.8061 114.004C23.5884 114.004 21.8008 115.805 21.8008 118.023Z" fill="#F3BF1B"/>
<path d="M21.8008 95.214C21.8008 97.4317 23.6019 99.2327 25.8061 99.2327C28.0104 99.2327 29.8249 97.4317 29.8249 95.214C29.8249 92.9962 28.0239 91.2086 25.8061 91.2086C23.5884 91.2086 21.8008 93.0097 21.8008 95.214Z" fill="#F3BF1B"/>
<path d="M21.8008 72.4185C21.8008 74.6363 23.6019 76.4373 25.8061 76.4373C28.0104 76.4373 29.8249 74.6363 29.8249 72.4185C29.8249 70.2008 28.0239 68.3998 25.8061 68.3998C23.5884 68.3998 21.8008 70.2008 21.8008 72.4185Z" fill="#F3BF1B"/>
<path d="M21.8008 49.6097C21.8008 51.8274 23.6019 53.6284 25.8061 53.6284C28.0104 53.6284 29.8249 51.8274 29.8249 49.6097C29.8249 47.3919 28.0239 45.6043 25.8061 45.6043C23.5884 45.6043 21.8008 47.4054 21.8008 49.6097Z" fill="#F3BF1B"/>
<path d="M21.8008 26.8142C21.8008 29.032 23.6019 30.833 25.8061 30.833C28.0104 30.833 29.8249 29.032 29.8249 26.8142C29.8249 24.5965 28.0239 22.7955 25.8061 22.7955C23.5884 22.7955 21.8008 24.5965 21.8008 26.8142Z" fill="#F3BF1B"/>
<path d="M21.8008 4.00534C21.8008 6.22306 23.6019 8.02411 25.8061 8.02411C28.0104 8.02411 29.8249 6.22306 29.8249 4.00534C29.8249 1.78762 28.0239 -2.72018e-07 25.8061 -1.75079e-07C23.5884 -7.81392e-08 21.8008 1.80106 21.8008 4.00534Z" fill="#F3BF1B"/>
<path d="M-1.75666e-07 140.818C-7.87266e-08 143.036 1.80105 144.837 4.00533 144.837C6.2096 144.837 8.0241 143.036 8.0241 140.818C8.0241 138.601 6.22304 136.799 4.00533 136.799C1.78761 136.799 -2.72018e-07 138.614 -1.75666e-07 140.818Z" fill="#F3BF1B"/>
<path d="M-1.75666e-07 118.023C-7.87267e-08 120.241 1.80105 122.042 4.00533 122.042C6.2096 122.042 8.0241 120.241 8.0241 118.023C8.0241 115.805 6.22304 114.004 4.00533 114.004C1.78761 114.004 -2.72606e-07 115.805 -1.75666e-07 118.023" fill="#F3BF1B"/>
<path d="M-1.75666e-07 95.214C-7.87265e-08 97.4317 1.80105 99.2327 4.00533 99.2327C6.2096 99.2327 8.0241 97.4317 8.0241 95.214C8.0241 92.9962 6.22304 91.2086 4.00533 91.2086C1.78761 91.2086 -2.72018e-07 93.0097 -1.75666e-07 95.214" fill="#F3BF1B"/>
<path d="M-1.75666e-07 72.4185C-7.87266e-08 74.6363 1.80105 76.4373 4.00533 76.4373C6.2096 76.4373 8.0241 74.6363 8.0241 72.4185C8.0241 70.2008 6.22304 68.3998 4.00533 68.3998C1.78761 68.3998 -2.72605e-07 70.2008 -1.75666e-07 72.4185" fill="#F3BF1B"/>
<path d="M-1.75666e-07 49.6097C-7.87265e-08 51.8274 1.80105 53.6284 4.00533 53.6284C6.2096 53.6284 8.0241 51.8274 8.0241 49.6097C8.0241 47.3919 6.22304 45.6043 4.00533 45.6043C1.78761 45.6043 -2.72018e-07 47.4054 -1.75666e-07 49.6097" fill="#F3BF1B"/>
<path d="M-1.75666e-07 26.8142C-7.87265e-08 29.032 1.80105 30.833 4.00533 30.833C6.2096 30.833 8.0241 29.032 8.0241 26.8142C8.0241 24.5965 6.22304 22.7955 4.00533 22.7955C1.78761 22.7955 -2.72605e-07 24.5965 -1.75666e-07 26.8142" fill="#F3BF1B"/>
<path d="M-1.75666e-07 4.00534C-7.87265e-08 6.22306 1.80105 8.02411 4.00533 8.02411C6.2096 8.02411 8.0241 6.22306 8.0241 4.00534C8.0241 1.78762 6.22304 -2.72018e-07 4.00533 -1.75079e-07C1.78761 -7.81391e-08 -2.72018e-07 1.80106 -1.75666e-07 4.00534" fill="#F3BF1B"/>
</g>
<defs>
<clipPath id="clip0_204_267">
<rect width="144.837" height="73.44" fill="white" transform="translate(0 144.837) rotate(-90)"/>
</clipPath>
</defs>
</svg>
