<svg width="24" height="25" viewBox="0 0 24 25" fill="none" xmlns="http://www.w3.org/2000/svg">
<path d="M11.9375 7.61865V9.27295" stroke="white" stroke-miterlimit="10" stroke-linecap="round" stroke-linejoin="round"/>
<path d="M11.9375 15.8921V17.5469" stroke="white" stroke-miterlimit="10" stroke-linecap="round" stroke-linejoin="round"/>
<path d="M10.375 15.8921H12.7188C13.5781 15.8921 14.2812 15.1475 14.2812 14.2374C14.2812 13.3273 13.5781 12.5826 12.7188 12.5826H11.1562C10.2969 12.5826 9.59375 11.838 9.59375 10.9279C9.59375 10.0178 10.2969 9.27319 11.1562 9.27319H13.5" stroke="white" stroke-miterlimit="10" stroke-linecap="round" stroke-linejoin="round"/>
<path d="M11.9375 4.30933C16.2344 4.30933 19.75 8.03237 19.75 12.5828C19.75 17.1332 16.2344 20.8562 11.9375 20.8562C7.64062 20.8562 4.125 17.1332 4.125 12.5828V10.1007" stroke="white" stroke-width="1.5" stroke-miterlimit="10" stroke-linecap="round" stroke-linejoin="round"/>
<path d="M7.25 13.4102L4.125 10.1008L1 13.4102" stroke="white" stroke-width="1.5" stroke-miterlimit="10" stroke-linecap="round" stroke-linejoin="round"/>
<path d="M11.9375 1C17.9531 1 22.875 6.21224 22.875 12.5828C22.875 18.9533 17.9531 24.1655 11.9375 24.1655" stroke="white" stroke-width="1.5" stroke-miterlimit="10" stroke-linecap="round" stroke-linejoin="round"/>
</svg>
