<svg width="40" height="28" viewBox="0 0 40 28" fill="none" xmlns="http://www.w3.org/2000/svg">
<path d="M24.8851 6.1409C24.968 6.10206 25.0574 6.08187 25.148 6.08188L24.8851 6.1409ZM24.8851 6.1409C24.8022 6.17971 24.7278 6.23622 24.6656 6.30651M24.8851 6.1409L24.6656 6.30651M24.9275 16.8398L24.8851 16.9304C24.8022 16.8916 24.7278 16.8351 24.6656 16.7648C24.6035 16.6945 24.5548 16.6117 24.5218 16.5214C24.4887 16.4312 24.4718 16.3347 24.4718 16.2376L24.9275 16.8398ZM24.9275 16.8398L24.8851 16.9304C24.968 16.9692 25.0574 16.9894 25.1481 16.9894M24.9275 16.8398L25.1481 16.9894M24.6656 6.30651C24.6035 6.37677 24.5548 6.45955 24.5218 6.54985M24.6656 6.30651L24.5218 6.54985M24.5218 6.54985C24.4887 6.64013 24.4718 6.73655 24.4718 6.83368M24.5218 6.54985L24.4718 6.83368M24.4718 6.83368C24.4718 6.83369 24.4718 6.8337 24.4718 6.8337M24.4718 6.83368V6.8337M24.4718 6.8337V16.2376V6.8337ZM25.1481 16.9894C25.1481 16.9894 25.1481 16.9894 25.1481 16.9894M25.1481 16.9894H25.1481M25.1481 16.9894H30.181C30.3646 16.9894 30.5378 16.9068 30.6634 16.7647C30.7886 16.6231 30.8572 16.4333 30.8572 16.2376C30.8572 16.0419 30.7886 15.8522 30.6634 15.7105C30.5378 15.5684 30.3646 15.4858 30.181 15.4858H25.8243V6.8337C25.8243 6.83369 25.8243 6.83369 25.8243 6.83368C25.8243 6.73655 25.8074 6.64013 25.7744 6.54985C25.7413 6.45956 25.6926 6.37678 25.6305 6.30651C25.5683 6.23622 25.4939 6.17971 25.411 6.1409C25.3281 6.10207 25.2387 6.08187 25.1481 6.08188L25.1481 16.9894Z" fill="white" stroke="white" stroke-width="0.2"/>
<path d="M7.01409 16.9853H16.1608C16.3444 16.9853 16.5176 16.9026 16.6432 16.7606C16.7684 16.6189 16.837 16.4291 16.837 16.2334C16.837 16.0377 16.7684 15.8479 16.6432 15.7062C16.5176 15.5642 16.3444 15.4815 16.1608 15.4815H7.01409C6.83048 15.4815 6.65731 15.5642 6.53171 15.7062C6.40647 15.8479 6.33787 16.0377 6.33787 16.2334C6.33787 16.4291 6.40647 16.6189 6.53171 16.7606C6.65731 16.9026 6.83048 16.9853 7.01409 16.9853Z" fill="white" stroke="white" stroke-width="0.2"/>
<path d="M10.4523 12.9923H16.1608C16.3444 12.9923 16.5175 12.9098 16.6431 12.7677C16.7684 12.6261 16.837 12.4364 16.837 12.2407C16.837 12.0451 16.7684 11.8554 16.6431 11.7137C16.5175 11.5717 16.3444 11.4891 16.1608 11.4891H10.4523C10.2687 11.4891 10.0956 11.5717 9.96996 11.7137C9.84471 11.8554 9.7761 12.0451 9.7761 12.2407C9.7761 12.4364 9.84471 12.6261 9.96996 12.7677C10.0956 12.9098 10.2687 12.9923 10.4523 12.9923Z" fill="white" stroke="white" stroke-width="0.2"/>
<path d="M26.5956 0.8H26.5957C33.5546 0.8 39.2 6.72995 39.2 14C39.2 21.2701 33.5546 27.2 26.5957 27.2H26.5956C24.3861 27.1996 22.216 26.5907 20.3029 25.435C18.4229 24.2992 16.8563 22.6749 15.7533 20.7209H1.61076C1.39263 20.7209 1.18544 20.63 1.03419 20.4715L1.03419 20.4715C0.883248 20.3133 0.8 20.1007 0.8 19.8808C0.8 19.661 0.883249 19.4484 1.03419 19.2902L1.03419 19.2902C1.18544 19.1317 1.39263 19.0408 1.61076 19.0408H16.2201H16.2331L16.246 19.0424C16.2775 19.0465 16.3087 19.0527 16.3395 19.0607C16.4475 19.0713 16.5506 19.1105 16.639 19.1738C16.6796 19.1978 16.718 19.2254 16.7538 19.2563L16.7598 19.2614L16.7654 19.2671C16.8018 19.3039 16.8347 19.3442 16.8635 19.3874C16.8845 19.4112 16.9041 19.4363 16.9221 19.4625L16.9292 19.4729L16.935 19.4841C17.878 21.3115 19.2742 22.8364 20.9749 23.8984C22.6754 24.9604 24.6175 25.5203 26.5956 25.5198H26.5957C32.6426 25.5198 37.5785 20.3607 37.5785 14C37.5785 7.63933 32.6426 2.48018 26.5957 2.48018H26.5956C24.6194 2.47984 22.6791 3.03883 20.9796 4.09897C19.28 5.15916 17.884 6.68148 16.94 8.5061L16.9336 8.51836L16.9257 8.52963C16.9106 8.55086 16.8946 8.57136 16.8777 8.59102C16.8426 8.64592 16.8012 8.69644 16.7542 8.74142L16.7472 8.74812L16.7471 8.74794C16.7302 8.76267 16.7142 8.77328 16.7058 8.77879L16.6963 8.78502L26.5956 0.8ZM26.5956 0.8C24.3862 0.800503 22.2163 1.40943 20.3032 2.56502C18.4233 3.70061 16.8566 5.32468 15.7534 7.27844H12.5431C12.3249 7.27844 12.1177 7.36934 11.9665 7.52785C11.8155 7.68604 11.7323 7.89867 11.7323 8.11853C11.7323 8.33839 11.8155 8.55102 11.9665 8.70921C12.1177 8.86772 12.3249 8.95862 12.5431 8.95862H16.2205V8.95892L16.2313 8.95833C16.3045 8.95435 16.3767 8.93986 16.4458 8.9154C16.4514 8.91406 16.4583 8.9122 16.4661 8.90958C16.5489 8.88149 16.6263 8.83951 16.6954 8.78559L26.5956 0.8Z" fill="white" stroke="white" stroke-width="0.4"/>
</svg>
