<svg width="21" height="29" viewBox="0 0 21 29" fill="none" xmlns="http://www.w3.org/2000/svg">
<path d="M1.89416 29H18.1643C19.1932 29 20.0292 28.1061 20.0292 27.0059V4.46947C20.0292 3.36929 19.1932 2.4754 18.1643 2.4754H15.7688V0.644635C15.7688 0.292235 15.4954 0 15.1659 0C14.8363 0 14.563 0.292235 14.563 0.644635V2.4754H10.6321V0.644635C10.6321 0.292235 10.3588 0 10.0292 0C9.69962 0 9.42631 0.292235 9.42631 0.644635V2.4754H5.49544V0.644635C5.49544 0.292235 5.22213 0 4.89255 0C4.56297 0 4.28966 0.292235 4.28966 0.644635V2.4754H1.89416C0.865218 2.4754 0.0292053 3.36929 0.0292053 4.46947V26.9973C0.0292053 28.0975 0.865218 29 1.89416 29ZM1.23499 4.46947C1.23499 4.08269 1.53242 3.76467 1.89416 3.76467H4.28966V5.61263C4.28966 5.96503 4.56297 6.25726 4.89255 6.25726C5.22213 6.25726 5.49544 5.96503 5.49544 5.61263V3.76467H9.42631V5.61263C9.42631 5.96503 9.69962 6.25726 10.0292 6.25726C10.3588 6.25726 10.6321 5.96503 10.6321 5.61263V3.76467H14.563V5.61263C14.563 5.96503 14.8363 6.25726 15.1659 6.25726C15.4954 6.25726 15.7688 5.96503 15.7688 5.61263V3.76467H18.1643C18.526 3.76467 18.8234 4.08269 18.8234 4.46947V26.9973C18.8234 27.3841 18.526 27.7021 18.1643 27.7021H1.89416C1.53242 27.7021 1.23499 27.3841 1.23499 26.9973V4.46947Z" fill="white"/>
<path d="M4.14399 11.7878C4.25418 11.9325 4.39376 12 4.53334 12C4.67292 12 4.81249 11.9325 4.92269 11.7878L6.86943 9.23207C7.08247 8.95238 7.08247 8.48945 6.86943 8.20976C6.65639 7.93008 6.30377 7.93008 6.09073 8.20976L4.53334 10.2544L3.96768 9.51175C3.75464 9.23207 3.40202 9.23207 3.18898 9.51175C2.97595 9.79144 2.97595 10.2544 3.18898 10.5341L4.14399 11.7878Z" fill="white"/>
<path d="M8.6177 10H16.4407C16.7624 10 17.0292 9.77333 17.0292 9.5C17.0292 9.22667 16.7624 9 16.4407 9H8.6177C8.29599 9 8.02921 9.22667 8.02921 9.5C8.02921 9.77333 8.29599 10 8.6177 10Z" fill="white"/>
<path d="M4.14399 16.8409C4.25418 16.9494 4.39376 17 4.53334 17C4.67292 17 4.81249 16.9494 4.92269 16.8409L6.86943 14.9241C7.08247 14.7143 7.08247 14.3671 6.86943 14.1573C6.65639 13.9476 6.30377 13.9476 6.09073 14.1573L4.53334 15.6835L3.96768 15.1266C3.75464 14.9168 3.40202 14.9168 3.18898 15.1266C2.97595 15.3363 2.97595 15.6835 3.18898 15.8933L4.14399 16.8409Z" fill="white"/>
<path d="M8.6177 16H16.4407C16.7624 16 17.0292 15.7733 17.0292 15.5C17.0292 15.2267 16.7624 15 16.4407 15H8.6177C8.29599 15 8.02921 15.2267 8.02921 15.5C8.02921 15.7733 8.29599 16 8.6177 16Z" fill="white"/>
<path d="M4.14399 22.8409C4.25418 22.9494 4.39376 23 4.53334 23C4.67292 23 4.81249 22.9494 4.92269 22.8409L6.86943 20.9241C7.08247 20.7143 7.08247 20.3671 6.86943 20.1573C6.65639 19.9476 6.30377 19.9476 6.09073 20.1573L4.53334 21.6908L3.96768 21.1338C3.75464 20.9241 3.40202 20.9241 3.18898 21.1338C2.97595 21.3436 2.97595 21.6908 3.18898 21.9005L4.14399 22.8409Z" fill="white"/>
<path d="M8.6177 22H16.4407C16.7624 22 17.0292 21.7733 17.0292 21.5C17.0292 21.2267 16.7624 21 16.4407 21H8.6177C8.29599 21 8.02921 21.2267 8.02921 21.5C8.02921 21.7733 8.29599 22 8.6177 22Z" fill="white"/>
</svg>
