<svg width="30" height="32" viewBox="0 0 30 32" fill="none" xmlns="http://www.w3.org/2000/svg">
<mask id="path-1-outside-1_111_131" maskUnits="userSpaceOnUse" x="0.0802917" y="10.6829" width="29" height="21" fill="black">
<rect fill="white" x="0.0802917" y="10.6829" width="29" height="21"/>
<path d="M28.8759 20.4275L25.1858 11.6829L21.1858 13.5986L21.4534 14.2371C20.6013 14.5301 19.6647 14.5977 18.714 14.4325C18.0943 14.3273 17.4675 14.3273 16.8549 14.4325C16.3689 14.5151 15.883 14.6729 15.4253 14.8907C15.214 14.9884 15.0098 15.1086 14.8056 15.2438L13.0239 16.1754C12.7492 16.1228 12.4746 16.0852 12.1999 16.0702C11.2281 16.0251 10.3126 15.7547 9.52391 15.2814L9.90419 14.7255L6.33378 11.9909L1.08029 19.7739L4.63661 22.5085L5.01689 21.9526C5.69294 22.5987 6.22111 23.4401 6.56618 24.4092C6.59435 24.4918 6.62251 24.567 6.65773 24.6496L6.20702 25.3107C5.75632 25.9793 5.89717 26.9184 6.52392 27.3992C6.72815 27.557 6.9535 27.6396 7.18589 27.6697C7.18589 27.7448 7.19293 27.8199 7.19998 27.895C7.26336 28.2857 7.46054 28.6313 7.76335 28.8717C8.00279 29.0595 8.29152 29.1572 8.58025 29.1572C8.6225 29.1572 8.65771 29.1572 8.69997 29.1496C8.77743 29.4952 8.96757 29.7957 9.24222 30.0061C9.4887 30.1939 9.77743 30.2916 10.0591 30.2916C10.207 30.2916 10.3549 30.269 10.4957 30.2164C10.5943 30.4493 10.7493 30.6522 10.9464 30.8024C11.1859 30.9902 11.4746 31.0879 11.7633 31.0879C11.8408 31.0879 11.9183 31.0804 11.9887 31.0654C12.3619 30.9977 12.6859 30.7874 12.9042 30.4643L13.1859 30.0436L14.5309 30.87C14.7704 31.0203 15.038 31.0879 15.2915 31.0879C15.707 31.0879 16.1084 30.9076 16.3901 30.562C16.545 30.3667 16.6577 30.1413 16.714 29.8934C16.9887 29.9911 17.2774 30.0136 17.5732 29.961C18.052 29.8784 18.4675 29.6004 18.7492 29.1797C18.9323 28.9017 19.052 28.5787 19.0802 28.2481C19.0943 28.0979 19.0943 27.9476 19.0731 27.8049C19.5661 27.7748 20.0379 27.5419 20.3619 27.1212C20.6365 26.7682 20.7774 26.3399 20.7774 25.8892C20.883 25.8967 20.9816 25.8892 21.0872 25.8666C21.4745 25.799 21.8126 25.5736 22.0379 25.2356C22.2281 24.9501 22.3478 24.6195 22.383 24.2665C22.383 24.2514 22.383 24.2289 22.39 24.2139C22.4886 24.0786 22.5802 23.9359 22.6647 23.7932C23.1788 22.9217 23.8478 22.223 24.6154 21.7347L24.8759 22.3432L28.8759 20.4275ZM27.5731 19.9016L25.3759 20.9534L22.4957 14.1245L24.6928 13.0727L27.5731 19.9016ZM6.55913 13.4633L8.51687 14.9659L4.65774 20.6754L4.41126 21.0436L2.45352 19.541L6.55913 13.4633ZM7.00984 25.9267L7.62251 25.0177L7.65772 24.9651C7.6718 24.9426 7.69293 24.9201 7.70702 24.905C7.72814 24.89 7.74223 24.8675 7.76335 24.86C7.76335 24.86 7.77039 24.86 7.77039 24.8524C7.79152 24.8374 7.81265 24.8299 7.83378 24.8149H7.84082C7.86194 24.8074 7.89011 24.7999 7.91828 24.7923H7.92532C7.93941 24.7923 7.96054 24.7848 7.97462 24.7848C7.98166 24.7848 7.9887 24.7848 7.9887 24.7848C8.00279 24.7848 8.02391 24.7848 8.038 24.7923C8.04504 24.7923 8.05208 24.7923 8.05913 24.7923C8.07321 24.7923 8.0873 24.7999 8.10138 24.7999C8.10842 24.7999 8.10842 24.7999 8.11546 24.8074C8.12955 24.8149 8.15067 24.8224 8.16476 24.8299C8.1718 24.8299 8.1718 24.8374 8.17884 24.8374C8.19293 24.8449 8.21405 24.86 8.22814 24.8675C8.33377 24.9501 8.39715 25.0778 8.39715 25.213C8.39715 25.2356 8.39715 25.2506 8.39715 25.2731C8.39715 25.2957 8.39011 25.3182 8.39011 25.3332C8.37603 25.3858 8.3549 25.4384 8.32673 25.4835L7.67885 26.4451C7.54504 26.6404 7.28448 26.6855 7.10138 26.5428C6.91829 26.4 6.87603 26.1221 7.00984 25.9267ZM8.34786 28.0152C8.25631 27.9476 8.19997 27.8425 8.17884 27.7298C8.15772 27.6096 8.18589 27.4969 8.24927 27.3992L9.69996 25.2506C9.76334 25.1529 9.86193 25.0928 9.96757 25.0703C9.98869 25.0703 10.0098 25.0628 10.0309 25.0628H10.038C10.0591 25.0628 10.0732 25.0628 10.0943 25.0703H10.1014C10.1155 25.0703 10.1366 25.0778 10.1507 25.0853H10.1577C10.1788 25.0928 10.1929 25.1004 10.207 25.1079C10.214 25.1079 10.214 25.1154 10.2211 25.1154C10.2352 25.1229 10.2563 25.1379 10.2704 25.1454C10.3619 25.213 10.4183 25.3182 10.4394 25.4309C10.4464 25.4685 10.4464 25.506 10.4394 25.5511C10.4394 25.5812 10.4324 25.6187 10.4183 25.6488C10.4183 25.6563 10.4183 25.6638 10.4112 25.6638C10.4042 25.6713 10.4042 25.6863 10.3971 25.6938C10.3971 25.7014 10.3901 25.7089 10.3901 25.7164C10.3831 25.7239 10.376 25.7389 10.376 25.7464C10.369 25.754 10.369 25.7615 10.3619 25.769L8.91123 27.9176C8.84785 28.0152 8.74926 28.0753 8.64363 28.0979C8.54504 28.1129 8.43236 28.0904 8.34786 28.0152ZM9.81968 29.1496C9.72813 29.082 9.67179 28.9769 9.65067 28.8642C9.62954 28.744 9.65771 28.6313 9.72109 28.5336L11.1718 26.385C11.1859 26.3625 11.2 26.3474 11.2211 26.3249C11.2281 26.3174 11.2281 26.3174 11.2352 26.3099C11.2493 26.2949 11.2704 26.2798 11.2915 26.2648C11.2985 26.2648 11.2985 26.2573 11.3056 26.2573C11.3197 26.2498 11.3408 26.2348 11.3619 26.2272C11.369 26.2272 11.369 26.2272 11.376 26.2197C11.3971 26.2122 11.4183 26.2047 11.4464 26.1972C11.4535 26.1972 11.4605 26.1972 11.4676 26.1897C11.4746 26.1897 11.4746 26.1897 11.4816 26.1897C11.4957 26.1897 11.5028 26.1897 11.5169 26.1897H11.5239C11.545 26.1897 11.5661 26.1897 11.5802 26.1972C11.5802 26.1972 11.5802 26.1972 11.5873 26.1972C11.6084 26.1972 11.6225 26.2047 11.6436 26.2122H11.6507C11.6718 26.2197 11.6859 26.2272 11.707 26.2348C11.707 26.2348 11.714 26.2348 11.714 26.2423C11.7281 26.2498 11.7492 26.2648 11.7633 26.2723C11.7915 26.2949 11.8197 26.3249 11.8408 26.355C11.8971 26.4301 11.9323 26.5202 11.9323 26.6179C11.9323 26.6404 11.9323 26.6555 11.9323 26.678C11.9253 26.7156 11.9183 26.7531 11.9112 26.7907C11.9112 26.7982 11.9042 26.7982 11.9042 26.8057C11.8901 26.8358 11.876 26.8658 11.8619 26.8959L10.4112 29.0445C10.2633 29.2473 10.0028 29.2924 9.81968 29.1496ZM11.8338 30.0211C11.7211 30.0436 11.6154 30.0136 11.5239 29.946C11.4323 29.8784 11.376 29.7732 11.3549 29.6605C11.3338 29.5403 11.3619 29.4276 11.4253 29.3299L12.0732 28.3683C12.0802 28.3533 12.0943 28.3458 12.1014 28.3383C12.1084 28.3308 12.1225 28.3157 12.1295 28.3082C12.1366 28.3007 12.1507 28.2932 12.1647 28.2782C12.1718 28.2707 12.1859 28.2632 12.1929 28.2556C12.207 28.2481 12.2211 28.2406 12.2352 28.2331C12.2422 28.2256 12.2563 28.2256 12.2633 28.2181C12.2915 28.2106 12.3126 28.2031 12.3408 28.1955C12.3619 28.1955 12.383 28.188 12.4042 28.188C12.4112 28.188 12.4112 28.188 12.4183 28.188C12.4394 28.188 12.4535 28.188 12.4746 28.1955C12.4816 28.1955 12.4816 28.1955 12.4887 28.1955C12.5028 28.1955 12.5239 28.2031 12.538 28.2106H12.545C12.5591 28.2181 12.5802 28.2256 12.5943 28.2331C12.6014 28.2331 12.6014 28.2406 12.6084 28.2406C12.6225 28.2481 12.6436 28.2632 12.6577 28.2707C12.7774 28.3608 12.8408 28.5186 12.8267 28.6763C12.8197 28.7515 12.7915 28.8266 12.7492 28.8942L12.1014 29.8558C12.038 29.9385 11.9464 30.0061 11.8338 30.0211ZM21.4041 24.1613C21.39 24.3266 21.3337 24.4843 21.2422 24.6195C21.1647 24.7322 21.0591 24.7999 20.9323 24.8224C20.8055 24.8449 20.6788 24.8149 20.5802 24.7322L20.0309 24.3115L18.9534 23.4851C18.7351 23.3124 18.4253 23.3725 18.2633 23.6053C18.1013 23.8382 18.1577 24.1688 18.376 24.3416L19.4534 25.168C19.6365 25.3107 19.7562 25.5286 19.7915 25.769C19.8196 26.0094 19.7562 26.2498 19.6084 26.4451C19.3408 26.7982 18.8196 26.8508 18.4534 26.5728L18.3478 26.4902L18.3408 26.4827L17.0098 25.461C16.7915 25.2882 16.4816 25.3483 16.3196 25.5812C16.1577 25.8141 16.214 26.1446 16.4323 26.3174L17.7633 27.3391C17.9957 27.5194 18.1224 27.8274 18.0943 28.143C18.0802 28.3007 18.0309 28.4435 17.9464 28.5637C17.8196 28.7515 17.6295 28.8792 17.4112 28.9168C17.1929 28.9543 16.9746 28.9017 16.7985 28.759L16.1506 28.2632C16.1506 28.2632 16.1436 28.2632 16.1436 28.2556L14.883 27.2865C14.6647 27.1137 14.3549 27.1738 14.1929 27.4067C14.0309 27.6396 14.0873 27.9702 14.3056 28.143L15.5661 29.1121C15.6788 29.1947 15.7422 29.3224 15.7563 29.4652C15.7704 29.6079 15.7281 29.7507 15.6436 29.8633C15.4957 30.0436 15.2351 30.0812 15.0168 29.946L13.7281 29.1572C13.7352 29.1346 13.7422 29.1196 13.7492 29.0971C13.7492 29.0895 13.7563 29.0745 13.7563 29.067C13.7633 29.0445 13.7704 29.0219 13.7704 28.9994C13.7704 28.9919 13.7774 28.9844 13.7774 28.9769C13.7844 28.9543 13.7844 28.9243 13.7915 28.9017C13.7915 28.8942 13.7915 28.8867 13.7985 28.8792C13.8056 28.8491 13.8056 28.8116 13.8126 28.7815C13.8619 28.2481 13.6436 27.7298 13.2352 27.4142C13.1999 27.3842 13.1647 27.3616 13.1295 27.3391C13.1154 27.3316 13.1084 27.3241 13.0943 27.3166C13.0661 27.3015 13.045 27.2865 13.0168 27.2715C13.0028 27.264 12.9887 27.2565 12.9746 27.249C12.9464 27.2339 12.9253 27.2264 12.8971 27.2189C12.883 27.2114 12.869 27.2039 12.8549 27.2039C12.8478 27.2039 12.8337 27.1964 12.8267 27.1964V27.1889C12.8337 27.1738 12.8408 27.1513 12.8478 27.1363C12.8549 27.1212 12.8549 27.1137 12.8619 27.0987C12.869 27.0762 12.876 27.0611 12.876 27.0386C12.876 27.0236 12.883 27.0161 12.883 27.001C12.8901 26.9785 12.8901 26.956 12.8971 26.9334C12.8971 26.9259 12.9042 26.9109 12.9042 26.9034C12.9112 26.8733 12.9112 26.8358 12.9183 26.8057C12.9676 26.2723 12.7492 25.754 12.3408 25.4384C12.3056 25.4084 12.2633 25.3858 12.2281 25.3633C12.214 25.3558 12.207 25.3483 12.1929 25.3408C12.1647 25.3257 12.1366 25.3107 12.1084 25.2957C12.0943 25.2882 12.0873 25.2882 12.0732 25.2807C12.045 25.2656 12.0168 25.2581 11.9816 25.2431C11.9676 25.2356 11.9605 25.2356 11.9464 25.2281C11.9112 25.2206 11.883 25.2055 11.8478 25.198C11.8408 25.198 11.8267 25.1905 11.8197 25.1905C11.7845 25.183 11.7492 25.1755 11.714 25.168C11.707 25.168 11.7 25.168 11.6929 25.168C11.6577 25.1605 11.6154 25.1605 11.5802 25.1605C11.5732 25.1605 11.5661 25.1605 11.5661 25.1605C11.5239 25.1605 11.4816 25.1605 11.4464 25.1605H11.4394C11.4323 25.1605 11.4253 25.1605 11.4183 25.1605C11.4183 25.1529 11.4112 25.1454 11.4112 25.1379C11.4042 25.1079 11.3971 25.0778 11.3901 25.0478C11.3901 25.0327 11.3831 25.0252 11.376 25.0102C11.369 24.9802 11.3549 24.9501 11.3408 24.9201C11.3408 24.9125 11.3338 24.905 11.3338 24.8975C11.3197 24.86 11.3056 24.8299 11.2845 24.7923C11.2774 24.7848 11.2774 24.7773 11.2704 24.7623C11.2563 24.7397 11.2422 24.7097 11.2281 24.6872C11.2211 24.6796 11.214 24.6646 11.207 24.6571C11.1859 24.6271 11.1718 24.597 11.1507 24.5745L11.1436 24.567C11.1225 24.5369 11.0943 24.5069 11.0732 24.4768C11.0662 24.4693 11.0591 24.4618 11.0521 24.4543C11.0309 24.4317 11.0098 24.4092 10.9887 24.3942C10.9816 24.3867 10.9746 24.3791 10.9605 24.3716C10.9323 24.3491 10.9042 24.319 10.869 24.2965C10.5662 24.0636 10.1929 23.966 9.82672 24.0336C9.78447 24.0411 9.74222 24.0486 9.707 24.0636C9.69996 24.0636 9.68588 24.0711 9.67883 24.0711C9.64362 24.0786 9.60841 24.0937 9.5732 24.1087C9.56616 24.1087 9.56616 24.1087 9.55912 24.1162C9.52391 24.1312 9.48165 24.1463 9.44644 24.1688C9.4394 24.1763 9.42532 24.1763 9.41827 24.1838C9.3901 24.1988 9.35489 24.2214 9.32673 24.2364C9.31968 24.2439 9.31264 24.2439 9.3056 24.2439C9.27039 24.2665 9.24222 24.289 9.20701 24.319C9.19996 24.3266 9.19292 24.3341 9.18588 24.3416C9.1718 24.3491 9.16475 24.3641 9.15067 24.3716C9.12954 24.3416 9.10842 24.3115 9.08729 24.2815C9.08025 24.274 9.0732 24.2665 9.06616 24.2589C9.05208 24.2364 9.03095 24.2139 9.01687 24.1988C9.00983 24.1913 9.00278 24.1838 8.9887 24.1688C8.96757 24.1463 8.95349 24.1312 8.93236 24.1162C8.92532 24.1087 8.91828 24.1012 8.90419 24.0937C8.87602 24.0711 8.84785 24.0486 8.81969 24.0261C8.78447 24.0035 8.74926 23.9735 8.71405 23.9584C8.70701 23.9509 8.69292 23.9434 8.68588 23.9359C8.65771 23.9209 8.62955 23.9059 8.60138 23.8908C8.59433 23.8833 8.58025 23.8833 8.57321 23.8758C8.538 23.8608 8.50983 23.8458 8.47462 23.8307C8.46053 23.8232 8.43941 23.8157 8.42532 23.8157C8.40419 23.8082 8.39011 23.8007 8.36898 23.8007C8.34081 23.7932 8.3056 23.7857 8.27743 23.7781C8.25631 23.7706 8.24222 23.7706 8.2211 23.7706C8.19997 23.7706 8.17884 23.7631 8.15772 23.7631C8.14363 23.7631 8.12251 23.7631 8.10842 23.7556C8.08025 23.7556 8.04504 23.7556 8.01687 23.7556C7.99575 23.7556 7.96758 23.7556 7.94645 23.7556C7.92532 23.7556 7.91124 23.7556 7.89011 23.7631C7.86194 23.7631 7.83378 23.7706 7.81265 23.7706C7.80561 23.7706 7.79152 23.7706 7.78448 23.7706C7.77744 23.7706 7.7704 23.7706 7.76335 23.7781C7.73518 23.7857 7.70702 23.7932 7.6718 23.8007C7.65772 23.8082 7.63659 23.8082 7.62251 23.8157C7.59434 23.8232 7.56617 23.8307 7.54504 23.8458C7.52392 23.8533 7.50279 23.8608 7.48166 23.8683C7.46758 23.8758 7.4535 23.8833 7.43237 23.8908C7.01688 22.794 6.39012 21.8549 5.60139 21.1262L8.94645 16.1754C9.60841 16.5961 10.3478 16.8891 11.1366 17.0393L10.714 21.4793C10.6507 22.1479 11.1084 22.7414 11.7281 22.809C12.3126 22.8691 12.876 22.6888 13.3267 22.2982C13.7774 21.9075 14.0591 21.3441 14.1225 20.728L14.2351 19.5636C14.8056 19.541 15.3619 19.3607 15.8549 19.0527L21.0731 23.3499C21.1083 23.38 21.1295 23.4025 21.1506 23.4175L21.1576 23.425C21.1647 23.4326 21.1788 23.4476 21.1858 23.4551L21.1999 23.4701C21.2069 23.4776 21.2069 23.4851 21.214 23.4851L21.2281 23.5002C21.2351 23.5077 21.2422 23.5152 21.2492 23.5227L21.2914 23.5903C21.3126 23.6204 21.3267 23.6504 21.3337 23.673L21.3407 23.688C21.3478 23.703 21.3548 23.7105 21.3548 23.7255C21.3619 23.7406 21.3689 23.7556 21.3689 23.7706C21.376 23.7857 21.376 23.8007 21.383 23.8157L21.3971 23.8608C21.4041 23.8983 21.4112 23.9359 21.4182 23.966V23.981C21.4182 23.996 21.4182 24.011 21.4252 24.0261V24.0336V24.0711C21.4112 24.0862 21.4112 24.1237 21.4041 24.1613ZM22.045 22.8992L22.0379 22.8841C22.0168 22.8541 22.0027 22.8316 21.9886 22.8165C21.9886 22.8165 21.9886 22.809 21.9816 22.809C21.9745 22.8015 21.9675 22.794 21.9605 22.779C21.9534 22.7715 21.9534 22.7715 21.9464 22.7639C21.9323 22.7489 21.9252 22.7339 21.9112 22.7189C21.89 22.6888 21.8619 22.6663 21.8407 22.6437C21.8337 22.6362 21.8267 22.6287 21.8196 22.6212C21.8126 22.6137 21.8126 22.6137 21.8055 22.6062C21.7985 22.5987 21.7985 22.5987 21.7914 22.5911C21.7562 22.5611 21.721 22.5235 21.6717 22.486L15.8689 17.708L15.5661 17.9484C15.0661 18.3465 14.4535 18.5343 13.8267 18.4667L13.3337 18.4141L13.1295 20.5853C13.0943 20.9234 12.9394 21.2314 12.6929 21.4492C12.4464 21.6671 12.1295 21.7648 11.8126 21.7272C11.7281 21.7197 11.6718 21.637 11.6788 21.5544L12.0309 17.8657L14.552 16.5435L15.2492 16.1754L15.2915 16.1529C15.4746 16.0327 15.6506 15.935 15.8267 15.8524C16.207 15.672 16.6084 15.5368 17.0098 15.4692C17.5168 15.3791 18.0379 15.3791 18.552 15.4692C19.6929 15.672 20.8267 15.5744 21.8548 15.2063L24.1999 20.7731C23.3689 21.284 22.6295 22.0052 22.045 22.8992Z"/>
</mask>
<path d="M28.8759 20.4275L25.1858 11.6829L21.1858 13.5986L21.4534 14.2371C20.6013 14.5301 19.6647 14.5977 18.714 14.4325C18.0943 14.3273 17.4675 14.3273 16.8549 14.4325C16.3689 14.5151 15.883 14.6729 15.4253 14.8907C15.214 14.9884 15.0098 15.1086 14.8056 15.2438L13.0239 16.1754C12.7492 16.1228 12.4746 16.0852 12.1999 16.0702C11.2281 16.0251 10.3126 15.7547 9.52391 15.2814L9.90419 14.7255L6.33378 11.9909L1.08029 19.7739L4.63661 22.5085L5.01689 21.9526C5.69294 22.5987 6.22111 23.4401 6.56618 24.4092C6.59435 24.4918 6.62251 24.567 6.65773 24.6496L6.20702 25.3107C5.75632 25.9793 5.89717 26.9184 6.52392 27.3992C6.72815 27.557 6.9535 27.6396 7.18589 27.6697C7.18589 27.7448 7.19293 27.8199 7.19998 27.895C7.26336 28.2857 7.46054 28.6313 7.76335 28.8717C8.00279 29.0595 8.29152 29.1572 8.58025 29.1572C8.6225 29.1572 8.65771 29.1572 8.69997 29.1496C8.77743 29.4952 8.96757 29.7957 9.24222 30.0061C9.4887 30.1939 9.77743 30.2916 10.0591 30.2916C10.207 30.2916 10.3549 30.269 10.4957 30.2164C10.5943 30.4493 10.7493 30.6522 10.9464 30.8024C11.1859 30.9902 11.4746 31.0879 11.7633 31.0879C11.8408 31.0879 11.9183 31.0804 11.9887 31.0654C12.3619 30.9977 12.6859 30.7874 12.9042 30.4643L13.1859 30.0436L14.5309 30.87C14.7704 31.0203 15.038 31.0879 15.2915 31.0879C15.707 31.0879 16.1084 30.9076 16.3901 30.562C16.545 30.3667 16.6577 30.1413 16.714 29.8934C16.9887 29.9911 17.2774 30.0136 17.5732 29.961C18.052 29.8784 18.4675 29.6004 18.7492 29.1797C18.9323 28.9017 19.052 28.5787 19.0802 28.2481C19.0943 28.0979 19.0943 27.9476 19.0731 27.8049C19.5661 27.7748 20.0379 27.5419 20.3619 27.1212C20.6365 26.7682 20.7774 26.3399 20.7774 25.8892C20.883 25.8967 20.9816 25.8892 21.0872 25.8666C21.4745 25.799 21.8126 25.5736 22.0379 25.2356C22.2281 24.9501 22.3478 24.6195 22.383 24.2665C22.383 24.2514 22.383 24.2289 22.39 24.2139C22.4886 24.0786 22.5802 23.9359 22.6647 23.7932C23.1788 22.9217 23.8478 22.223 24.6154 21.7347L24.8759 22.3432L28.8759 20.4275ZM27.5731 19.9016L25.3759 20.9534L22.4957 14.1245L24.6928 13.0727L27.5731 19.9016ZM6.55913 13.4633L8.51687 14.9659L4.65774 20.6754L4.41126 21.0436L2.45352 19.541L6.55913 13.4633ZM7.00984 25.9267L7.62251 25.0177L7.65772 24.9651C7.6718 24.9426 7.69293 24.9201 7.70702 24.905C7.72814 24.89 7.74223 24.8675 7.76335 24.86C7.76335 24.86 7.77039 24.86 7.77039 24.8524C7.79152 24.8374 7.81265 24.8299 7.83378 24.8149H7.84082C7.86194 24.8074 7.89011 24.7999 7.91828 24.7923H7.92532C7.93941 24.7923 7.96054 24.7848 7.97462 24.7848C7.98166 24.7848 7.9887 24.7848 7.9887 24.7848C8.00279 24.7848 8.02391 24.7848 8.038 24.7923C8.04504 24.7923 8.05208 24.7923 8.05913 24.7923C8.07321 24.7923 8.0873 24.7999 8.10138 24.7999C8.10842 24.7999 8.10842 24.7999 8.11546 24.8074C8.12955 24.8149 8.15067 24.8224 8.16476 24.8299C8.1718 24.8299 8.1718 24.8374 8.17884 24.8374C8.19293 24.8449 8.21405 24.86 8.22814 24.8675C8.33377 24.9501 8.39715 25.0778 8.39715 25.213C8.39715 25.2356 8.39715 25.2506 8.39715 25.2731C8.39715 25.2957 8.39011 25.3182 8.39011 25.3332C8.37603 25.3858 8.3549 25.4384 8.32673 25.4835L7.67885 26.4451C7.54504 26.6404 7.28448 26.6855 7.10138 26.5428C6.91829 26.4 6.87603 26.1221 7.00984 25.9267ZM8.34786 28.0152C8.25631 27.9476 8.19997 27.8425 8.17884 27.7298C8.15772 27.6096 8.18589 27.4969 8.24927 27.3992L9.69996 25.2506C9.76334 25.1529 9.86193 25.0928 9.96757 25.0703C9.98869 25.0703 10.0098 25.0628 10.0309 25.0628H10.038C10.0591 25.0628 10.0732 25.0628 10.0943 25.0703H10.1014C10.1155 25.0703 10.1366 25.0778 10.1507 25.0853H10.1577C10.1788 25.0928 10.1929 25.1004 10.207 25.1079C10.214 25.1079 10.214 25.1154 10.2211 25.1154C10.2352 25.1229 10.2563 25.1379 10.2704 25.1454C10.3619 25.213 10.4183 25.3182 10.4394 25.4309C10.4464 25.4685 10.4464 25.506 10.4394 25.5511C10.4394 25.5812 10.4324 25.6187 10.4183 25.6488C10.4183 25.6563 10.4183 25.6638 10.4112 25.6638C10.4042 25.6713 10.4042 25.6863 10.3971 25.6938C10.3971 25.7014 10.3901 25.7089 10.3901 25.7164C10.3831 25.7239 10.376 25.7389 10.376 25.7464C10.369 25.754 10.369 25.7615 10.3619 25.769L8.91123 27.9176C8.84785 28.0152 8.74926 28.0753 8.64363 28.0979C8.54504 28.1129 8.43236 28.0904 8.34786 28.0152ZM9.81968 29.1496C9.72813 29.082 9.67179 28.9769 9.65067 28.8642C9.62954 28.744 9.65771 28.6313 9.72109 28.5336L11.1718 26.385C11.1859 26.3625 11.2 26.3474 11.2211 26.3249C11.2281 26.3174 11.2281 26.3174 11.2352 26.3099C11.2493 26.2949 11.2704 26.2798 11.2915 26.2648C11.2985 26.2648 11.2985 26.2573 11.3056 26.2573C11.3197 26.2498 11.3408 26.2348 11.3619 26.2272C11.369 26.2272 11.369 26.2272 11.376 26.2197C11.3971 26.2122 11.4183 26.2047 11.4464 26.1972C11.4535 26.1972 11.4605 26.1972 11.4676 26.1897C11.4746 26.1897 11.4746 26.1897 11.4816 26.1897C11.4957 26.1897 11.5028 26.1897 11.5169 26.1897H11.5239C11.545 26.1897 11.5661 26.1897 11.5802 26.1972C11.5802 26.1972 11.5802 26.1972 11.5873 26.1972C11.6084 26.1972 11.6225 26.2047 11.6436 26.2122H11.6507C11.6718 26.2197 11.6859 26.2272 11.707 26.2348C11.707 26.2348 11.714 26.2348 11.714 26.2423C11.7281 26.2498 11.7492 26.2648 11.7633 26.2723C11.7915 26.2949 11.8197 26.3249 11.8408 26.355C11.8971 26.4301 11.9323 26.5202 11.9323 26.6179C11.9323 26.6404 11.9323 26.6555 11.9323 26.678C11.9253 26.7156 11.9183 26.7531 11.9112 26.7907C11.9112 26.7982 11.9042 26.7982 11.9042 26.8057C11.8901 26.8358 11.876 26.8658 11.8619 26.8959L10.4112 29.0445C10.2633 29.2473 10.0028 29.2924 9.81968 29.1496ZM11.8338 30.0211C11.7211 30.0436 11.6154 30.0136 11.5239 29.946C11.4323 29.8784 11.376 29.7732 11.3549 29.6605C11.3338 29.5403 11.3619 29.4276 11.4253 29.3299L12.0732 28.3683C12.0802 28.3533 12.0943 28.3458 12.1014 28.3383C12.1084 28.3308 12.1225 28.3157 12.1295 28.3082C12.1366 28.3007 12.1507 28.2932 12.1647 28.2782C12.1718 28.2707 12.1859 28.2632 12.1929 28.2556C12.207 28.2481 12.2211 28.2406 12.2352 28.2331C12.2422 28.2256 12.2563 28.2256 12.2633 28.2181C12.2915 28.2106 12.3126 28.2031 12.3408 28.1955C12.3619 28.1955 12.383 28.188 12.4042 28.188C12.4112 28.188 12.4112 28.188 12.4183 28.188C12.4394 28.188 12.4535 28.188 12.4746 28.1955C12.4816 28.1955 12.4816 28.1955 12.4887 28.1955C12.5028 28.1955 12.5239 28.2031 12.538 28.2106H12.545C12.5591 28.2181 12.5802 28.2256 12.5943 28.2331C12.6014 28.2331 12.6014 28.2406 12.6084 28.2406C12.6225 28.2481 12.6436 28.2632 12.6577 28.2707C12.7774 28.3608 12.8408 28.5186 12.8267 28.6763C12.8197 28.7515 12.7915 28.8266 12.7492 28.8942L12.1014 29.8558C12.038 29.9385 11.9464 30.0061 11.8338 30.0211ZM21.4041 24.1613C21.39 24.3266 21.3337 24.4843 21.2422 24.6195C21.1647 24.7322 21.0591 24.7999 20.9323 24.8224C20.8055 24.8449 20.6788 24.8149 20.5802 24.7322L20.0309 24.3115L18.9534 23.4851C18.7351 23.3124 18.4253 23.3725 18.2633 23.6053C18.1013 23.8382 18.1577 24.1688 18.376 24.3416L19.4534 25.168C19.6365 25.3107 19.7562 25.5286 19.7915 25.769C19.8196 26.0094 19.7562 26.2498 19.6084 26.4451C19.3408 26.7982 18.8196 26.8508 18.4534 26.5728L18.3478 26.4902L18.3408 26.4827L17.0098 25.461C16.7915 25.2882 16.4816 25.3483 16.3196 25.5812C16.1577 25.8141 16.214 26.1446 16.4323 26.3174L17.7633 27.3391C17.9957 27.5194 18.1224 27.8274 18.0943 28.143C18.0802 28.3007 18.0309 28.4435 17.9464 28.5637C17.8196 28.7515 17.6295 28.8792 17.4112 28.9168C17.1929 28.9543 16.9746 28.9017 16.7985 28.759L16.1506 28.2632C16.1506 28.2632 16.1436 28.2632 16.1436 28.2556L14.883 27.2865C14.6647 27.1137 14.3549 27.1738 14.1929 27.4067C14.0309 27.6396 14.0873 27.9702 14.3056 28.143L15.5661 29.1121C15.6788 29.1947 15.7422 29.3224 15.7563 29.4652C15.7704 29.6079 15.7281 29.7507 15.6436 29.8633C15.4957 30.0436 15.2351 30.0812 15.0168 29.946L13.7281 29.1572C13.7352 29.1346 13.7422 29.1196 13.7492 29.0971C13.7492 29.0895 13.7563 29.0745 13.7563 29.067C13.7633 29.0445 13.7704 29.0219 13.7704 28.9994C13.7704 28.9919 13.7774 28.9844 13.7774 28.9769C13.7844 28.9543 13.7844 28.9243 13.7915 28.9017C13.7915 28.8942 13.7915 28.8867 13.7985 28.8792C13.8056 28.8491 13.8056 28.8116 13.8126 28.7815C13.8619 28.2481 13.6436 27.7298 13.2352 27.4142C13.1999 27.3842 13.1647 27.3616 13.1295 27.3391C13.1154 27.3316 13.1084 27.3241 13.0943 27.3166C13.0661 27.3015 13.045 27.2865 13.0168 27.2715C13.0028 27.264 12.9887 27.2565 12.9746 27.249C12.9464 27.2339 12.9253 27.2264 12.8971 27.2189C12.883 27.2114 12.869 27.2039 12.8549 27.2039C12.8478 27.2039 12.8337 27.1964 12.8267 27.1964V27.1889C12.8337 27.1738 12.8408 27.1513 12.8478 27.1363C12.8549 27.1212 12.8549 27.1137 12.8619 27.0987C12.869 27.0762 12.876 27.0611 12.876 27.0386C12.876 27.0236 12.883 27.0161 12.883 27.001C12.8901 26.9785 12.8901 26.956 12.8971 26.9334C12.8971 26.9259 12.9042 26.9109 12.9042 26.9034C12.9112 26.8733 12.9112 26.8358 12.9183 26.8057C12.9676 26.2723 12.7492 25.754 12.3408 25.4384C12.3056 25.4084 12.2633 25.3858 12.2281 25.3633C12.214 25.3558 12.207 25.3483 12.1929 25.3408C12.1647 25.3257 12.1366 25.3107 12.1084 25.2957C12.0943 25.2882 12.0873 25.2882 12.0732 25.2807C12.045 25.2656 12.0168 25.2581 11.9816 25.2431C11.9676 25.2356 11.9605 25.2356 11.9464 25.2281C11.9112 25.2206 11.883 25.2055 11.8478 25.198C11.8408 25.198 11.8267 25.1905 11.8197 25.1905C11.7845 25.183 11.7492 25.1755 11.714 25.168C11.707 25.168 11.7 25.168 11.6929 25.168C11.6577 25.1605 11.6154 25.1605 11.5802 25.1605C11.5732 25.1605 11.5661 25.1605 11.5661 25.1605C11.5239 25.1605 11.4816 25.1605 11.4464 25.1605H11.4394C11.4323 25.1605 11.4253 25.1605 11.4183 25.1605C11.4183 25.1529 11.4112 25.1454 11.4112 25.1379C11.4042 25.1079 11.3971 25.0778 11.3901 25.0478C11.3901 25.0327 11.3831 25.0252 11.376 25.0102C11.369 24.9802 11.3549 24.9501 11.3408 24.9201C11.3408 24.9125 11.3338 24.905 11.3338 24.8975C11.3197 24.86 11.3056 24.8299 11.2845 24.7923C11.2774 24.7848 11.2774 24.7773 11.2704 24.7623C11.2563 24.7397 11.2422 24.7097 11.2281 24.6872C11.2211 24.6796 11.214 24.6646 11.207 24.6571C11.1859 24.6271 11.1718 24.597 11.1507 24.5745L11.1436 24.567C11.1225 24.5369 11.0943 24.5069 11.0732 24.4768C11.0662 24.4693 11.0591 24.4618 11.0521 24.4543C11.0309 24.4317 11.0098 24.4092 10.9887 24.3942C10.9816 24.3867 10.9746 24.3791 10.9605 24.3716C10.9323 24.3491 10.9042 24.319 10.869 24.2965C10.5662 24.0636 10.1929 23.966 9.82672 24.0336C9.78447 24.0411 9.74222 24.0486 9.707 24.0636C9.69996 24.0636 9.68588 24.0711 9.67883 24.0711C9.64362 24.0786 9.60841 24.0937 9.5732 24.1087C9.56616 24.1087 9.56616 24.1087 9.55912 24.1162C9.52391 24.1312 9.48165 24.1463 9.44644 24.1688C9.4394 24.1763 9.42532 24.1763 9.41827 24.1838C9.3901 24.1988 9.35489 24.2214 9.32673 24.2364C9.31968 24.2439 9.31264 24.2439 9.3056 24.2439C9.27039 24.2665 9.24222 24.289 9.20701 24.319C9.19996 24.3266 9.19292 24.3341 9.18588 24.3416C9.1718 24.3491 9.16475 24.3641 9.15067 24.3716C9.12954 24.3416 9.10842 24.3115 9.08729 24.2815C9.08025 24.274 9.0732 24.2665 9.06616 24.2589C9.05208 24.2364 9.03095 24.2139 9.01687 24.1988C9.00983 24.1913 9.00278 24.1838 8.9887 24.1688C8.96757 24.1463 8.95349 24.1312 8.93236 24.1162C8.92532 24.1087 8.91828 24.1012 8.90419 24.0937C8.87602 24.0711 8.84785 24.0486 8.81969 24.0261C8.78447 24.0035 8.74926 23.9735 8.71405 23.9584C8.70701 23.9509 8.69292 23.9434 8.68588 23.9359C8.65771 23.9209 8.62955 23.9059 8.60138 23.8908C8.59433 23.8833 8.58025 23.8833 8.57321 23.8758C8.538 23.8608 8.50983 23.8458 8.47462 23.8307C8.46053 23.8232 8.43941 23.8157 8.42532 23.8157C8.40419 23.8082 8.39011 23.8007 8.36898 23.8007C8.34081 23.7932 8.3056 23.7857 8.27743 23.7781C8.25631 23.7706 8.24222 23.7706 8.2211 23.7706C8.19997 23.7706 8.17884 23.7631 8.15772 23.7631C8.14363 23.7631 8.12251 23.7631 8.10842 23.7556C8.08025 23.7556 8.04504 23.7556 8.01687 23.7556C7.99575 23.7556 7.96758 23.7556 7.94645 23.7556C7.92532 23.7556 7.91124 23.7556 7.89011 23.7631C7.86194 23.7631 7.83378 23.7706 7.81265 23.7706C7.80561 23.7706 7.79152 23.7706 7.78448 23.7706C7.77744 23.7706 7.7704 23.7706 7.76335 23.7781C7.73518 23.7857 7.70702 23.7932 7.6718 23.8007C7.65772 23.8082 7.63659 23.8082 7.62251 23.8157C7.59434 23.8232 7.56617 23.8307 7.54504 23.8458C7.52392 23.8533 7.50279 23.8608 7.48166 23.8683C7.46758 23.8758 7.4535 23.8833 7.43237 23.8908C7.01688 22.794 6.39012 21.8549 5.60139 21.1262L8.94645 16.1754C9.60841 16.5961 10.3478 16.8891 11.1366 17.0393L10.714 21.4793C10.6507 22.1479 11.1084 22.7414 11.7281 22.809C12.3126 22.8691 12.876 22.6888 13.3267 22.2982C13.7774 21.9075 14.0591 21.3441 14.1225 20.728L14.2351 19.5636C14.8056 19.541 15.3619 19.3607 15.8549 19.0527L21.0731 23.3499C21.1083 23.38 21.1295 23.4025 21.1506 23.4175L21.1576 23.425C21.1647 23.4326 21.1788 23.4476 21.1858 23.4551L21.1999 23.4701C21.2069 23.4776 21.2069 23.4851 21.214 23.4851L21.2281 23.5002C21.2351 23.5077 21.2422 23.5152 21.2492 23.5227L21.2914 23.5903C21.3126 23.6204 21.3267 23.6504 21.3337 23.673L21.3407 23.688C21.3478 23.703 21.3548 23.7105 21.3548 23.7255C21.3619 23.7406 21.3689 23.7556 21.3689 23.7706C21.376 23.7857 21.376 23.8007 21.383 23.8157L21.3971 23.8608C21.4041 23.8983 21.4112 23.9359 21.4182 23.966V23.981C21.4182 23.996 21.4182 24.011 21.4252 24.0261V24.0336V24.0711C21.4112 24.0862 21.4112 24.1237 21.4041 24.1613ZM22.045 22.8992L22.0379 22.8841C22.0168 22.8541 22.0027 22.8316 21.9886 22.8165C21.9886 22.8165 21.9886 22.809 21.9816 22.809C21.9745 22.8015 21.9675 22.794 21.9605 22.779C21.9534 22.7715 21.9534 22.7715 21.9464 22.7639C21.9323 22.7489 21.9252 22.7339 21.9112 22.7189C21.89 22.6888 21.8619 22.6663 21.8407 22.6437C21.8337 22.6362 21.8267 22.6287 21.8196 22.6212C21.8126 22.6137 21.8126 22.6137 21.8055 22.6062C21.7985 22.5987 21.7985 22.5987 21.7914 22.5911C21.7562 22.5611 21.721 22.5235 21.6717 22.486L15.8689 17.708L15.5661 17.9484C15.0661 18.3465 14.4535 18.5343 13.8267 18.4667L13.3337 18.4141L13.1295 20.5853C13.0943 20.9234 12.9394 21.2314 12.6929 21.4492C12.4464 21.6671 12.1295 21.7648 11.8126 21.7272C11.7281 21.7197 11.6718 21.637 11.6788 21.5544L12.0309 17.8657L14.552 16.5435L15.2492 16.1754L15.2915 16.1529C15.4746 16.0327 15.6506 15.935 15.8267 15.8524C16.207 15.672 16.6084 15.5368 17.0098 15.4692C17.5168 15.3791 18.0379 15.3791 18.552 15.4692C19.6929 15.672 20.8267 15.5744 21.8548 15.2063L24.1999 20.7731C23.3689 21.284 22.6295 22.0052 22.045 22.8992Z" fill="white"/>
<path d="M28.8759 20.4275L25.1858 11.6829L21.1858 13.5986L21.4534 14.2371C20.6013 14.5301 19.6647 14.5977 18.714 14.4325C18.0943 14.3273 17.4675 14.3273 16.8549 14.4325C16.3689 14.5151 15.883 14.6729 15.4253 14.8907C15.214 14.9884 15.0098 15.1086 14.8056 15.2438L13.0239 16.1754C12.7492 16.1228 12.4746 16.0852 12.1999 16.0702C11.2281 16.0251 10.3126 15.7547 9.52391 15.2814L9.90419 14.7255L6.33378 11.9909L1.08029 19.7739L4.63661 22.5085L5.01689 21.9526C5.69294 22.5987 6.22111 23.4401 6.56618 24.4092C6.59435 24.4918 6.62251 24.567 6.65773 24.6496L6.20702 25.3107C5.75632 25.9793 5.89717 26.9184 6.52392 27.3992C6.72815 27.557 6.9535 27.6396 7.18589 27.6697C7.18589 27.7448 7.19293 27.8199 7.19998 27.895C7.26336 28.2857 7.46054 28.6313 7.76335 28.8717C8.00279 29.0595 8.29152 29.1572 8.58025 29.1572C8.6225 29.1572 8.65771 29.1572 8.69997 29.1496C8.77743 29.4952 8.96757 29.7957 9.24222 30.0061C9.4887 30.1939 9.77743 30.2916 10.0591 30.2916C10.207 30.2916 10.3549 30.269 10.4957 30.2164C10.5943 30.4493 10.7493 30.6522 10.9464 30.8024C11.1859 30.9902 11.4746 31.0879 11.7633 31.0879C11.8408 31.0879 11.9183 31.0804 11.9887 31.0654C12.3619 30.9977 12.6859 30.7874 12.9042 30.4643L13.1859 30.0436L14.5309 30.87C14.7704 31.0203 15.038 31.0879 15.2915 31.0879C15.707 31.0879 16.1084 30.9076 16.3901 30.562C16.545 30.3667 16.6577 30.1413 16.714 29.8934C16.9887 29.9911 17.2774 30.0136 17.5732 29.961C18.052 29.8784 18.4675 29.6004 18.7492 29.1797C18.9323 28.9017 19.052 28.5787 19.0802 28.2481C19.0943 28.0979 19.0943 27.9476 19.0731 27.8049C19.5661 27.7748 20.0379 27.5419 20.3619 27.1212C20.6365 26.7682 20.7774 26.3399 20.7774 25.8892C20.883 25.8967 20.9816 25.8892 21.0872 25.8666C21.4745 25.799 21.8126 25.5736 22.0379 25.2356C22.2281 24.9501 22.3478 24.6195 22.383 24.2665C22.383 24.2514 22.383 24.2289 22.39 24.2139C22.4886 24.0786 22.5802 23.9359 22.6647 23.7932C23.1788 22.9217 23.8478 22.223 24.6154 21.7347L24.8759 22.3432L28.8759 20.4275ZM27.5731 19.9016L25.3759 20.9534L22.4957 14.1245L24.6928 13.0727L27.5731 19.9016ZM6.55913 13.4633L8.51687 14.9659L4.65774 20.6754L4.41126 21.0436L2.45352 19.541L6.55913 13.4633ZM7.00984 25.9267L7.62251 25.0177L7.65772 24.9651C7.6718 24.9426 7.69293 24.9201 7.70702 24.905C7.72814 24.89 7.74223 24.8675 7.76335 24.86C7.76335 24.86 7.77039 24.86 7.77039 24.8524C7.79152 24.8374 7.81265 24.8299 7.83378 24.8149H7.84082C7.86194 24.8074 7.89011 24.7999 7.91828 24.7923H7.92532C7.93941 24.7923 7.96054 24.7848 7.97462 24.7848C7.98166 24.7848 7.9887 24.7848 7.9887 24.7848C8.00279 24.7848 8.02391 24.7848 8.038 24.7923C8.04504 24.7923 8.05208 24.7923 8.05913 24.7923C8.07321 24.7923 8.0873 24.7999 8.10138 24.7999C8.10842 24.7999 8.10842 24.7999 8.11546 24.8074C8.12955 24.8149 8.15067 24.8224 8.16476 24.8299C8.1718 24.8299 8.1718 24.8374 8.17884 24.8374C8.19293 24.8449 8.21405 24.86 8.22814 24.8675C8.33377 24.9501 8.39715 25.0778 8.39715 25.213C8.39715 25.2356 8.39715 25.2506 8.39715 25.2731C8.39715 25.2957 8.39011 25.3182 8.39011 25.3332C8.37603 25.3858 8.3549 25.4384 8.32673 25.4835L7.67885 26.4451C7.54504 26.6404 7.28448 26.6855 7.10138 26.5428C6.91829 26.4 6.87603 26.1221 7.00984 25.9267ZM8.34786 28.0152C8.25631 27.9476 8.19997 27.8425 8.17884 27.7298C8.15772 27.6096 8.18589 27.4969 8.24927 27.3992L9.69996 25.2506C9.76334 25.1529 9.86193 25.0928 9.96757 25.0703C9.98869 25.0703 10.0098 25.0628 10.0309 25.0628H10.038C10.0591 25.0628 10.0732 25.0628 10.0943 25.0703H10.1014C10.1155 25.0703 10.1366 25.0778 10.1507 25.0853H10.1577C10.1788 25.0928 10.1929 25.1004 10.207 25.1079C10.214 25.1079 10.214 25.1154 10.2211 25.1154C10.2352 25.1229 10.2563 25.1379 10.2704 25.1454C10.3619 25.213 10.4183 25.3182 10.4394 25.4309C10.4464 25.4685 10.4464 25.506 10.4394 25.5511C10.4394 25.5812 10.4324 25.6187 10.4183 25.6488C10.4183 25.6563 10.4183 25.6638 10.4112 25.6638C10.4042 25.6713 10.4042 25.6863 10.3971 25.6938C10.3971 25.7014 10.3901 25.7089 10.3901 25.7164C10.3831 25.7239 10.376 25.7389 10.376 25.7464C10.369 25.754 10.369 25.7615 10.3619 25.769L8.91123 27.9176C8.84785 28.0152 8.74926 28.0753 8.64363 28.0979C8.54504 28.1129 8.43236 28.0904 8.34786 28.0152ZM9.81968 29.1496C9.72813 29.082 9.67179 28.9769 9.65067 28.8642C9.62954 28.744 9.65771 28.6313 9.72109 28.5336L11.1718 26.385C11.1859 26.3625 11.2 26.3474 11.2211 26.3249C11.2281 26.3174 11.2281 26.3174 11.2352 26.3099C11.2493 26.2949 11.2704 26.2798 11.2915 26.2648C11.2985 26.2648 11.2985 26.2573 11.3056 26.2573C11.3197 26.2498 11.3408 26.2348 11.3619 26.2272C11.369 26.2272 11.369 26.2272 11.376 26.2197C11.3971 26.2122 11.4183 26.2047 11.4464 26.1972C11.4535 26.1972 11.4605 26.1972 11.4676 26.1897C11.4746 26.1897 11.4746 26.1897 11.4816 26.1897C11.4957 26.1897 11.5028 26.1897 11.5169 26.1897H11.5239C11.545 26.1897 11.5661 26.1897 11.5802 26.1972C11.5802 26.1972 11.5802 26.1972 11.5873 26.1972C11.6084 26.1972 11.6225 26.2047 11.6436 26.2122H11.6507C11.6718 26.2197 11.6859 26.2272 11.707 26.2348C11.707 26.2348 11.714 26.2348 11.714 26.2423C11.7281 26.2498 11.7492 26.2648 11.7633 26.2723C11.7915 26.2949 11.8197 26.3249 11.8408 26.355C11.8971 26.4301 11.9323 26.5202 11.9323 26.6179C11.9323 26.6404 11.9323 26.6555 11.9323 26.678C11.9253 26.7156 11.9183 26.7531 11.9112 26.7907C11.9112 26.7982 11.9042 26.7982 11.9042 26.8057C11.8901 26.8358 11.876 26.8658 11.8619 26.8959L10.4112 29.0445C10.2633 29.2473 10.0028 29.2924 9.81968 29.1496ZM11.8338 30.0211C11.7211 30.0436 11.6154 30.0136 11.5239 29.946C11.4323 29.8784 11.376 29.7732 11.3549 29.6605C11.3338 29.5403 11.3619 29.4276 11.4253 29.3299L12.0732 28.3683C12.0802 28.3533 12.0943 28.3458 12.1014 28.3383C12.1084 28.3308 12.1225 28.3157 12.1295 28.3082C12.1366 28.3007 12.1507 28.2932 12.1647 28.2782C12.1718 28.2707 12.1859 28.2632 12.1929 28.2556C12.207 28.2481 12.2211 28.2406 12.2352 28.2331C12.2422 28.2256 12.2563 28.2256 12.2633 28.2181C12.2915 28.2106 12.3126 28.2031 12.3408 28.1955C12.3619 28.1955 12.383 28.188 12.4042 28.188C12.4112 28.188 12.4112 28.188 12.4183 28.188C12.4394 28.188 12.4535 28.188 12.4746 28.1955C12.4816 28.1955 12.4816 28.1955 12.4887 28.1955C12.5028 28.1955 12.5239 28.2031 12.538 28.2106H12.545C12.5591 28.2181 12.5802 28.2256 12.5943 28.2331C12.6014 28.2331 12.6014 28.2406 12.6084 28.2406C12.6225 28.2481 12.6436 28.2632 12.6577 28.2707C12.7774 28.3608 12.8408 28.5186 12.8267 28.6763C12.8197 28.7515 12.7915 28.8266 12.7492 28.8942L12.1014 29.8558C12.038 29.9385 11.9464 30.0061 11.8338 30.0211ZM21.4041 24.1613C21.39 24.3266 21.3337 24.4843 21.2422 24.6195C21.1647 24.7322 21.0591 24.7999 20.9323 24.8224C20.8055 24.8449 20.6788 24.8149 20.5802 24.7322L20.0309 24.3115L18.9534 23.4851C18.7351 23.3124 18.4253 23.3725 18.2633 23.6053C18.1013 23.8382 18.1577 24.1688 18.376 24.3416L19.4534 25.168C19.6365 25.3107 19.7562 25.5286 19.7915 25.769C19.8196 26.0094 19.7562 26.2498 19.6084 26.4451C19.3408 26.7982 18.8196 26.8508 18.4534 26.5728L18.3478 26.4902L18.3408 26.4827L17.0098 25.461C16.7915 25.2882 16.4816 25.3483 16.3196 25.5812C16.1577 25.8141 16.214 26.1446 16.4323 26.3174L17.7633 27.3391C17.9957 27.5194 18.1224 27.8274 18.0943 28.143C18.0802 28.3007 18.0309 28.4435 17.9464 28.5637C17.8196 28.7515 17.6295 28.8792 17.4112 28.9168C17.1929 28.9543 16.9746 28.9017 16.7985 28.759L16.1506 28.2632C16.1506 28.2632 16.1436 28.2632 16.1436 28.2556L14.883 27.2865C14.6647 27.1137 14.3549 27.1738 14.1929 27.4067C14.0309 27.6396 14.0873 27.9702 14.3056 28.143L15.5661 29.1121C15.6788 29.1947 15.7422 29.3224 15.7563 29.4652C15.7704 29.6079 15.7281 29.7507 15.6436 29.8633C15.4957 30.0436 15.2351 30.0812 15.0168 29.946L13.7281 29.1572C13.7352 29.1346 13.7422 29.1196 13.7492 29.0971C13.7492 29.0895 13.7563 29.0745 13.7563 29.067C13.7633 29.0445 13.7704 29.0219 13.7704 28.9994C13.7704 28.9919 13.7774 28.9844 13.7774 28.9769C13.7844 28.9543 13.7844 28.9243 13.7915 28.9017C13.7915 28.8942 13.7915 28.8867 13.7985 28.8792C13.8056 28.8491 13.8056 28.8116 13.8126 28.7815C13.8619 28.2481 13.6436 27.7298 13.2352 27.4142C13.1999 27.3842 13.1647 27.3616 13.1295 27.3391C13.1154 27.3316 13.1084 27.3241 13.0943 27.3166C13.0661 27.3015 13.045 27.2865 13.0168 27.2715C13.0028 27.264 12.9887 27.2565 12.9746 27.249C12.9464 27.2339 12.9253 27.2264 12.8971 27.2189C12.883 27.2114 12.869 27.2039 12.8549 27.2039C12.8478 27.2039 12.8337 27.1964 12.8267 27.1964V27.1889C12.8337 27.1738 12.8408 27.1513 12.8478 27.1363C12.8549 27.1212 12.8549 27.1137 12.8619 27.0987C12.869 27.0762 12.876 27.0611 12.876 27.0386C12.876 27.0236 12.883 27.0161 12.883 27.001C12.8901 26.9785 12.8901 26.956 12.8971 26.9334C12.8971 26.9259 12.9042 26.9109 12.9042 26.9034C12.9112 26.8733 12.9112 26.8358 12.9183 26.8057C12.9676 26.2723 12.7492 25.754 12.3408 25.4384C12.3056 25.4084 12.2633 25.3858 12.2281 25.3633C12.214 25.3558 12.207 25.3483 12.1929 25.3408C12.1647 25.3257 12.1366 25.3107 12.1084 25.2957C12.0943 25.2882 12.0873 25.2882 12.0732 25.2807C12.045 25.2656 12.0168 25.2581 11.9816 25.2431C11.9676 25.2356 11.9605 25.2356 11.9464 25.2281C11.9112 25.2206 11.883 25.2055 11.8478 25.198C11.8408 25.198 11.8267 25.1905 11.8197 25.1905C11.7845 25.183 11.7492 25.1755 11.714 25.168C11.707 25.168 11.7 25.168 11.6929 25.168C11.6577 25.1605 11.6154 25.1605 11.5802 25.1605C11.5732 25.1605 11.5661 25.1605 11.5661 25.1605C11.5239 25.1605 11.4816 25.1605 11.4464 25.1605H11.4394C11.4323 25.1605 11.4253 25.1605 11.4183 25.1605C11.4183 25.1529 11.4112 25.1454 11.4112 25.1379C11.4042 25.1079 11.3971 25.0778 11.3901 25.0478C11.3901 25.0327 11.3831 25.0252 11.376 25.0102C11.369 24.9802 11.3549 24.9501 11.3408 24.9201C11.3408 24.9125 11.3338 24.905 11.3338 24.8975C11.3197 24.86 11.3056 24.8299 11.2845 24.7923C11.2774 24.7848 11.2774 24.7773 11.2704 24.7623C11.2563 24.7397 11.2422 24.7097 11.2281 24.6872C11.2211 24.6796 11.214 24.6646 11.207 24.6571C11.1859 24.6271 11.1718 24.597 11.1507 24.5745L11.1436 24.567C11.1225 24.5369 11.0943 24.5069 11.0732 24.4768C11.0662 24.4693 11.0591 24.4618 11.0521 24.4543C11.0309 24.4317 11.0098 24.4092 10.9887 24.3942C10.9816 24.3867 10.9746 24.3791 10.9605 24.3716C10.9323 24.3491 10.9042 24.319 10.869 24.2965C10.5662 24.0636 10.1929 23.966 9.82672 24.0336C9.78447 24.0411 9.74222 24.0486 9.707 24.0636C9.69996 24.0636 9.68588 24.0711 9.67883 24.0711C9.64362 24.0786 9.60841 24.0937 9.5732 24.1087C9.56616 24.1087 9.56616 24.1087 9.55912 24.1162C9.52391 24.1312 9.48165 24.1463 9.44644 24.1688C9.4394 24.1763 9.42532 24.1763 9.41827 24.1838C9.3901 24.1988 9.35489 24.2214 9.32673 24.2364C9.31968 24.2439 9.31264 24.2439 9.3056 24.2439C9.27039 24.2665 9.24222 24.289 9.20701 24.319C9.19996 24.3266 9.19292 24.3341 9.18588 24.3416C9.1718 24.3491 9.16475 24.3641 9.15067 24.3716C9.12954 24.3416 9.10842 24.3115 9.08729 24.2815C9.08025 24.274 9.0732 24.2665 9.06616 24.2589C9.05208 24.2364 9.03095 24.2139 9.01687 24.1988C9.00983 24.1913 9.00278 24.1838 8.9887 24.1688C8.96757 24.1463 8.95349 24.1312 8.93236 24.1162C8.92532 24.1087 8.91828 24.1012 8.90419 24.0937C8.87602 24.0711 8.84785 24.0486 8.81969 24.0261C8.78447 24.0035 8.74926 23.9735 8.71405 23.9584C8.70701 23.9509 8.69292 23.9434 8.68588 23.9359C8.65771 23.9209 8.62955 23.9059 8.60138 23.8908C8.59433 23.8833 8.58025 23.8833 8.57321 23.8758C8.538 23.8608 8.50983 23.8458 8.47462 23.8307C8.46053 23.8232 8.43941 23.8157 8.42532 23.8157C8.40419 23.8082 8.39011 23.8007 8.36898 23.8007C8.34081 23.7932 8.3056 23.7857 8.27743 23.7781C8.25631 23.7706 8.24222 23.7706 8.2211 23.7706C8.19997 23.7706 8.17884 23.7631 8.15772 23.7631C8.14363 23.7631 8.12251 23.7631 8.10842 23.7556C8.08025 23.7556 8.04504 23.7556 8.01687 23.7556C7.99575 23.7556 7.96758 23.7556 7.94645 23.7556C7.92532 23.7556 7.91124 23.7556 7.89011 23.7631C7.86194 23.7631 7.83378 23.7706 7.81265 23.7706C7.80561 23.7706 7.79152 23.7706 7.78448 23.7706C7.77744 23.7706 7.7704 23.7706 7.76335 23.7781C7.73518 23.7857 7.70702 23.7932 7.6718 23.8007C7.65772 23.8082 7.63659 23.8082 7.62251 23.8157C7.59434 23.8232 7.56617 23.8307 7.54504 23.8458C7.52392 23.8533 7.50279 23.8608 7.48166 23.8683C7.46758 23.8758 7.4535 23.8833 7.43237 23.8908C7.01688 22.794 6.39012 21.8549 5.60139 21.1262L8.94645 16.1754C9.60841 16.5961 10.3478 16.8891 11.1366 17.0393L10.714 21.4793C10.6507 22.1479 11.1084 22.7414 11.7281 22.809C12.3126 22.8691 12.876 22.6888 13.3267 22.2982C13.7774 21.9075 14.0591 21.3441 14.1225 20.728L14.2351 19.5636C14.8056 19.541 15.3619 19.3607 15.8549 19.0527L21.0731 23.3499C21.1083 23.38 21.1295 23.4025 21.1506 23.4175L21.1576 23.425C21.1647 23.4326 21.1788 23.4476 21.1858 23.4551L21.1999 23.4701C21.2069 23.4776 21.2069 23.4851 21.214 23.4851L21.2281 23.5002C21.2351 23.5077 21.2422 23.5152 21.2492 23.5227L21.2914 23.5903C21.3126 23.6204 21.3267 23.6504 21.3337 23.673L21.3407 23.688C21.3478 23.703 21.3548 23.7105 21.3548 23.7255C21.3619 23.7406 21.3689 23.7556 21.3689 23.7706C21.376 23.7857 21.376 23.8007 21.383 23.8157L21.3971 23.8608C21.4041 23.8983 21.4112 23.9359 21.4182 23.966V23.981C21.4182 23.996 21.4182 24.011 21.4252 24.0261V24.0336V24.0711C21.4112 24.0862 21.4112 24.1237 21.4041 24.1613ZM22.045 22.8992L22.0379 22.8841C22.0168 22.8541 22.0027 22.8316 21.9886 22.8165C21.9886 22.8165 21.9886 22.809 21.9816 22.809C21.9745 22.8015 21.9675 22.794 21.9605 22.779C21.9534 22.7715 21.9534 22.7715 21.9464 22.7639C21.9323 22.7489 21.9252 22.7339 21.9112 22.7189C21.89 22.6888 21.8619 22.6663 21.8407 22.6437C21.8337 22.6362 21.8267 22.6287 21.8196 22.6212C21.8126 22.6137 21.8126 22.6137 21.8055 22.6062C21.7985 22.5987 21.7985 22.5987 21.7914 22.5911C21.7562 22.5611 21.721 22.5235 21.6717 22.486L15.8689 17.708L15.5661 17.9484C15.0661 18.3465 14.4535 18.5343 13.8267 18.4667L13.3337 18.4141L13.1295 20.5853C13.0943 20.9234 12.9394 21.2314 12.6929 21.4492C12.4464 21.6671 12.1295 21.7648 11.8126 21.7272C11.7281 21.7197 11.6718 21.637 11.6788 21.5544L12.0309 17.8657L14.552 16.5435L15.2492 16.1754L15.2915 16.1529C15.4746 16.0327 15.6506 15.935 15.8267 15.8524C16.207 15.672 16.6084 15.5368 17.0098 15.4692C17.5168 15.3791 18.0379 15.3791 18.552 15.4692C19.6929 15.672 20.8267 15.5744 21.8548 15.2063L24.1999 20.7731C23.3689 21.284 22.6295 22.0052 22.045 22.8992Z" stroke="white" stroke-width="0.2" mask="url(#path-1-outside-1_111_131)"/>
<path d="M14.8252 5.1754L14.825 5.1757L13.5576 7.51178C13.5576 7.51183 13.5575 7.51189 13.5575 7.51194C13.4744 7.66279 13.5242 7.84965 13.6664 7.93887L13.6663 7.93898L13.6694 7.94064C13.7141 7.9645 13.7651 7.98408 13.8126 7.98408C13.9146 7.98408 14.0172 7.92958 14.0685 7.82147L15.3349 5.48734C15.4259 5.33588 15.3755 5.14861 15.2335 5.05953C15.0869 4.96749 14.9079 5.02534 14.8252 5.1754Z" fill="white" stroke="white" stroke-width="0.1"/>
<path d="M14.1091 5.92596C14.2682 5.75624 14.2682 5.48107 14.1091 5.31135C13.9501 5.14163 13.6923 5.14163 13.5333 5.31135C13.3742 5.48107 13.3742 5.75624 13.5333 5.92596C13.6923 6.09568 13.9501 6.09568 14.1091 5.92596Z" fill="white" stroke="white" stroke-width="0.1"/>
<path d="M15.0802 7.8188C15.3092 7.8188 15.4894 7.62176 15.4894 7.38562C15.4894 7.14948 15.3092 6.95244 15.0802 6.95244C14.8513 6.95244 14.6711 7.14948 14.6711 7.38562C14.6711 7.62176 14.8513 7.8188 15.0802 7.8188Z" fill="white" stroke="white" stroke-width="0.1"/>
<path d="M25.9134 20.2971L25.9134 20.2974H25.9182C25.928 20.2974 25.9368 20.2986 25.9494 20.3006L25.9503 20.3007C25.9622 20.3025 25.9777 20.3049 25.9957 20.3049C26.1766 20.3049 26.3505 20.2405 26.4866 20.1195L26.4866 20.1195L26.4871 20.119C26.6434 19.9761 26.7483 19.7848 26.7708 19.5613C26.7931 19.3389 26.7336 19.1228 26.598 18.9541C26.4644 18.7878 26.284 18.6745 26.0718 18.6503C25.8604 18.6261 25.6558 18.6907 25.4971 18.8358C25.3409 18.9787 25.236 19.17 25.2135 19.3935L25.2135 19.3935L25.2134 19.3944C25.1763 19.8461 25.4882 20.2566 25.9134 20.2971ZM25.9663 19.6719L25.9663 19.6718L25.9636 19.6716C25.8795 19.6664 25.8007 19.571 25.8061 19.455C25.8122 19.3991 25.8352 19.3512 25.8742 19.3155C25.9091 19.2846 25.9469 19.2683 25.9886 19.2683H25.9886H25.9887H25.9887H25.9888H25.9888H25.9889H25.9889H25.9889H25.989H25.989H25.9891H25.9891H25.9891H25.9892H25.9892H25.9893H25.9893H25.9894H25.9894H25.9894H25.9895H25.9895H25.9896H25.9896H25.9896H25.9897H25.9897H25.9898H25.9898H25.9898H25.9899H25.9899H25.99H25.99H25.9901H25.9901H25.9901H25.9902H25.9902H25.9903H25.9903H25.9903H25.9904H25.9904H25.9905H25.9905H25.9905H25.9906H25.9906H25.9907H25.9907H25.9908H25.9908H25.9908H25.9909H25.9909H25.991H25.991H25.991H25.9911H25.9911H25.9912H25.9912H25.9912H25.9913H25.9913H25.9914H25.9914H25.9915H25.9915H25.9915H25.9916H25.9916H25.9917H25.9917H25.9917H25.9918H25.9918H25.9919H25.9919H25.9919H25.992H25.992H25.9921H25.9921H25.9922H25.9922H25.9922H25.9923H25.9923H25.9924H25.9924H25.9924H25.9925H25.9925H25.9926H25.9926H25.9927H25.9927H25.9927H25.9928H25.9928H25.9929H25.9929H25.9929H25.993H25.993H25.9931H25.9931H25.9931H25.9932H25.9932H25.9933H25.9933H25.9934H25.9934H25.9934H25.9935H25.9935H25.9936H25.9936H25.9936H25.9937H25.9937H25.9938H25.9938H25.9938H25.9939H25.9939H25.994H25.994H25.9941H25.9941H25.9941H25.9942H25.9942H25.9943H25.9943H25.9943H25.9944H25.9944H25.9945H25.9945H25.9945H25.9946H25.9946H25.9947H25.9947H25.9948H25.9948H25.9948H25.9949H25.9949H25.995H25.995H25.995H25.9951H25.9951H25.9952H25.9952H25.9953H25.9953H25.9953H25.9954H25.9954H25.9955H25.9955H25.9955H25.9956H25.9956H25.9957H25.9957H25.9957H25.9958H25.9958H25.9959H25.9959H25.996H25.996H25.996H25.9961H25.9961H25.9962H25.9962H25.9962H25.9963H25.9963H25.9964H25.9964H25.9964H25.9965H25.9965H25.9966H25.9966H25.9967H25.9967H25.9967H25.9968H25.9968H25.9969H25.9969H25.9969H25.997H25.997H25.9971H25.9971H25.9971H25.9972H25.9972H25.9973H25.9973H25.9974H25.9974H25.9974H25.9975H25.9975H25.9976H25.9976H25.9976H25.9977H25.9977H25.9978H25.9978H25.9979H25.9979H25.9979H25.998H25.998H25.9981H25.9981H25.9981H25.9982H25.9982H25.9983H25.9983H25.9983H25.9984H25.9984H25.9985H25.9985H25.9986H25.9986H25.9986H25.9987H25.9987H25.9988H25.9988H25.9988H25.9989H25.9989H25.999H25.999H25.999H25.9991H25.9991H25.9992H25.9992H25.9993H25.9993H25.9993H25.9994H25.9994H25.9995H25.9995H25.9995H25.9996H25.9996H25.9997H25.9997H25.9997H25.9998H25.9998H25.9999H25.9999H26H26H26H26.0001H26.0001H26.0002H26.0002H26.0002H26.0003H26.0003H26.0004H26.0004H26.0004H26.0005H26.0005H26.0006H26.0006H26.0007H26.0007H26.0007H26.0008H26.0008H26.0009H26.0009H26.0009H26.001H26.001H26.0011H26.0011H26.0012H26.0012H26.0012H26.0013H26.0013H26.0014H26.0014H26.0014H26.0015H26.0015H26.0016H26.0016H26.0016H26.0017H26.0017H26.0018H26.0018H26.0019H26.0019H26.0019H26.002H26.002H26.0021H26.0021H26.0021H26.0022H26.0022H26.0023H26.0023H26.0023H26.0024H26.0024H26.0025H26.0025H26.0026H26.0026H26.0026H26.0027H26.0027H26.0028H26.0028H26.0028H26.0029H26.0029H26.003H26.003H26.003H26.0031H26.0031H26.0032H26.0032H26.0033H26.0033H26.0033H26.0034H26.0034H26.0035H26.0035H26.0035H26.0036H26.0036H26.0037H26.0037H26.0038H26.0038H26.0038H26.0039H26.0039H26.004H26.004H26.004H26.0041H26.0041H26.0042H26.0042H26.0042H26.0043H26.0043H26.0044H26.0044H26.0045H26.0045H26.0045H26.0046H26.0046H26.0047H26.0047H26.0047H26.0048H26.0048H26.0049H26.0049H26.0049H26.005H26.005H26.0051H26.0051H26.0052H26.0052H26.0052H26.0053H26.0053H26.0054H26.0054H26.0054H26.0055H26.0055H26.0056H26.0056H26.0056H26.0057H26.0057H26.0058H26.0058H26.0059H26.0059H26.0059H26.006H26.006H26.0061H26.0061H26.0061H26.0062H26.0062H26.0063H26.0063H26.0063H26.0064H26.0064H26.0065H26.0065H26.0066H26.0066H26.0066C26.056 19.2748 26.0994 19.2983 26.1327 19.3397C26.1649 19.3797 26.1773 19.4332 26.1713 19.491C26.1654 19.5476 26.1422 19.596 26.1028 19.6321C26.0661 19.6656 26.018 19.678 25.9663 19.6719Z" fill="white" stroke="white" stroke-width="0.1"/>
<path d="M4.08592 18.515C3.87459 18.4909 3.67004 18.5555 3.51134 18.7006C3.35508 18.8434 3.25017 19.0348 3.22772 19.2583L3.22771 19.2584C3.18302 19.7114 3.49584 20.121 3.92682 20.1694L3.92679 20.1697H3.9324C3.94219 20.1697 3.95099 20.1709 3.9636 20.1729L3.96454 20.173C3.97646 20.1748 3.99196 20.1772 4.00987 20.1772L4.01087 20.1772C4.41103 20.1691 4.74756 19.8477 4.785 19.4257C4.82955 18.9729 4.51679 18.5634 4.08592 18.515ZM4.08592 18.515C4.08593 18.515 4.08595 18.515 4.08597 18.515L4.08029 18.5647L4.08587 18.515C4.08588 18.515 4.0859 18.515 4.08592 18.515ZM3.98728 19.5366L3.98728 19.5366L3.98466 19.5364C3.89172 19.5309 3.81542 19.4411 3.82722 19.3209C3.83312 19.2645 3.85623 19.2162 3.89546 19.1802C3.93035 19.1493 3.96816 19.133 4.00987 19.133H4.00991H4.00995H4.00999H4.01003H4.01007H4.01011H4.01016H4.0102H4.01024H4.01028H4.01032H4.01036H4.0104H4.01044H4.01049H4.01053H4.01057H4.01061H4.01065H4.01069H4.01073H4.01077H4.01082H4.01086H4.0109H4.01094H4.01098H4.01102H4.01106H4.0111H4.01115H4.01119H4.01123H4.01127H4.01131H4.01135H4.01139H4.01143H4.01148H4.01152H4.01156H4.0116H4.01164H4.01168H4.01172H4.01176H4.01181H4.01185H4.01189H4.01193H4.01197H4.01201H4.01205H4.01209H4.01214H4.01218H4.01222H4.01226H4.0123H4.01234H4.01238H4.01242H4.01247H4.01251H4.01255H4.01259H4.01263H4.01267H4.01271H4.01275H4.0128H4.01284H4.01288H4.01292H4.01296H4.013H4.01304H4.01308H4.01313H4.01317H4.01321H4.01325H4.01329H4.01333H4.01337H4.01341H4.01346H4.0135H4.01354H4.01358H4.01362H4.01366H4.0137H4.01374H4.01379H4.01383H4.01387H4.01391H4.01395H4.01399H4.01403H4.01408H4.01412H4.01416H4.0142H4.01424H4.01428H4.01432H4.01436H4.01441H4.01445H4.01449H4.01453H4.01457H4.01461H4.01465H4.01469H4.01474H4.01478H4.01482H4.01486H4.0149H4.01494H4.01498H4.01502H4.01507H4.01511H4.01515H4.01519H4.01523H4.01527H4.01531H4.01535H4.0154H4.01544H4.01548H4.01552H4.01556H4.0156H4.01564H4.01568H4.01573H4.01577H4.01581H4.01585H4.01589H4.01593H4.01597H4.01601H4.01606H4.0161H4.01614H4.01618H4.01622H4.01626H4.0163H4.01634H4.01639H4.01643H4.01647H4.01651H4.01655H4.01659H4.01663H4.01667H4.01672H4.01676H4.0168H4.01684H4.01688H4.01692H4.01696H4.017H4.01705H4.01709H4.01713H4.01717H4.01721H4.01725H4.01729H4.01733H4.01738H4.01742H4.01746H4.0175H4.01754H4.01758H4.01762H4.01766H4.01771H4.01775H4.01779H4.01783H4.01787H4.01791H4.01795H4.018H4.01804H4.01808H4.01812H4.01816H4.0182H4.01824H4.01828H4.01833H4.01837H4.01841H4.01845H4.01849H4.01853H4.01857H4.01861H4.01866H4.0187H4.01874H4.01878H4.01882H4.01886H4.0189H4.01894H4.01899H4.01903H4.01907H4.01911H4.01915H4.01919H4.01923H4.01927H4.01932H4.01936H4.0194H4.01944H4.01948H4.01952H4.01956H4.0196H4.01965H4.01969H4.01973H4.01977H4.01981H4.01985H4.01989H4.01993H4.01998H4.02002H4.02006H4.0201H4.02014H4.02018H4.02022H4.02026H4.02031H4.02035H4.02039H4.02043H4.02047H4.02051H4.02055H4.02059H4.02064H4.02068H4.02072H4.02076H4.0208H4.02084H4.02088H4.02092H4.02097H4.02101H4.02105H4.02109H4.02113H4.02117H4.02121H4.02125H4.0213H4.02134H4.02138H4.02142H4.02146H4.0215H4.02154H4.02159H4.02163H4.02167H4.02171H4.02175H4.02179H4.02183H4.02187H4.02192H4.02196H4.022H4.02204H4.02208H4.02212H4.02216H4.0222H4.02225H4.02229H4.02233H4.02237H4.02241H4.02245H4.02249H4.02253H4.02258H4.02262H4.02266H4.0227H4.02274H4.02278H4.02282H4.02286H4.02291H4.02295H4.02299H4.02303H4.02307H4.02311H4.02315H4.02319H4.02324H4.02328H4.02332H4.02336H4.0234H4.02344H4.02348H4.02352H4.02357H4.02361H4.02365H4.02369H4.02373H4.02377H4.02381H4.02385H4.0239H4.02394H4.02398H4.02402H4.02406H4.0241H4.02414H4.02418H4.02423H4.02427H4.02431H4.02435H4.02439H4.02443H4.02447H4.02451H4.02456H4.0246H4.02464H4.02468H4.02472H4.02476H4.0248H4.02484H4.02489H4.02493H4.02497H4.02501H4.02505H4.02509H4.02513H4.02517H4.02522H4.02526H4.0253H4.02534H4.02538H4.02542H4.02546H4.02551H4.02555H4.02559H4.02563H4.02567H4.02571H4.02575H4.02579H4.02584H4.02588H4.02592H4.02596H4.026H4.02604H4.02608H4.02612H4.02617H4.02621H4.02625H4.02629H4.02633H4.02637H4.02641H4.02645H4.0265H4.02654H4.02658H4.02662H4.02666H4.0267H4.02674H4.02678H4.02683H4.02687H4.02691H4.02695H4.02699H4.02703H4.02707H4.02711H4.02716H4.0272H4.02724H4.02728H4.02732H4.02736H4.0274H4.02744H4.02749H4.02753H4.02757H4.02761H4.02765H4.02769H4.02773H4.02777H4.02782H4.02785C4.12482 19.1461 4.20389 19.24 4.19252 19.3559C4.18078 19.468 4.08911 19.5481 3.98728 19.5366Z" fill="white" stroke="white" stroke-width="0.1"/>
<path d="M20.6675 7.14018L20.7377 7.05778H20.6295H18.6231V1V0.95H18.5731H10.3338H10.2838V1V7.05778H8.27039H8.1621L8.23233 7.1402L14.4154 14.3974L14.4535 14.4421L14.4915 14.3974L20.6675 7.14018ZM17.5302 7.05778H17.2774C16.9721 7.05778 16.7344 7.31615 16.7344 7.63366C16.7344 7.95118 16.9721 8.20955 17.2774 8.20955H17.5802H18.0379H18.2889L14.4464 12.7252L10.6039 8.20955H10.8549H11.3126H11.6154C11.9207 8.20955 12.1584 7.95118 12.1584 7.63366C12.1584 7.31615 11.9207 7.05778 11.6154 7.05778H11.3626V2.10177H17.5302V7.05778Z" fill="white" stroke="white" stroke-width="0.1"/>
</svg>
