<svg width="33" height="28" viewBox="0 0 33 28" fill="none" xmlns="http://www.w3.org/2000/svg">
<path d="M26.011 11.8982C26.011 13.0709 26.011 14.2208 26.011 15.3593C26.011 15.9057 26.011 16.4522 26.011 16.9873C26.011 17.3858 25.8061 17.6135 25.4873 17.6249C25.1685 17.6249 24.9522 17.3858 24.9522 16.9987C24.9522 14.4029 24.9522 11.8071 24.9522 9.21134C24.9522 8.81287 25.1571 8.58516 25.4759 8.57378C25.7947 8.57378 26.011 8.81287 26.011 9.19996C26.011 9.65536 25.9996 10.1108 26.0224 10.5662C26.0224 10.6572 26.1135 10.8052 26.1818 10.828C26.8649 10.976 27.548 11.1013 28.2539 11.2493C28.7548 9.65536 29.2444 8.08422 29.7453 6.47893C28.1628 5.68198 26.8535 4.40686 25.1002 3.98561C24.474 3.8376 23.8023 3.84899 23.1534 3.79206C23.0623 3.78068 22.9485 3.86037 22.8688 3.9173C22.6638 4.07669 22.4703 4.27023 22.254 4.42963C22.0035 4.62317 21.6961 4.58902 21.5139 4.36132C21.3318 4.13362 21.3432 3.8376 21.5822 3.6099C21.753 3.45051 21.9352 3.30251 22.1173 3.14312C21.9352 2.85849 21.753 2.59663 21.5709 2.31201C20.3185 2.86988 19.0889 3.41636 17.8252 3.97422C18.2806 4.54348 18.7132 5.08996 19.1686 5.65921C19.4077 5.45428 19.6468 5.26073 19.8859 5.0558C20.1933 4.80533 20.5007 4.80533 20.7056 5.04442C20.9219 5.2835 20.8764 5.5909 20.5804 5.85275C20.2274 6.17154 19.8631 6.47893 19.4988 6.78633C19.1914 7.0368 18.9181 7.01403 18.6563 6.70663C18.292 6.26262 17.939 5.80721 17.5064 5.2835C17.5064 5.47705 17.5064 5.5909 17.5064 5.70475C17.5064 7.81098 17.5064 9.91721 17.5064 12.0348C17.5064 12.1487 17.5178 12.2625 17.495 12.365C17.4381 12.6496 17.2559 12.8204 16.9599 12.809C16.6867 12.7976 16.5045 12.6382 16.459 12.365C16.4362 12.2625 16.4476 12.1487 16.4476 12.0348C16.4476 9.93998 16.4476 7.84514 16.4476 5.7389C16.4476 5.61367 16.4476 5.49982 16.4476 5.2835C16.0605 5.76167 15.7417 6.17154 15.4116 6.5814C15.0245 7.05957 14.7968 7.08234 14.3414 6.68386C13.1915 5.70475 12.053 4.72564 10.9031 3.73514C10.5274 3.41636 10.5046 3.21143 10.7778 2.79018C11.0739 2.33478 11.3699 1.87938 11.6886 1.43536C11.7683 1.31013 11.8936 1.17351 12.0188 1.12796C13.1573 0.786414 14.2731 0.399322 15.4343 0.160236C17.0624 -0.16993 18.6791 0.0350012 20.2616 0.547328C20.7853 0.718103 21.3204 0.888879 21.8327 1.08242C22.0035 1.15074 22.1743 1.28736 22.2881 1.43536C22.5386 1.76553 22.7549 2.14123 23.0054 2.4714C23.0851 2.57386 23.2445 2.67633 23.3697 2.67633C24.9864 2.63079 26.4323 3.12035 27.7985 3.98561C29.3696 4.98749 30.9635 5.94384 32.5574 6.92295C33.0014 7.19619 33.0584 7.35558 32.899 7.82237C32.4094 9.30242 31.9085 10.7825 31.4189 12.2625C31.2481 12.7635 31.0888 12.8546 30.5764 12.7521C29.1419 12.4675 27.7074 12.1828 26.2729 11.8868C26.1704 11.9096 26.1135 11.9096 26.011 11.8982ZM13.6469 1.71999C14.7171 2.19816 15.6962 2.64217 16.6981 3.06342C16.8461 3.13173 17.0624 3.13173 17.2104 3.06342C18.1326 2.67633 19.032 2.26647 19.9428 1.85661C20.0225 1.82245 20.1022 1.77691 20.2388 1.69722C18.0187 0.923034 15.8783 0.923035 13.6469 1.71999ZM11.8025 3.14312C12.793 3.99699 13.7607 4.8281 14.7512 5.67059C15.2066 5.08996 15.6506 4.54348 16.106 3.97422C14.8309 3.40497 13.6013 2.85849 12.3604 2.31201C12.1668 2.60802 11.996 2.86988 11.8025 3.14312ZM30.4512 11.6819C30.8838 10.3954 31.2937 9.15442 31.7035 7.90206C31.7263 7.83375 31.6808 7.69713 31.6238 7.66298C31.3278 7.45805 31.0091 7.27588 30.6675 7.07095C30.2007 8.55101 29.7567 9.98552 29.3013 11.4542C29.7112 11.5339 30.0641 11.6022 30.4512 11.6819Z" fill="white"/>
<path d="M4.18592 6.49028C4.68686 8.08419 5.17642 9.65532 5.67736 11.2492C6.39462 11.1012 7.0891 10.976 7.78359 10.8166C7.84052 10.8052 7.90883 10.6572 7.90883 10.5661C7.92021 10.1221 7.90883 9.6781 7.92021 9.23408C7.92021 8.81283 8.12514 8.57375 8.45531 8.57375C8.78548 8.57375 8.99041 8.81283 8.99041 9.23408C8.99041 13.9589 8.99041 18.6837 8.97902 23.4084C8.97902 23.6931 9.04733 23.898 9.26365 24.0574C9.59381 24.3193 9.91259 24.5925 10.2428 24.8544C10.5615 25.1048 10.6412 25.3894 10.4591 25.6513C10.2655 25.9245 9.93536 25.9701 9.61658 25.7082C9.12703 25.3211 8.67162 24.9113 8.19345 24.5128C7.96575 24.3193 7.90883 24.0916 7.90883 23.8069C7.92021 19.9816 7.90883 16.1562 7.90883 12.3308C7.90883 12.1942 7.90883 12.069 7.90883 11.8982C7.27127 12.0234 6.65647 12.1373 6.04168 12.2625C5.11949 12.4333 4.20869 12.6268 3.29789 12.809C2.92218 12.8887 2.70586 12.7634 2.58063 12.3991C2.05692 10.8508 1.54459 9.291 1.02088 7.73125C0.918414 7.42386 1.00949 7.19616 1.28273 7.02538C3.1385 5.88688 4.99426 4.73699 6.8614 3.59848C7.54451 3.17724 8.3073 2.93815 9.10426 2.80153C9.43442 2.74461 9.70766 2.91538 9.76459 3.21139C9.82151 3.51879 9.66212 3.79203 9.33196 3.84896C8.35284 4.00835 7.48758 4.44098 6.65647 4.97607C5.85952 5.47702 5.0398 5.96657 4.18592 6.49028ZM3.46866 11.6819C3.86714 11.6022 4.23146 11.5339 4.61855 11.4542C4.15176 9.97411 3.70775 8.53959 3.25235 7.07092C2.9108 7.27585 2.59201 7.45801 2.296 7.66294C2.23908 7.6971 2.20492 7.83372 2.22769 7.90203C2.62617 9.15438 3.03603 10.3954 3.46866 11.6819Z" fill="white"/>
<path d="M16.9258 25.0592C16.7891 25.6854 16.6411 26.323 16.5045 26.9491C16.4818 27.0516 16.459 27.1655 16.4362 27.2793C16.3679 27.5867 16.1744 27.7575 15.8442 27.7461C14.4211 27.7347 13.0435 27.4615 11.7342 26.9036C11.404 26.767 11.2788 26.471 11.404 26.175C11.5293 25.9017 11.8025 25.7879 12.1327 25.9245C13.089 26.3116 14.0681 26.562 15.0928 26.6417C15.1839 26.6531 15.2749 26.6531 15.3546 26.6645C15.3888 26.6645 15.4229 26.6531 15.4799 26.6417C15.7303 25.5146 15.9694 24.3761 16.2427 23.249C16.3907 22.6342 16.4476 22.008 16.4362 21.3705C16.4248 19.1504 16.4362 16.9303 16.4362 14.7102C16.4362 14.6078 16.4362 14.5053 16.4362 14.4142C16.459 14.0954 16.6867 13.8905 16.9713 13.8905C17.2559 13.8905 17.4722 14.1068 17.495 14.4256C17.5064 14.5167 17.495 14.6078 17.495 14.6875C17.495 16.8506 17.5064 19.0138 17.4836 21.1769C17.4722 21.9625 17.5519 22.7139 17.7341 23.4767C17.996 24.5127 18.2009 25.5716 18.4514 26.7101C19.18 26.5734 19.8973 26.4937 20.6031 26.3116C22.1857 25.9017 23.5746 25.1048 24.7473 23.9549C24.8611 23.8524 24.9294 23.6589 24.9294 23.4995C24.9408 22.156 24.9408 20.8126 24.9408 19.4692C24.9408 19.3781 24.9408 19.287 24.9408 19.2073C24.9636 18.8885 25.1799 18.6722 25.4759 18.6836C25.7719 18.6836 25.9996 18.8999 25.9996 19.2187C26.011 20.8126 26.011 22.4179 25.9996 24.0118C25.9996 24.1598 25.8972 24.3306 25.7947 24.4444C23.6885 26.5734 21.1268 27.6892 18.1212 27.7347C17.7455 27.7461 17.5747 27.6095 17.4836 27.2338C17.3242 26.5507 17.1762 25.8676 17.0282 25.1958C17.0168 25.1503 16.9941 25.1048 16.9827 25.0478C16.9599 25.0592 16.9485 25.0592 16.9258 25.0592Z" fill="white"/>
<path d="M21.7644 10.1676C22.254 10.1676 22.7435 10.1676 23.2331 10.1676C23.6885 10.1676 23.882 10.3611 23.8934 10.8052C23.8934 11.4541 23.9048 12.1144 23.8934 12.7634C23.882 13.3896 23.6088 13.8791 23.0623 14.1865C22.1743 14.6875 21.2862 14.6761 20.4096 14.1638C19.8973 13.8564 19.6354 13.3782 19.624 12.7862C19.6126 12.1258 19.624 11.4541 19.624 10.7938C19.624 10.3725 19.8176 10.179 20.2388 10.179C20.7398 10.1676 21.2521 10.1676 21.7644 10.1676ZM20.6828 11.2378C20.6828 11.7274 20.6828 12.2283 20.6828 12.7179C20.6942 13.1505 21.0471 13.4351 21.6392 13.4806C22.1629 13.5262 22.7549 13.2529 22.7891 12.8886C22.8346 12.3421 22.8004 11.7957 22.8004 11.2378C22.0946 11.2378 21.4229 11.2378 20.6828 11.2378Z" fill="white"/>
<path d="M15.3546 8.5852C15.3432 8.86983 15.0928 9.10891 14.8081 9.09753C14.5235 9.08614 14.2844 8.84706 14.2958 8.55105C14.3072 8.26642 14.5463 8.02734 14.8423 8.03872C15.1269 8.05011 15.366 8.30058 15.3546 8.5852Z" fill="white"/>
<path d="M14.8195 11.2379C15.1042 11.2379 15.3546 11.477 15.3546 11.7616C15.3546 12.0463 15.1156 12.2967 14.8309 12.2967C14.5463 12.2967 14.2958 12.0576 14.2958 11.773C14.2958 11.477 14.5349 11.2379 14.8195 11.2379Z" fill="white"/>
<path d="M14.8309 14.4372C15.1156 14.4372 15.3546 14.6876 15.3546 14.9723C15.3546 15.2569 15.1042 15.496 14.8195 15.496C14.5349 15.496 14.2958 15.2455 14.2958 14.9609C14.3072 14.6649 14.5463 14.4258 14.8309 14.4372Z" fill="white"/>
<path d="M15.3546 18.1714C15.3432 18.456 15.1042 18.6951 14.8082 18.6951C14.5235 18.6837 14.2844 18.4446 14.2844 18.1486C14.2958 17.864 14.5349 17.6249 14.8195 17.6249C15.1269 17.6363 15.366 17.8753 15.3546 18.1714Z" fill="white"/>
<path d="M14.8195 20.8241C15.1042 20.8127 15.3546 21.0518 15.366 21.3364C15.3774 21.6211 15.1383 21.8715 14.8537 21.8829C14.5691 21.8943 14.3186 21.6552 14.3072 21.3706C14.2958 21.0746 14.5235 20.8355 14.8195 20.8241Z" fill="white"/>
</svg>
