<svg width="15" height="26" viewBox="0 0 15 26" fill="none" xmlns="http://www.w3.org/2000/svg">
<path d="M13.8579 24.4522C14.2107 24.0997 14.4089 23.6217 14.4089 23.1234C14.4089 22.625 14.2107 22.147 13.8579 21.7946L4.5425 12.4911L13.8579 3.18763C14.2007 2.83315 14.3904 2.35839 14.3861 1.8656C14.3818 1.3728 14.1839 0.901402 13.835 0.552929C13.486 0.204456 13.014 0.00679601 12.5206 0.00251214C12.0272 -0.00176981 11.5518 0.187672 11.1969 0.530037L0.551 11.1623C0.198199 11.5148 6.49205e-06 11.9927 6.53562e-06 12.4911C6.57919e-06 12.9895 0.198199 13.4674 0.551001 13.8199L11.1969 24.4522C11.5498 24.8045 12.0284 25.0024 12.5274 25.0024C13.0264 25.0024 13.505 24.8045 13.8579 24.4522Z" fill="#F3BF1B"/>
</svg>
