<svg width="15" height="26" viewBox="0 0 15 26" fill="none" xmlns="http://www.w3.org/2000/svg">
<path d="M0.550994 0.55273C0.198193 0.905186 0 1.38315 0 1.88153C0 2.3799 0.198193 2.85787 0.550994 3.21033L9.86637 12.5138L0.550994 21.8173C0.208191 22.1717 0.018506 22.6465 0.0227938 23.1393C0.0270815 23.6321 0.224999 24.1035 0.573918 24.452C0.922836 24.8004 1.39484 24.9981 1.88827 25.0024C2.38169 25.0067 2.85706 24.8172 3.21199 24.4748L13.8579 13.8426C14.2107 13.4901 14.4089 13.0122 14.4089 12.5138C14.4089 12.0154 14.2107 11.5374 13.8579 11.185L3.21199 0.55273C2.85908 0.20038 2.3805 0.00244141 1.88149 0.00244141C1.38248 0.00244141 0.903901 0.20038 0.550994 0.55273Z" fill="#F3BF1B"/>
</svg>
