<svg width="27" height="28" viewBox="0 0 27 28" fill="none" xmlns="http://www.w3.org/2000/svg">
<mask id="path-1-outside-1_105_42" maskUnits="userSpaceOnUse" x="0" y="-0.468018" width="27" height="28" fill="black">
<rect fill="white" y="-0.468018" width="27" height="28"/>
<path d="M25.9903 6.91778C25.9905 6.84245 25.9696 6.76875 25.9303 6.70598L22.4903 0.786143C22.4447 0.708782 22.3814 0.644902 22.3062 0.60046C22.231 0.556018 22.1464 0.53246 22.0603 0.531982H4.92027C4.83416 0.53246 4.74957 0.556018 4.67438 0.60046C4.59919 0.644902 4.53585 0.708782 4.49027 0.786143L1.06027 6.65303C1.02117 6.71195 1.00021 6.78222 1.00027 6.85424V9.32172C0.994878 9.65845 1.07111 9.99101 1.22167 10.2877C1.37223 10.5843 1.5921 10.8351 1.86027 11.0161V26.4776C1.86027 26.618 1.91295 26.7527 2.00671 26.852C2.10048 26.9513 2.22766 27.0071 2.36027 27.0071H24.6303C24.7629 27.0071 24.8901 26.9513 24.9838 26.852C25.0776 26.7527 25.1303 26.618 25.1303 26.4776V11.0797C25.3977 10.9003 25.6171 10.6514 25.7677 10.3566C25.9183 10.0618 25.9949 9.73098 25.9903 9.39585V6.92837V6.91778ZM5.20027 1.59099H21.7803L24.5903 6.3565H2.39027L5.20027 1.59099ZM21.5603 7.41551V9.35349C21.5799 9.57222 21.5175 9.79036 21.3865 9.96077C21.2555 10.1312 21.0665 10.2402 20.8603 10.2642H19.8603C19.4503 10.2642 19.2903 10.1371 19.2203 10.0312C19.17 9.80949 19.1498 9.58128 19.1603 9.35349V7.41551H21.5603ZM18.1303 7.41551V9.35349C18.1499 9.57222 18.0875 9.79036 17.9565 9.96077C17.8255 10.1312 17.6365 10.2402 17.4303 10.2642H16.4303C15.8903 10.2642 15.8303 10.0312 15.7703 9.80886V9.73473C15.7703 9.61824 15.7703 9.48057 15.7703 9.35349V7.41551H18.1303ZM14.7003 7.41551V9.35349C14.7199 9.57222 14.6575 9.79036 14.5265 9.96077C14.3955 10.1312 14.2065 10.2402 14.0003 10.2642H13.0003C12.794 10.2402 12.605 10.1312 12.474 9.96077C12.3431 9.79036 12.2806 9.57222 12.3003 9.35349V7.41551H14.7003ZM11.2803 7.41551V9.35349C11.2973 9.57166 11.2339 9.78834 11.1034 9.95813C10.9729 10.1279 10.7855 10.2376 10.5803 10.2642H9.58027C9.37403 10.2402 9.18501 10.1312 9.05403 9.96077C8.92305 9.79036 8.86064 9.57222 8.88027 9.35349V7.41551H11.2803ZM7.85027 8.26271V9.32172C7.85157 9.46515 7.82262 9.60709 7.76553 9.73717C7.70844 9.86725 7.62465 9.98219 7.52027 10.0736C7.40827 10.1524 7.28243 10.2064 7.15027 10.2325H6.15027C5.94403 10.2084 5.75501 10.0994 5.62403 9.929C5.49305 9.75859 5.43064 9.54045 5.45027 9.32172V7.41551H7.88027L7.85027 8.26271ZM2.63027 10.2854C2.43976 10.2447 2.26975 10.132 2.15198 9.96835C2.0342 9.80465 1.97672 9.60114 1.99027 9.39585V7.41551H4.42027V9.35349C4.42345 9.49465 4.39629 9.63473 4.34086 9.76315C4.28542 9.89157 4.20315 10.005 4.10027 10.0948C3.81741 10.2268 3.50875 10.2849 3.20027 10.2642H2.74027L2.63027 10.2854ZM11.2003 25.9481H6.28027V16.2582H11.2803L11.2003 25.9481ZM24.1303 25.9481H12.2003L12.2803 15.7287C12.2759 15.5865 12.2226 15.4509 12.1303 15.3474C12.0363 15.2516 11.9107 15.1984 11.7803 15.1992H5.78027C5.64766 15.1992 5.52048 15.255 5.42672 15.3543C5.33295 15.4536 5.28027 15.5883 5.28027 15.7287V25.9481H2.85027V11.3656H3.72027C4.08856 11.354 4.44178 11.2081 4.72027 10.9526C4.75912 10.9317 4.79597 10.9069 4.83027 10.8785C4.99601 11.0491 5.19394 11.1807 5.41109 11.2647C5.62824 11.3486 5.85969 11.383 6.09027 11.3656H7.09027C7.4583 11.3623 7.81306 11.2195 8.09027 10.9632C8.1405 10.9377 8.18753 10.9057 8.23027 10.8679C8.57338 11.1937 9.01945 11.3713 9.48027 11.3656H10.4803C10.6159 11.366 10.7507 11.3445 10.8803 11.3021C11.1689 11.2593 11.4434 11.1431 11.6803 10.9632C11.9124 11.1449 12.1841 11.2615 12.4703 11.3021C12.603 11.3455 12.7413 11.3669 12.8803 11.3656H13.8803C14.0155 11.3608 14.1497 11.3394 14.2803 11.3021C14.5514 11.2622 14.8072 11.1451 15.0203 10.9632C15.3751 11.2574 15.8208 11.4009 16.2703 11.3656H17.2703C17.6919 11.3874 18.1081 11.2567 18.4503 10.9949C18.6857 11.1846 18.966 11.3018 19.2603 11.3338C19.3967 11.3455 19.5338 11.3455 19.6703 11.3338H20.8903H21.2203C21.5381 11.3044 21.844 11.1916 22.1103 11.0055C22.2632 11.1006 22.4282 11.172 22.6003 11.2173C22.8059 11.3232 23.0317 11.3776 23.2603 11.3762H24.1303V25.9481ZM24.9903 9.39585C25.0035 9.60266 24.9446 9.80741 24.8248 9.97134C24.705 10.1353 24.5326 10.247 24.3403 10.2854C24.2903 10.2854 24.2403 10.2854 24.2903 10.2854H23.7503C23.4881 10.2881 23.2265 10.2597 22.9703 10.2007C22.8401 10.1125 22.7339 9.99002 22.662 9.84518C22.5901 9.70035 22.555 9.53819 22.5603 9.37467V7.41551H24.9903V9.39585Z"/>
</mask>
<path d="M25.9903 6.91778C25.9905 6.84245 25.9696 6.76875 25.9303 6.70598L22.4903 0.786143C22.4447 0.708782 22.3814 0.644902 22.3062 0.60046C22.231 0.556018 22.1464 0.53246 22.0603 0.531982H4.92027C4.83416 0.53246 4.74957 0.556018 4.67438 0.60046C4.59919 0.644902 4.53585 0.708782 4.49027 0.786143L1.06027 6.65303C1.02117 6.71195 1.00021 6.78222 1.00027 6.85424V9.32172C0.994878 9.65845 1.07111 9.99101 1.22167 10.2877C1.37223 10.5843 1.5921 10.8351 1.86027 11.0161V26.4776C1.86027 26.618 1.91295 26.7527 2.00671 26.852C2.10048 26.9513 2.22766 27.0071 2.36027 27.0071H24.6303C24.7629 27.0071 24.8901 26.9513 24.9838 26.852C25.0776 26.7527 25.1303 26.618 25.1303 26.4776V11.0797C25.3977 10.9003 25.6171 10.6514 25.7677 10.3566C25.9183 10.0618 25.9949 9.73098 25.9903 9.39585V6.92837V6.91778ZM5.20027 1.59099H21.7803L24.5903 6.3565H2.39027L5.20027 1.59099ZM21.5603 7.41551V9.35349C21.5799 9.57222 21.5175 9.79036 21.3865 9.96077C21.2555 10.1312 21.0665 10.2402 20.8603 10.2642H19.8603C19.4503 10.2642 19.2903 10.1371 19.2203 10.0312C19.17 9.80949 19.1498 9.58128 19.1603 9.35349V7.41551H21.5603ZM18.1303 7.41551V9.35349C18.1499 9.57222 18.0875 9.79036 17.9565 9.96077C17.8255 10.1312 17.6365 10.2402 17.4303 10.2642H16.4303C15.8903 10.2642 15.8303 10.0312 15.7703 9.80886V9.73473C15.7703 9.61824 15.7703 9.48057 15.7703 9.35349V7.41551H18.1303ZM14.7003 7.41551V9.35349C14.7199 9.57222 14.6575 9.79036 14.5265 9.96077C14.3955 10.1312 14.2065 10.2402 14.0003 10.2642H13.0003C12.794 10.2402 12.605 10.1312 12.474 9.96077C12.3431 9.79036 12.2806 9.57222 12.3003 9.35349V7.41551H14.7003ZM11.2803 7.41551V9.35349C11.2973 9.57166 11.2339 9.78834 11.1034 9.95813C10.9729 10.1279 10.7855 10.2376 10.5803 10.2642H9.58027C9.37403 10.2402 9.18501 10.1312 9.05403 9.96077C8.92305 9.79036 8.86064 9.57222 8.88027 9.35349V7.41551H11.2803ZM7.85027 8.26271V9.32172C7.85157 9.46515 7.82262 9.60709 7.76553 9.73717C7.70844 9.86725 7.62465 9.98219 7.52027 10.0736C7.40827 10.1524 7.28243 10.2064 7.15027 10.2325H6.15027C5.94403 10.2084 5.75501 10.0994 5.62403 9.929C5.49305 9.75859 5.43064 9.54045 5.45027 9.32172V7.41551H7.88027L7.85027 8.26271ZM2.63027 10.2854C2.43976 10.2447 2.26975 10.132 2.15198 9.96835C2.0342 9.80465 1.97672 9.60114 1.99027 9.39585V7.41551H4.42027V9.35349C4.42345 9.49465 4.39629 9.63473 4.34086 9.76315C4.28542 9.89157 4.20315 10.005 4.10027 10.0948C3.81741 10.2268 3.50875 10.2849 3.20027 10.2642H2.74027L2.63027 10.2854ZM11.2003 25.9481H6.28027V16.2582H11.2803L11.2003 25.9481ZM24.1303 25.9481H12.2003L12.2803 15.7287C12.2759 15.5865 12.2226 15.4509 12.1303 15.3474C12.0363 15.2516 11.9107 15.1984 11.7803 15.1992H5.78027C5.64766 15.1992 5.52048 15.255 5.42672 15.3543C5.33295 15.4536 5.28027 15.5883 5.28027 15.7287V25.9481H2.85027V11.3656H3.72027C4.08856 11.354 4.44178 11.2081 4.72027 10.9526C4.75912 10.9317 4.79597 10.9069 4.83027 10.8785C4.99601 11.0491 5.19394 11.1807 5.41109 11.2647C5.62824 11.3486 5.85969 11.383 6.09027 11.3656H7.09027C7.4583 11.3623 7.81306 11.2195 8.09027 10.9632C8.1405 10.9377 8.18753 10.9057 8.23027 10.8679C8.57338 11.1937 9.01945 11.3713 9.48027 11.3656H10.4803C10.6159 11.366 10.7507 11.3445 10.8803 11.3021C11.1689 11.2593 11.4434 11.1431 11.6803 10.9632C11.9124 11.1449 12.1841 11.2615 12.4703 11.3021C12.603 11.3455 12.7413 11.3669 12.8803 11.3656H13.8803C14.0155 11.3608 14.1497 11.3394 14.2803 11.3021C14.5514 11.2622 14.8072 11.1451 15.0203 10.9632C15.3751 11.2574 15.8208 11.4009 16.2703 11.3656H17.2703C17.6919 11.3874 18.1081 11.2567 18.4503 10.9949C18.6857 11.1846 18.966 11.3018 19.2603 11.3338C19.3967 11.3455 19.5338 11.3455 19.6703 11.3338H20.8903H21.2203C21.5381 11.3044 21.844 11.1916 22.1103 11.0055C22.2632 11.1006 22.4282 11.172 22.6003 11.2173C22.8059 11.3232 23.0317 11.3776 23.2603 11.3762H24.1303V25.9481ZM24.9903 9.39585C25.0035 9.60266 24.9446 9.80741 24.8248 9.97134C24.705 10.1353 24.5326 10.247 24.3403 10.2854C24.2903 10.2854 24.2403 10.2854 24.2903 10.2854H23.7503C23.4881 10.2881 23.2265 10.2597 22.9703 10.2007C22.8401 10.1125 22.7339 9.99002 22.662 9.84518C22.5901 9.70035 22.555 9.53819 22.5603 9.37467V7.41551H24.9903V9.39585Z" fill="white"/>
<path d="M25.9903 6.91778C25.9905 6.84245 25.9696 6.76875 25.9303 6.70598L22.4903 0.786143C22.4447 0.708782 22.3814 0.644902 22.3062 0.60046C22.231 0.556018 22.1464 0.53246 22.0603 0.531982H4.92027C4.83416 0.53246 4.74957 0.556018 4.67438 0.60046C4.59919 0.644902 4.53585 0.708782 4.49027 0.786143L1.06027 6.65303C1.02117 6.71195 1.00021 6.78222 1.00027 6.85424V9.32172C0.994878 9.65845 1.07111 9.99101 1.22167 10.2877C1.37223 10.5843 1.5921 10.8351 1.86027 11.0161V26.4776C1.86027 26.618 1.91295 26.7527 2.00671 26.852C2.10048 26.9513 2.22766 27.0071 2.36027 27.0071H24.6303C24.7629 27.0071 24.8901 26.9513 24.9838 26.852C25.0776 26.7527 25.1303 26.618 25.1303 26.4776V11.0797C25.3977 10.9003 25.6171 10.6514 25.7677 10.3566C25.9183 10.0618 25.9949 9.73098 25.9903 9.39585V6.92837V6.91778ZM5.20027 1.59099H21.7803L24.5903 6.3565H2.39027L5.20027 1.59099ZM21.5603 7.41551V9.35349C21.5799 9.57222 21.5175 9.79036 21.3865 9.96077C21.2555 10.1312 21.0665 10.2402 20.8603 10.2642H19.8603C19.4503 10.2642 19.2903 10.1371 19.2203 10.0312C19.17 9.80949 19.1498 9.58128 19.1603 9.35349V7.41551H21.5603ZM18.1303 7.41551V9.35349C18.1499 9.57222 18.0875 9.79036 17.9565 9.96077C17.8255 10.1312 17.6365 10.2402 17.4303 10.2642H16.4303C15.8903 10.2642 15.8303 10.0312 15.7703 9.80886V9.73473C15.7703 9.61824 15.7703 9.48057 15.7703 9.35349V7.41551H18.1303ZM14.7003 7.41551V9.35349C14.7199 9.57222 14.6575 9.79036 14.5265 9.96077C14.3955 10.1312 14.2065 10.2402 14.0003 10.2642H13.0003C12.794 10.2402 12.605 10.1312 12.474 9.96077C12.3431 9.79036 12.2806 9.57222 12.3003 9.35349V7.41551H14.7003ZM11.2803 7.41551V9.35349C11.2973 9.57166 11.2339 9.78834 11.1034 9.95813C10.9729 10.1279 10.7855 10.2376 10.5803 10.2642H9.58027C9.37403 10.2402 9.18501 10.1312 9.05403 9.96077C8.92305 9.79036 8.86064 9.57222 8.88027 9.35349V7.41551H11.2803ZM7.85027 8.26271V9.32172C7.85157 9.46515 7.82262 9.60709 7.76553 9.73717C7.70844 9.86725 7.62465 9.98219 7.52027 10.0736C7.40827 10.1524 7.28243 10.2064 7.15027 10.2325H6.15027C5.94403 10.2084 5.75501 10.0994 5.62403 9.929C5.49305 9.75859 5.43064 9.54045 5.45027 9.32172V7.41551H7.88027L7.85027 8.26271ZM2.63027 10.2854C2.43976 10.2447 2.26975 10.132 2.15198 9.96835C2.0342 9.80465 1.97672 9.60114 1.99027 9.39585V7.41551H4.42027V9.35349C4.42345 9.49465 4.39629 9.63473 4.34086 9.76315C4.28542 9.89157 4.20315 10.005 4.10027 10.0948C3.81741 10.2268 3.50875 10.2849 3.20027 10.2642H2.74027L2.63027 10.2854ZM11.2003 25.9481H6.28027V16.2582H11.2803L11.2003 25.9481ZM24.1303 25.9481H12.2003L12.2803 15.7287C12.2759 15.5865 12.2226 15.4509 12.1303 15.3474C12.0363 15.2516 11.9107 15.1984 11.7803 15.1992H5.78027C5.64766 15.1992 5.52048 15.255 5.42672 15.3543C5.33295 15.4536 5.28027 15.5883 5.28027 15.7287V25.9481H2.85027V11.3656H3.72027C4.08856 11.354 4.44178 11.2081 4.72027 10.9526C4.75912 10.9317 4.79597 10.9069 4.83027 10.8785C4.99601 11.0491 5.19394 11.1807 5.41109 11.2647C5.62824 11.3486 5.85969 11.383 6.09027 11.3656H7.09027C7.4583 11.3623 7.81306 11.2195 8.09027 10.9632C8.1405 10.9377 8.18753 10.9057 8.23027 10.8679C8.57338 11.1937 9.01945 11.3713 9.48027 11.3656H10.4803C10.6159 11.366 10.7507 11.3445 10.8803 11.3021C11.1689 11.2593 11.4434 11.1431 11.6803 10.9632C11.9124 11.1449 12.1841 11.2615 12.4703 11.3021C12.603 11.3455 12.7413 11.3669 12.8803 11.3656H13.8803C14.0155 11.3608 14.1497 11.3394 14.2803 11.3021C14.5514 11.2622 14.8072 11.1451 15.0203 10.9632C15.3751 11.2574 15.8208 11.4009 16.2703 11.3656H17.2703C17.6919 11.3874 18.1081 11.2567 18.4503 10.9949C18.6857 11.1846 18.966 11.3018 19.2603 11.3338C19.3967 11.3455 19.5338 11.3455 19.6703 11.3338H20.8903H21.2203C21.5381 11.3044 21.844 11.1916 22.1103 11.0055C22.2632 11.1006 22.4282 11.172 22.6003 11.2173C22.8059 11.3232 23.0317 11.3776 23.2603 11.3762H24.1303V25.9481ZM24.9903 9.39585C25.0035 9.60266 24.9446 9.80741 24.8248 9.97134C24.705 10.1353 24.5326 10.247 24.3403 10.2854C24.2903 10.2854 24.2403 10.2854 24.2903 10.2854H23.7503C23.4881 10.2881 23.2265 10.2597 22.9703 10.2007C22.8401 10.1125 22.7339 9.99002 22.662 9.84518C22.5901 9.70035 22.555 9.53819 22.5603 9.37467V7.41551H24.9903V9.39585Z" stroke="white" stroke-width="0.2" mask="url(#path-1-outside-1_105_42)"/>
<path d="M21.2003 15.1992H14.4203C14.2894 15.1992 14.1637 15.2535 14.0702 15.3505C13.9767 15.4476 13.9229 15.5795 13.9203 15.7181L13.8503 20.6001C13.8468 20.6706 13.8574 20.741 13.8816 20.8067C13.9057 20.8724 13.9428 20.932 13.9903 20.9814C14.0364 21.0331 14.0923 21.0739 14.1543 21.1013C14.2164 21.1286 14.2831 21.1419 14.3503 21.1402H21.2003C21.3329 21.1402 21.46 21.0845 21.5538 20.9852C21.6476 20.8859 21.7003 20.7512 21.7003 20.6107V15.7287C21.7003 15.5883 21.6476 15.4536 21.5538 15.3543C21.46 15.255 21.3329 15.1992 21.2003 15.1992ZM20.7003 20.1236H14.8603L14.9203 16.3006H20.7003V20.1236Z" fill="white"/>
</svg>
