<svg width="26" height="25" viewBox="0 0 26 25" fill="none" xmlns="http://www.w3.org/2000/svg">
<path d="M16.375 4.6875H4.65625" stroke="white" stroke-width="2" stroke-linejoin="round"/>
<path d="M0.75 1.5625H4.65625V17.1875H21.8438L24.9688 12.5V10.1562" stroke="white" stroke-width="2" stroke-linejoin="round"/>
<path d="M4.65625 17.1875V19.5312C4.65625 19.7385 4.73856 19.9372 4.88507 20.0837C5.03159 20.2302 5.2303 20.3125 5.4375 20.3125H22.625" stroke="white" stroke-width="2" stroke-linejoin="round"/>
<path d="M9.34375 23.4375C10.2067 23.4375 10.9062 22.7379 10.9062 21.875C10.9062 21.0121 10.2067 20.3125 9.34375 20.3125C8.48081 20.3125 7.78125 21.0121 7.78125 21.875C7.78125 22.7379 8.48081 23.4375 9.34375 23.4375Z" stroke="white" stroke-width="2" stroke-linejoin="round"/>
<path d="M17.9375 23.4375C18.8004 23.4375 19.5 22.7379 19.5 21.875C19.5 21.0121 18.8004 20.3125 17.9375 20.3125C17.0746 20.3125 16.375 21.0121 16.375 21.875C16.375 22.7379 17.0746 23.4375 17.9375 23.4375Z" stroke="white" stroke-width="2" stroke-linejoin="round"/>
<path d="M21.0625 3.125V9.375" stroke="white" stroke-width="2" stroke-linejoin="round"/>
<path d="M24.1875 6.25H17.9375" stroke="white" stroke-width="2" stroke-linejoin="round"/>
</svg>
