<svg width="108" height="55" viewBox="0 0 108 55" fill="none" xmlns="http://www.w3.org/2000/svg">
<g clip-path="url(#clip0_204_297)">
<path d="M2.99 48.67C1.34 48.67 0 50.01 0 51.65C0 53.29 1.34 54.64 2.99 54.64C4.64 54.64 5.98 53.3 5.98 51.65C5.98 50 4.64 48.67 2.99 48.67Z" fill="#F3BF1B"/>
<path d="M19.95 48.67C18.3 48.67 16.96 50.01 16.96 51.65C16.96 53.29 18.3 54.64 19.95 54.64C21.6 54.64 22.94 53.3 22.94 51.65C22.94 50 21.6 48.67 19.95 48.67Z" fill="#F3BF1B"/>
<path d="M36.92 48.67C35.27 48.67 33.93 50.01 33.93 51.65C33.93 53.29 35.27 54.64 36.92 54.64C38.57 54.64 39.9 53.3 39.9 51.65C39.9 50 38.56 48.67 36.92 48.67Z" fill="#F3BF1B"/>
<path d="M53.88 48.67C52.23 48.67 50.89 50.01 50.89 51.65C50.89 53.29 52.23 54.64 53.88 54.64C55.53 54.64 56.87 53.3 56.87 51.65C56.87 50 55.53 48.67 53.88 48.67Z" fill="#F3BF1B"/>
<path d="M70.85 48.67C69.2 48.67 67.86 50.01 67.86 51.65C67.86 53.29 69.2 54.64 70.85 54.64C72.5 54.64 73.83 53.3 73.83 51.65C73.83 50 72.49 48.67 70.85 48.67Z" fill="#F3BF1B"/>
<path d="M87.81 48.67C86.16 48.67 84.82 50.01 84.82 51.65C84.82 53.29 86.16 54.64 87.81 54.64C89.46 54.64 90.8 53.3 90.8 51.65C90.8 50 89.46 48.67 87.81 48.67Z" fill="#F3BF1B"/>
<path d="M104.78 48.67C103.13 48.67 101.79 50.01 101.79 51.65C101.79 53.29 103.13 54.64 104.78 54.64C106.43 54.64 107.76 53.3 107.76 51.65C107.76 50 106.42 48.67 104.78 48.67Z" fill="#F3BF1B"/>
<path d="M2.99 32.45C1.34 32.45 0 33.79 0 35.43C0 37.07 1.34 38.42 2.99 38.42C4.64 38.42 5.98 37.08 5.98 35.43C5.98 33.78 4.64 32.45 2.99 32.45Z" fill="#F3BF1B"/>
<path d="M19.95 32.45C18.3 32.45 16.96 33.79 16.96 35.43C16.96 37.07 18.3 38.42 19.95 38.42C21.6 38.42 22.94 37.08 22.94 35.43C22.94 33.78 21.6 32.45 19.95 32.45Z" fill="#F3BF1B"/>
<path d="M36.92 32.45C35.27 32.45 33.93 33.79 33.93 35.43C33.93 37.07 35.27 38.42 36.92 38.42C38.57 38.42 39.9 37.08 39.9 35.43C39.9 33.78 38.56 32.45 36.92 32.45Z" fill="#F3BF1B"/>
<path d="M53.88 32.45C52.23 32.45 50.89 33.79 50.89 35.43C50.89 37.07 52.23 38.42 53.88 38.42C55.53 38.42 56.87 37.08 56.87 35.43C56.87 33.78 55.53 32.45 53.88 32.45Z" fill="#F3BF1B"/>
<path d="M70.85 32.45C69.2 32.45 67.86 33.79 67.86 35.43C67.86 37.07 69.2 38.42 70.85 38.42C72.5 38.42 73.83 37.08 73.83 35.43C73.83 33.78 72.49 32.45 70.85 32.45Z" fill="#F3BF1B"/>
<path d="M87.81 32.45C86.16 32.45 84.82 33.79 84.82 35.43C84.82 37.07 86.16 38.42 87.81 38.42C89.46 38.42 90.8 37.08 90.8 35.43C90.8 33.78 89.46 32.45 87.81 32.45Z" fill="#F3BF1B"/>
<path d="M104.78 32.45C103.13 32.45 101.79 33.79 101.79 35.43C101.79 37.07 103.13 38.42 104.78 38.42C106.43 38.42 107.76 37.08 107.76 35.43C107.76 33.78 106.42 32.45 104.78 32.45Z" fill="#F3BF1B"/>
<path d="M2.99 16.22C1.34 16.22 0 17.56 0 19.2C0 20.84 1.34 22.19 2.99 22.19C4.64 22.19 5.98 20.85 5.98 19.2C5.98 17.55 4.64 16.22 2.99 16.22Z" fill="#F3BF1B"/>
<path d="M19.95 16.22C18.3 16.22 16.96 17.56 16.96 19.2C16.96 20.84 18.3 22.19 19.95 22.19C21.6 22.19 22.94 20.85 22.94 19.2C22.94 17.55 21.6 16.22 19.95 16.22Z" fill="#F3BF1B"/>
<path d="M36.92 16.22C35.27 16.22 33.93 17.56 33.93 19.2C33.93 20.84 35.27 22.19 36.92 22.19C38.57 22.19 39.9 20.85 39.9 19.2C39.9 17.55 38.56 16.22 36.92 16.22Z" fill="#F3BF1B"/>
<path d="M53.88 16.22C52.23 16.22 50.89 17.56 50.89 19.2C50.89 20.84 52.23 22.19 53.88 22.19C55.53 22.19 56.87 20.85 56.87 19.2C56.87 17.55 55.53 16.22 53.88 16.22Z" fill="#F3BF1B"/>
<path d="M70.85 16.22C69.2 16.22 67.86 17.56 67.86 19.2C67.86 20.84 69.2 22.19 70.85 22.19C72.5 22.19 73.83 20.85 73.83 19.2C73.83 17.55 72.49 16.22 70.85 16.22Z" fill="#F3BF1B"/>
<path d="M87.81 16.22C86.16 16.22 84.82 17.56 84.82 19.2C84.82 20.84 86.16 22.19 87.81 22.19C89.46 22.19 90.8 20.85 90.8 19.2C90.8 17.55 89.46 16.22 87.81 16.22Z" fill="#F3BF1B"/>
<path d="M104.78 16.22C103.13 16.22 101.79 17.56 101.79 19.2C101.79 20.84 103.13 22.19 104.78 22.19C106.43 22.19 107.76 20.85 107.76 19.2C107.76 17.55 106.42 16.22 104.78 16.22Z" fill="#F3BF1B"/>
<path d="M2.99 0C1.34 0 0 1.34 0 2.98C0 4.62 1.34 5.97 2.99 5.97C4.64 5.97 5.98 4.63 5.98 2.98C5.98 1.33 4.63 0 2.99 0Z" fill="#F3BF1B"/>
<path d="M19.95 0C18.3 0 16.96 1.34 16.96 2.98C16.96 4.62 18.3 5.97 19.95 5.97C21.6 5.97 22.94 4.63 22.94 2.98C22.94 1.33 21.6 0 19.95 0" fill="#F3BF1B"/>
<path d="M36.92 0C35.27 0 33.93 1.34 33.93 2.98C33.93 4.62 35.27 5.97 36.92 5.97C38.57 5.97 39.9 4.63 39.9 2.98C39.9 1.33 38.56 0 36.92 0" fill="#F3BF1B"/>
<path d="M53.88 0C52.23 0 50.89 1.34 50.89 2.98C50.89 4.62 52.23 5.97 53.88 5.97C55.53 5.97 56.87 4.63 56.87 2.98C56.87 1.33 55.53 0 53.88 0" fill="#F3BF1B"/>
<path d="M70.85 0C69.2 0 67.86 1.34 67.86 2.98C67.86 4.62 69.2 5.97 70.85 5.97C72.5 5.97 73.83 4.63 73.83 2.98C73.83 1.33 72.49 0 70.85 0" fill="#F3BF1B"/>
<path d="M87.81 0C86.16 0 84.82 1.34 84.82 2.98C84.82 4.62 86.16 5.97 87.81 5.97C89.46 5.97 90.8 4.63 90.8 2.98C90.8 1.33 89.46 0 87.81 0" fill="#F3BF1B"/>
<path d="M104.78 0C103.13 0 101.79 1.34 101.79 2.98C101.79 4.62 103.13 5.97 104.78 5.97C106.43 5.97 107.76 4.63 107.76 2.98C107.76 1.33 106.42 0 104.78 0" fill="#F3BF1B"/>
</g>
<defs>
<clipPath id="clip0_204_297">
<rect width="107.76" height="54.64" fill="white"/>
</clipPath>
</defs>
</svg>
