<svg width="69" height="69" viewBox="0 0 69 69" fill="none" xmlns="http://www.w3.org/2000/svg">
<path d="M0 34.5C0 53.5538 15.4462 69 34.5 69C53.5538 69 69 53.5538 69 34.5C69 15.4462 53.5538 0 34.5 0C15.4462 0 0 15.4462 0 34.5Z" fill="#25D366"/>
<path fill-rule="evenodd" clip-rule="evenodd" d="M46.575 22.2094C43.3406 18.975 39.0281 17.25 34.5 17.25C25.0125 17.25 17.25 25.0125 17.25 34.5C17.25 37.5187 18.1125 40.5375 19.6219 43.125L17.25 51.75L26.3063 49.3781C28.8938 50.6719 31.6969 51.5344 34.5 51.5344C43.9875 51.5344 51.75 43.7719 51.75 34.2844C51.75 29.7562 49.8094 25.4438 46.575 22.2094ZM34.5 48.7313C31.9125 48.7313 29.325 48.0844 27.1688 46.7906L26.7375 46.575L21.3469 48.0844L22.8563 42.9094L22.425 42.2625C20.9156 39.8906 20.2687 37.3031 20.2687 34.7156C20.2687 26.9531 26.7375 20.4844 34.5 20.4844C38.3812 20.4844 41.8313 21.9937 44.6344 24.5812C47.4375 27.3844 48.7313 30.8344 48.7313 34.7156C48.7313 42.2625 42.4781 48.7313 34.5 48.7313ZM42.2625 37.95C41.8313 37.7344 39.675 36.6562 39.2438 36.6562C38.8125 36.4406 38.5968 36.4406 38.3812 36.8719C38.1656 37.3031 37.3032 38.1656 37.0875 38.5969C36.8719 38.8125 36.6562 38.8125 36.225 38.8125C35.7937 38.5969 34.5 38.1656 32.775 36.6562C31.4813 35.5781 30.6188 34.0688 30.4031 33.6375C30.1875 33.2063 30.4032 32.9906 30.6188 32.775C30.8344 32.5594 31.05 32.3437 31.2656 32.1281C31.4813 31.9125 31.4813 31.6969 31.6969 31.4813C31.9125 31.2656 31.6969 31.05 31.6969 30.8344C31.6969 30.6188 30.8344 28.4625 30.4031 27.6C30.1875 26.9531 29.7563 26.9531 29.5407 26.9531C29.325 26.9531 29.1093 26.9531 28.6781 26.9531C28.4625 26.9531 28.0312 26.9531 27.6 27.3844C27.1687 27.8156 26.0906 28.8937 26.0906 31.05C26.0906 33.2062 27.6 35.1469 27.8156 35.5781C28.0312 35.7938 30.8343 40.3219 35.1468 42.0469C38.8125 43.5562 39.4594 43.125 40.3219 43.125C41.1844 43.125 42.9094 42.0469 43.125 41.1844C43.5563 40.1063 43.5563 39.2438 43.3406 39.2438C43.125 38.1656 42.6938 38.1656 42.2625 37.95Z" fill="white"/>
</svg>
