<svg width="108" height="32" viewBox="0 0 108 32" fill="none" xmlns="http://www.w3.org/2000/svg">
    <g style="mix-blend-mode:multiply">
    <g style="mix-blend-mode:multiply">
    <path d="M36.33 11.34C37.29 12.37 37.77 13.73 37.77 15.41V23.3C37.77 23.51 37.6 23.69 37.38 23.69H33.88C33.67 23.69 33.49 23.52 33.49 23.3V16.32C33.49 15.53 33.27 14.89 32.84 14.4C32.41 13.91 31.85 13.66 31.17 13.66C30.29 13.66 29.61 13.97 29.11 14.59C28.62 15.21 28.37 16.15 28.37 17.43V23.31C28.37 23.52 28.2 23.7 27.98 23.7H24.45C24.24 23.7 24.06 23.53 24.06 23.31V10.58C24.06 10.37 24.23 10.19 24.45 10.19H27.98C28.19 10.19 28.37 10.36 28.37 10.58V10.62C28.37 10.94 28.74 11.12 28.99 10.92C29.96 10.17 31.13 9.78998 32.51 9.78998C34.09 9.78998 35.35 10.31 36.31 11.34" fill="black"/>
    </g>
    <g style="mix-blend-mode:multiply">
    <path d="M54.61 23.69H51.08C50.87 23.69 50.69 23.52 50.69 23.3V14C50.69 13.79 50.52 13.61 50.3 13.61H46.13C45.92 13.61 45.74 13.78 45.74 14V23.31C45.74 23.52 45.57 23.7 45.35 23.7H41.85C41.64 23.7 41.46 23.53 41.46 23.31V14C41.46 13.79 41.29 13.61 41.07 13.61H39.5C39.29 13.61 39.11 13.44 39.11 13.22V10.58C39.11 10.37 39.28 10.19 39.5 10.19H41.07C41.28 10.19 41.46 10.02 41.46 9.80002V8.22002C41.46 6.28002 42.1 4.73002 43.4 3.54002C44.69 2.36002 46.38 1.77002 48.45 1.77002C50.05 1.77002 51.64 2.29002 53.22 3.32002C53.38 3.43002 53.44 3.65002 53.35 3.82002L52.03 6.33002C51.92 6.54002 51.65 6.60002 51.46 6.46002C50.53 5.78002 49.58 5.45002 48.61 5.45002C47.77 5.45002 47.08 5.72002 46.54 6.26002C46 6.80002 45.73 7.50002 45.73 8.36002V9.80002C45.73 10.01 45.9 10.19 46.12 10.19H54.59C54.8 10.19 54.98 10.36 54.98 10.58V23.3C54.98 23.51 54.81 23.69 54.59 23.69" fill="black"/>
    </g>
    <g style="mix-blend-mode:multiply">
    <path d="M70.36 11.34C71.32 12.37 71.8 13.73 71.8 15.41V23.3C71.8 23.51 71.63 23.69 71.41 23.69H67.91C67.7 23.69 67.52 23.52 67.52 23.3V16.32C67.52 15.53 67.3 14.89 66.88 14.4C66.45 13.91 65.89 13.66 65.21 13.66C64.33 13.66 63.65 13.97 63.15 14.59C62.66 15.21 62.41 16.15 62.41 17.43V23.31C62.41 23.52 62.24 23.7 62.02 23.7H58.49C58.28 23.7 58.1 23.53 58.1 23.31V10.58C58.1 10.37 58.27 10.19 58.49 10.19H62.02C62.23 10.19 62.41 10.36 62.41 10.58V10.62C62.41 10.94 62.78 11.12 63.03 10.92C64 10.17 65.17 9.78998 66.55 9.78998C68.13 9.78998 69.39 10.31 70.35 11.34" fill="black"/>
    </g>
    <g style="mix-blend-mode:multiply">
    <path d="M74.94 23.31V10.58C74.94 10.37 75.11 10.19 75.33 10.19H78.86C79.07 10.19 79.25 10.36 79.25 10.58V23.3C79.25 23.51 79.08 23.69 78.86 23.69H75.33C75.12 23.69 74.94 23.52 74.94 23.3V23.31ZM79.5 5.84999C79.5 7.17999 78.42 8.26999 77.08 8.26999C75.74 8.26999 74.66 7.18999 74.66 5.84999C74.66 4.50999 75.74 3.42999 77.08 3.42999C78.42 3.42999 79.5 4.50999 79.5 5.84999Z" fill="black"/>
    </g>
    <g style="mix-blend-mode:multiply">
    <path d="M87.82 18.56C87.82 19.1 87.95 19.51 88.22 19.81C88.49 20.11 88.86 20.25 89.35 20.25C89.89 20.25 90.41 20.14 90.91 19.92C91.13 19.82 91.38 19.93 91.44 20.16L92.21 22.8C92.26 22.98 92.18 23.17 92.01 23.26C90.87 23.83 89.74 24.11 88.61 24.11C87.02 24.11 85.77 23.66 84.86 22.75C83.95 21.84 83.5 20.59 83.5 19V14.01C83.5 13.8 83.33 13.62 83.11 13.62H81.33C81.12 13.62 80.94 13.45 80.94 13.23V10.59C80.94 10.38 81.11 10.2 81.33 10.2H83.11C83.32 10.2 83.5 10.03 83.5 9.80999V5.88999C83.5 5.71999 83.61 5.56999 83.78 5.51999L87.31 4.47999C87.56 4.40999 87.81 4.58999 87.81 4.84999V9.80999C87.81 10.02 87.98 10.2 88.2 10.2H92.21C92.42 10.2 92.6 10.37 92.6 10.59V13.23C92.6 13.44 92.43 13.62 92.21 13.62H88.2C87.99 13.62 87.81 13.79 87.81 14.01V18.57L87.82 18.56Z" fill="black"/>
    </g>
    <g style="mix-blend-mode:multiply">
    <path d="M107.44 25.23C107.44 27.08 106.75 28.58 105.38 29.75C104.01 30.91 102.22 31.5 100.02 31.5C96.93 31.5 94.73 30.52 93.41 28.55C93.3 28.38 93.33 28.16 93.48 28.03L96.03 25.9C96.19 25.76 96.44 25.78 96.58 25.95C97.06 26.54 97.54 26.97 98.02 27.24C98.58 27.55 99.25 27.71 100.02 27.71C100.93 27.71 101.68 27.44 102.27 26.89C102.85 26.34 103.14 25.68 103.14 24.89V23.28C103.14 22.96 102.77 22.78 102.52 22.98C101.55 23.73 100.38 24.11 99 24.11C97.42 24.11 96.15 23.59 95.2 22.56C94.24 21.53 93.76 20.17 93.76 18.49V10.6C93.76 10.39 93.93 10.21 94.15 10.21H97.65C97.86 10.21 98.04 10.38 98.04 10.6V17.58C98.04 18.37 98.25 19.01 98.68 19.5C99.11 19.99 99.67 20.24 100.35 20.24C101.23 20.24 101.91 19.93 102.41 19.31C102.9 18.69 103.15 17.75 103.15 16.47V10.59C103.15 10.38 103.32 10.2 103.54 10.2H107.07C107.28 10.2 107.46 10.37 107.46 10.59V25.23H107.44Z" fill="black"/>
    </g>
    <g style="mix-blend-mode:multiply">
    <path d="M15.1 0H6.90997C6.36997 0 6.00997 0.55 6.21997 1.04L10.31 10.58C10.57 11.18 11.43 11.18 11.68 10.58L15.79 1.04C16 0.55 15.64 0 15.1 0Z" fill="#3463AC"/>
    </g>
    <g style="mix-blend-mode:multiply">
    <path d="M11.01 12.02C9.8 12.02 8.81 13 8.81 14.21C8.81 15.42 9.79 16.41 11.01 16.41C12.23 16.41 13.2 15.42 13.2 14.21C13.2 13 12.22 12.02 11.01 12.02Z" fill="#3463AC"/>
    </g>
    <g style="mix-blend-mode:multiply">
    <path d="M15.99 4.85L14.94 7.29C14.77 7.68 14.9 8.13 15.24 8.39C17.08 9.79 18.21 12.09 17.98 14.62C17.68 17.9 15.07 20.56 11.8 20.93C7.57999 21.4 3.98999 18.09 3.98999 13.96C3.98999 11.7 5.06999 9.68 6.73999 8.4C7.06999 8.15 7.20999 7.64 7.04999 7.26L6.00999 4.84C5.87999 4.53 5.50999 4.42 5.21999 4.59C1.78999 6.73 -0.400012 10.7 0.0599877 15.13C0.599988 20.4 4.93999 24.58 10.22 24.95C16.64 25.4 22.01 20.3 22.01 13.97C22.01 10.02 19.92 6.55 16.78 4.6C16.5 4.42 16.12 4.54 15.99 4.85Z" fill="black"/>
    </g>
    </g>
</svg>
