<svg width="41" height="41" viewBox="0 0 41 41" fill="none" xmlns="http://www.w3.org/2000/svg">
<path d="M26.7402 26.1021C25.6821 26.9098 25 28.1707 25 29.5867C25 32.0222 27.0166 34 29.5 34C31.9834 34 34 32.0222 34 29.5867C34 28.1089 33.2581 26.8007 32.1203 26M29.5 27.0649C30.9169 27.0649 32.0708 28.1965 32.0708 29.5867C32.0708 30.9769 30.9169 32.1086 29.5 32.1086C28.0825 32.1086 26.9279 30.9769 26.9279 29.5867C26.9279 28.1965 28.0825 27.0649 29.5 27.0649Z" stroke="white" stroke-miterlimit="10" stroke-linecap="round" stroke-linejoin="round"/>
<path d="M13.5 23.8409C14.9666 23.8409 16.1591 25.034 16.1591 26.5C16.1591 27.9655 14.9666 29.1591 13.5 29.1591C12.0334 29.1591 10.8409 27.9655 10.8409 26.5C10.8409 25.034 12.0334 23.8409 13.5 23.8409ZM13.5 20C9.912 20 7 22.9114 7 26.5C7 30.088 9.912 33 13.5 33C17.088 33 20 30.088 20 26.5C20 22.9114 17.088 20 13.5 20Z" stroke="white" stroke-miterlimit="10" stroke-linecap="round" stroke-linejoin="round"/>
<path d="M22.7402 26H31.5178C32.1459 26 33.0507 25.3262 33.2812 24.6686L34.9539 19.9058C35.1856 19.2476 34.5009 18.8 33.8728 18.8H22.8823L20.3644 9.191C20.2338 8.5526 19.8565 8 19.2284 8H10.1359C9.50902 8 9 8.5328 9 9.191V19.1924L16.3784 20.6L22.7402 26ZM19.931 15.8H11.314V10.4H18.5131L19.931 15.8Z" stroke="white" stroke-miterlimit="10" stroke-linecap="round" stroke-linejoin="round"/>
<path d="M27 18C27 18 27 14.7809 27 13.5852C27 10.5126 29.4473 10 31 10V11.2308C31 11.2308 29.6667 11.1391 29.6667 13.6923C29.6667 14.8874 29.6667 18 29.6667 18" stroke="white" stroke-miterlimit="10" stroke-linecap="round" stroke-linejoin="round"/>
<path d="M20 26.5C20 30.088 17.088 33 13.5 33C9.912 33 7 30.088 7 26.5C7 22.9114 9.912 20 13.5 20C17.088 20 20 22.9114 20 26.5Z" stroke="white" stroke-miterlimit="10" stroke-linecap="round" stroke-linejoin="round"/>
</svg>
