<svg width="31" height="22" viewBox="0 0 31 22" fill="none" xmlns="http://www.w3.org/2000/svg">
<path d="M24.4565 4.19048H19.0217V0.52381C19.0217 0.384887 18.9645 0.251654 18.8626 0.15342C18.7606 0.055187 18.6224 0 18.4783 0H3.26087C3.11673 0 2.97849 0.055187 2.87657 0.15342C2.77465 0.251654 2.71739 0.384887 2.71739 0.52381C2.71739 0.662732 2.77465 0.795965 2.87657 0.894199C2.97849 0.992432 3.11673 1.04762 3.26087 1.04762H5.97826V4.19048H0.543478C0.399339 4.19048 0.261103 4.24566 0.159181 4.3439C0.0572591 4.44213 0 4.57536 0 4.71429V8.90476C0 9.04369 0.0572591 9.17692 0.159181 9.27515C0.261103 9.37339 0.399339 9.42857 0.543478 9.42857H5.97826V12.5714H0.543478C0.399339 12.5714 0.261103 12.6266 0.159181 12.7248C0.0572591 12.8231 0 12.9563 0 13.0952V17.2857C0 17.4246 0.0572591 17.5579 0.159181 17.6561C0.261103 17.7543 0.399339 17.8095 0.543478 17.8095H5.97826V20.9524H3.19565C3.05151 20.9524 2.91328 21.0076 2.81136 21.1058C2.70943 21.204 2.65217 21.3373 2.65217 21.4762C2.65217 21.6151 2.70943 21.7483 2.81136 21.8466C2.91328 21.9448 3.05151 22 3.19565 22H18.4783C18.6224 22 18.7606 21.9448 18.8626 21.8466C18.9645 21.7483 19.0217 21.6151 19.0217 21.4762V17.8095H24.4565C24.6007 17.8095 24.7389 17.7543 24.8408 17.6561C24.9427 17.5579 25 17.4246 25 17.2857V13.0952C25 12.9563 24.9427 12.8231 24.8408 12.7248C24.7389 12.6266 24.6007 12.5714 24.4565 12.5714H19.0217V9.42857H24.4565C24.6007 9.42857 24.7389 9.37339 24.8408 9.27515C24.9427 9.17692 25 9.04369 25 8.90476V4.71429C25 4.57536 24.9427 4.44213 24.8408 4.3439C24.7389 4.24566 24.6007 4.19048 24.4565 4.19048ZM7.06522 1.04762H17.9348V4.19048H7.06522V1.04762ZM1.08696 8.38095V5.2381H11.9565V8.38095H1.08696ZM1.08696 16.7619V13.619H11.9565V16.7619H1.08696ZM17.9348 20.9524H7.06522V17.8095H17.9348V20.9524ZM23.913 16.7619H13.0435V13.619H23.913V16.7619ZM17.9348 12.5714H7.06522V9.42857H17.9348V12.5714ZM23.913 8.38095H13.0435V5.2381H23.913V8.38095Z" fill="white"/>
<path d="M2.25 21H0.75C0.551088 21 0.360322 21.0527 0.21967 21.1464C0.0790176 21.2402 0 21.3674 0 21.5C0 21.6326 0.0790176 21.7598 0.21967 21.8536C0.360322 21.9473 0.551088 22 0.75 22H2.25C2.44891 22 2.63968 21.9473 2.78033 21.8536C2.92098 21.7598 3 21.6326 3 21.5C3 21.3674 2.92098 21.2402 2.78033 21.1464C2.63968 21.0527 2.44891 21 2.25 21Z" fill="white"/>
<path d="M30.4545 5.2381C30.5992 5.2381 30.7379 5.18291 30.8402 5.08468C30.9425 4.98644 31 4.85321 31 4.71429V0.52381C31 0.384887 30.9425 0.251654 30.8402 0.15342C30.7379 0.055187 30.5992 0 30.4545 0H25.5455C25.4008 0 25.2621 0.055187 25.1598 0.15342C25.0575 0.251654 25 0.384887 25 0.52381V4.71429C25 4.85321 25.0575 4.98644 25.1598 5.08468C25.2621 5.18291 25.4008 5.2381 25.5455 5.2381H28.8182V8.38095H25.5455C25.4008 8.38095 25.2621 8.43614 25.1598 8.53437C25.0575 8.63261 25 8.76584 25 8.90476V13.0952C25 13.2342 25.0575 13.3674 25.1598 13.4656C25.2621 13.5639 25.4008 13.619 25.5455 13.619H28.8182V16.7619H25.5455C25.4008 16.7619 25.2621 16.8171 25.1598 16.9153C25.0575 17.0136 25 17.1468 25 17.2857V21.4762C25 21.6151 25.0575 21.7483 25.1598 21.8466C25.2621 21.9448 25.4008 22 25.5455 22H30.4545C30.5992 22 30.7379 21.9448 30.8402 21.8466C30.9425 21.7483 31 21.6151 31 21.4762V17.2857C31 17.1468 30.9425 17.0136 30.8402 16.9153C30.7379 16.8171 30.5992 16.7619 30.4545 16.7619H29.9091V13.619H30.4545C30.5992 13.619 30.7379 13.5639 30.8402 13.4656C30.9425 13.3674 31 13.2342 31 13.0952V8.90476C31 8.76584 30.9425 8.63261 30.8402 8.53437C30.7379 8.43614 30.5992 8.38095 30.4545 8.38095H29.9091V5.2381H30.4545ZM29.9091 20.9524H26.0909V17.8095H29.9091V20.9524ZM29.3636 12.5714H26.0909V9.42857H29.9091V12.5714H29.3636ZM26.0909 1.04762H29.9091V4.19048H26.0909V1.04762Z" fill="white"/>
</svg>
