<svg width="27" height="31" viewBox="0 0 27 31" fill="none" xmlns="http://www.w3.org/2000/svg">
<path d="M15.3034 23.904C15.5554 23.904 15.7597 23.6996 15.7597 23.4476C15.7597 23.1956 15.5554 22.9913 15.3034 22.9913C15.0513 22.9913 14.847 23.1956 14.847 23.4476C14.847 23.6996 15.0513 23.904 15.3034 23.904Z" fill="white"/>
<path d="M15.3034 27.3808C15.5554 27.3808 15.7597 27.1765 15.7597 26.9245C15.7597 26.6725 15.5554 26.4682 15.3034 26.4682C15.0513 26.4682 14.847 26.6725 14.847 26.9245C14.847 27.1765 15.0513 27.3808 15.3034 27.3808Z" fill="white"/>
<path d="M11.4788 23.904C11.7308 23.904 11.9351 23.6996 11.9351 23.4476C11.9351 23.1956 11.7308 22.9913 11.4788 22.9913C11.2268 22.9913 11.0225 23.1956 11.0225 23.4476C11.0225 23.6996 11.2268 23.904 11.4788 23.904Z" fill="white"/>
<path d="M11.4788 27.3808C11.7308 27.3808 11.9351 27.1765 11.9351 26.9245C11.9351 26.6725 11.7308 26.4682 11.4788 26.4682C11.2268 26.4682 11.0225 26.6725 11.0225 26.9245C11.0225 27.1765 11.2268 27.3808 11.4788 27.3808Z" fill="white"/>
<path d="M19.0627 6.9107V7.4107C19.3196 7.4107 19.5347 7.21605 19.5603 6.96045L19.0627 6.9107ZM7.58904 1.69538L7.46777 1.2103C7.2339 1.26877 7.07504 1.48579 7.09 1.7264L7.58904 1.69538ZM19.5843 1.69538L20.0818 1.74513C20.1062 1.50113 19.9501 1.27544 19.7131 1.21226L19.5843 1.69538ZM19.0866 6.9107L19.5507 6.72472C19.4747 6.53504 19.2909 6.4107 19.0866 6.4107V6.9107ZM7.93673 3.45535C7.66059 3.45535 7.43673 3.6792 7.43673 3.95535C7.43673 4.23149 7.66059 4.45535 7.93673 4.45535V3.45535ZM19.2366 4.45535C19.5127 4.45535 19.7366 4.23149 19.7366 3.95535C19.7366 3.6792 19.5127 3.45535 19.2366 3.45535V4.45535ZM25.9939 28.3266L26.4932 28.2999C26.4911 28.2602 26.4842 28.2208 26.4727 28.1826L25.9939 28.3266ZM25.9929 28.3231L25.4935 28.3474C25.4954 28.388 25.5023 28.4281 25.514 28.467L25.9929 28.3231ZM25.7027 26.8376L25.2173 26.9572L25.2176 26.9588L25.7027 26.8376ZM24.8751 24.5082L24.3951 24.6486C24.4024 24.6733 24.4115 24.6975 24.4225 24.7209L24.8751 24.5082ZM24.861 24.4601L25.3409 24.3198C25.3335 24.2945 25.3241 24.2699 25.3129 24.2461L24.861 24.4601ZM16.8301 17.7L16.9628 17.2179C16.7894 17.1702 16.6037 17.2192 16.4765 17.3464L16.8301 17.7ZM13.5253 21.0048L13.1717 21.3583C13.2655 21.4521 13.3927 21.5048 13.5253 21.5048C13.6579 21.5048 13.7851 21.4521 13.8788 21.3583L13.5253 21.0048ZM10.2099 17.6894L10.5635 17.3358C10.4367 17.2091 10.2518 17.1599 10.0788 17.2069L10.2099 17.6894ZM2.13868 24.4601L1.68681 24.2461C1.67554 24.2698 1.66617 24.2945 1.65878 24.3197L2.13868 24.4601ZM2.1246 24.5082L2.57716 24.7208C2.58812 24.6975 2.59726 24.6733 2.6045 24.6486L2.1246 24.5082ZM1.29693 26.8376L1.78197 26.959L1.7824 26.9572L1.29693 26.8376ZM1.00678 28.3231L1.48567 28.4668C1.49734 28.428 1.50423 28.3878 1.5062 28.3473L1.00678 28.3231ZM1.00574 28.3266L0.526849 28.1828C0.515412 28.2209 0.508562 28.2602 0.506445 28.2999L1.00574 28.3266ZM1 28.6017L0.5 28.6005V28.6017H1ZM1.96362 29.9838L2.25166 29.575L2.24283 29.569L1.96362 29.9838ZM2.03229 30.0318L1.75062 30.4449C1.83364 30.5015 1.9318 30.5318 2.03229 30.5318V30.0318ZM24.9677 30.0318V30.5318C25.0697 30.5318 25.1692 30.5006 25.253 30.4424L24.9677 30.0318ZM25.0364 29.9838L24.7571 29.569L24.7505 29.5736L25.0364 29.9838ZM26 28.6017L26.5 28.6017L26.5 28.5981L26 28.6017ZM13.9997 20.9921C13.9997 20.7159 13.7759 20.4921 13.4997 20.4921C13.2236 20.4921 12.9997 20.7159 12.9997 20.9921H13.9997ZM12.9997 30.032C12.9997 30.3081 13.2236 30.532 13.4997 30.532C13.7759 30.532 13.9997 30.3081 13.9997 30.032H12.9997ZM19.0627 6.4107H7.91326V7.4107H19.0627V6.4107ZM8.41229 6.87967L8.08808 1.66435L7.09 1.7264L7.41422 6.94172L8.41229 6.87967ZM7.58904 1.69538C7.71031 2.18045 7.71025 2.18046 7.71021 2.18047C7.71021 2.18047 7.71017 2.18048 7.71017 2.18048C7.71016 2.18048 7.7102 2.18047 7.71028 2.18045C7.71044 2.18041 7.71077 2.18033 7.71127 2.18021C7.71226 2.17996 7.71392 2.17955 7.71624 2.17898C7.72088 2.17785 7.72815 2.17607 7.73799 2.17371C7.75767 2.16897 7.78762 2.16187 7.82729 2.15273C7.90663 2.13444 8.0248 2.10803 8.17741 2.07618C8.48269 2.01247 8.92532 1.92711 9.47016 1.84165C10.5612 1.6705 12.0553 1.5 13.6736 1.5V0.5C11.9888 0.5 10.4407 0.677185 9.31519 0.853728C8.75177 0.942107 8.29258 1.0306 7.97311 1.09727C7.81334 1.13061 7.6884 1.15852 7.60272 1.17827C7.55988 1.18814 7.52685 1.19597 7.50418 1.20143C7.49284 1.20415 7.48409 1.20628 7.478 1.20778C7.47495 1.20852 7.47257 1.20911 7.47087 1.20954C7.47001 1.20975 7.46933 1.20992 7.46881 1.21005C7.46855 1.21011 7.46834 1.21016 7.46816 1.21021C7.46808 1.21023 7.46798 1.21025 7.46794 1.21026C7.46785 1.21029 7.46777 1.2103 7.58904 1.69538ZM13.6736 1.5C15.2914 1.5 16.7413 1.67042 17.787 1.84115C18.3094 1.92644 18.7295 2.01157 19.0177 2.07503C19.1618 2.10675 19.2728 2.13304 19.347 2.15119C19.3841 2.16026 19.412 2.1673 19.4303 2.17196C19.4394 2.17429 19.4461 2.17603 19.4503 2.17714C19.4524 2.17769 19.4539 2.17808 19.4547 2.17831C19.4552 2.17842 19.4555 2.17849 19.4556 2.17853C19.4556 2.17854 19.4556 2.17855 19.4556 2.17854C19.4556 2.17854 19.4556 2.17853 19.4556 2.17853C19.4555 2.17851 19.4555 2.17849 19.5843 1.69538C19.7131 1.21226 19.713 1.21224 19.7129 1.21221C19.7129 1.2122 19.7128 1.21217 19.7127 1.21215C19.7125 1.2121 19.7123 1.21204 19.712 1.21197C19.7115 1.21184 19.7108 1.21166 19.71 1.21144C19.7083 1.211 19.706 1.21039 19.7031 1.20963C19.6973 1.2081 19.6889 1.20593 19.6781 1.20317C19.6565 1.19765 19.6252 1.18975 19.5846 1.17981C19.5033 1.15993 19.3847 1.13189 19.2327 1.09842C18.9288 1.0315 18.4906 0.942785 17.9481 0.854222C16.8643 0.677268 15.3588 0.5 13.6736 0.5V1.5ZM19.0868 1.64562L18.5652 6.86095L19.5603 6.96045L20.0818 1.74513L19.0868 1.64562ZM7.44912 6.72476C7.14901 7.4739 6.98213 8.29104 6.98213 9.14738H7.98213C7.98213 8.42207 8.12329 7.73094 8.3774 7.09663L7.44912 6.72476ZM6.98213 9.14738C6.98213 12.7469 9.90023 15.665 13.4999 15.665V14.665C10.4525 14.665 7.98213 12.1946 7.98213 9.14738H6.98213ZM13.4999 15.665C17.0994 15.665 20.0177 12.7469 20.0177 9.14738H19.0177C19.0177 12.1946 16.5472 14.665 13.4999 14.665V15.665ZM20.0177 9.14738C20.0177 8.29106 19.8508 7.47373 19.5507 6.72472L18.6224 7.09667C18.8765 7.73076 19.0177 8.42205 19.0177 9.14738H20.0177ZM19.0866 6.4107H7.91326V7.4107H19.0866V6.4107ZM7.93673 4.45535H19.2366V3.45535H7.93673V4.45535ZM26.4727 28.1826L26.4717 28.1791L25.514 28.467L25.5151 28.4705L26.4727 28.1826ZM26.4923 28.2988C26.4578 27.5915 26.2979 27.157 26.1878 26.7164L25.2176 26.9588C25.3492 27.4851 25.4653 27.7693 25.4935 28.3474L26.4923 28.2988ZM26.1882 26.7179C25.9804 25.8749 25.6891 25.065 25.3276 24.2956L24.4225 24.7209C24.7571 25.433 25.0259 26.1807 25.2173 26.9572L26.1882 26.7179ZM25.355 24.3679L25.3409 24.3198L24.3811 24.6004L24.3951 24.6486L25.355 24.3679ZM25.3129 24.2461C23.6994 20.8395 20.6592 18.2358 16.9628 17.2179L16.6973 18.182C20.1084 19.1213 22.9181 21.5261 24.4091 24.6741L25.3129 24.2461ZM16.4765 17.3464L13.1717 20.6512L13.8788 21.3583L17.1836 18.0535L16.4765 17.3464ZM13.8788 20.6512L10.5635 17.3358L9.85636 18.0429L13.1717 21.3583L13.8788 20.6512ZM10.0788 17.2069C6.36359 18.2166 3.30646 20.8266 1.68681 24.2461L2.59055 24.6741C4.08723 21.5143 6.91263 19.1037 10.341 18.1719L10.0788 17.2069ZM1.65878 24.3197L1.6447 24.3679L2.6045 24.6486L2.61858 24.6004L1.65878 24.3197ZM1.67204 24.2957C1.31057 25.0652 1.01922 25.8749 0.811453 26.7179L1.7824 26.9572C1.97377 26.1807 2.24255 25.4331 2.57716 24.7208L1.67204 24.2957ZM0.811885 26.7162C0.701552 27.157 0.541618 27.5914 0.507365 28.2989L1.5062 28.3473C1.53418 27.7693 1.65031 27.485 1.78197 26.959L0.811885 26.7162ZM0.527893 28.1793L0.526849 28.1828L1.48462 28.4703L1.48567 28.4668L0.527893 28.1793ZM0.506445 28.2999C0.502076 28.3819 0.500178 28.5277 0.500001 28.6005L1.5 28.603C1.50017 28.5326 1.5021 28.4082 1.50503 28.3532L0.506445 28.2999ZM0.5 28.6017C0.5 29.115 0.663203 29.4967 0.92455 29.7955C1.15934 30.0639 1.47193 30.2556 1.68441 30.3986L2.24283 29.569C1.97289 29.3873 1.80367 29.2817 1.67725 29.1371C1.5774 29.023 1.5 28.876 1.5 28.6017H0.5ZM1.67564 30.3925C1.6965 30.4072 1.72359 30.4265 1.75062 30.4449L2.31396 29.6187C2.29508 29.6058 2.27663 29.5927 2.25159 29.5751L1.67564 30.3925ZM25.253 30.4424C25.2746 30.4274 25.3037 30.407 25.3223 30.394L24.7505 29.5736C24.7232 29.5926 24.7064 29.6045 24.6825 29.6211L25.253 30.4424ZM25.3156 30.3986C25.5281 30.2556 25.8407 30.0639 26.0754 29.7955C26.3368 29.4967 26.5 29.115 26.5 28.6017H25.5C25.5 28.876 25.4226 29.023 25.3227 29.1371C25.1963 29.2817 25.0271 29.3873 24.7572 29.569L25.3156 30.3986ZM26.5 28.5981C26.4995 28.5277 26.4976 28.3816 26.4932 28.2999L25.4946 28.3532C25.4976 28.4085 25.4995 28.5326 25.5 28.6054L26.5 28.5981ZM12.9997 20.9921V30.032H13.9997V20.9921H12.9997ZM15.2597 23.4476C15.2597 23.4235 15.2793 23.404 15.3034 23.404V24.404C15.8315 24.404 16.2597 23.9758 16.2597 23.4476H15.2597ZM15.3034 23.404C15.3275 23.404 15.347 23.4235 15.347 23.4476H14.347C14.347 23.9758 14.7752 24.404 15.3034 24.404V23.404ZM15.347 23.4476C15.347 23.4717 15.3275 23.4913 15.3034 23.4913V22.4913C14.7752 22.4913 14.347 22.9194 14.347 23.4476H15.347ZM15.3034 23.4913C15.2793 23.4913 15.2597 23.4717 15.2597 23.4476H16.2597C16.2597 22.9194 15.8315 22.4913 15.3034 22.4913V23.4913ZM15.2597 26.9245C15.2597 26.9004 15.2793 26.8808 15.3034 26.8808V27.8808C15.8315 27.8808 16.2597 27.4527 16.2597 26.9245H15.2597ZM15.3034 26.8808C15.3275 26.8808 15.347 26.9004 15.347 26.9245H14.347C14.347 27.4527 14.7752 27.8808 15.3034 27.8808V26.8808ZM15.347 26.9245C15.347 26.9486 15.3275 26.9682 15.3034 26.9682V25.9682C14.7752 25.9682 14.347 26.3963 14.347 26.9245H15.347ZM15.3034 26.9682C15.2793 26.9682 15.2597 26.9486 15.2597 26.9245H16.2597C16.2597 26.3963 15.8315 25.9682 15.3034 25.9682V26.9682ZM11.4351 23.4476C11.4351 23.4235 11.4547 23.404 11.4788 23.404V24.404C12.007 24.404 12.4351 23.9758 12.4351 23.4476H11.4351ZM11.4788 23.404C11.5029 23.404 11.5225 23.4235 11.5225 23.4476H10.5225C10.5225 23.9758 10.9506 24.404 11.4788 24.404V23.404ZM11.5225 23.4476C11.5225 23.4717 11.5029 23.4913 11.4788 23.4913V22.4913C10.9506 22.4913 10.5225 22.9194 10.5225 23.4476H11.5225ZM11.4788 23.4913C11.4547 23.4913 11.4351 23.4717 11.4351 23.4476H12.4351C12.4351 22.9194 12.007 22.4913 11.4788 22.4913V23.4913ZM11.4351 26.9245C11.4351 26.9004 11.4547 26.8808 11.4788 26.8808V27.8808C12.007 27.8808 12.4351 27.4527 12.4351 26.9245H11.4351ZM11.4788 26.8808C11.5029 26.8808 11.5225 26.9004 11.5225 26.9245H10.5225C10.5225 27.4527 10.9506 27.8808 11.4788 27.8808V26.8808ZM11.5225 26.9245C11.5225 26.9486 11.5029 26.9682 11.4788 26.9682V25.9682C10.9506 25.9682 10.5225 26.3963 10.5225 26.9245H11.5225ZM11.4788 26.9682C11.4547 26.9682 11.4351 26.9486 11.4351 26.9245H12.4351C12.4351 26.3963 12.007 25.9682 11.4788 25.9682V26.9682ZM2.03229 30.5318H24.9677V29.5318H2.03229V30.5318Z" fill="white"/>
</svg>
