<svg width="33" height="18" viewBox="0 0 33 18" fill="none" xmlns="http://www.w3.org/2000/svg">
<path d="M32.3867 16.0508H29.7617C29.5156 9.54297 24.6758 4.21094 18.4141 3.17188V2.57031C18.4141 1.64063 17.6484 0.875 16.7188 0.875C15.7891 0.875 15.0234 1.64063 15.0234 2.57031V3.03516C8.24219 3.60938 2.88281 9.1875 2.63672 16.0508H1.07812C0.832031 16.0508 0.640625 16.2695 0.640625 16.5703C0.640625 16.8437 0.832031 17.0898 1.07812 17.0898H3.12891H29.2422H32.3594C32.6055 17.0898 32.7969 16.8711 32.7969 16.5703C32.8242 16.2695 32.6055 16.0508 32.3867 16.0508ZM3.64844 16.0508C3.92188 9.37891 9.44531 4.01953 16.1992 4.01953C22.9531 4.01953 28.4766 9.37891 28.75 16.0508H3.64844ZM16.7188 1.88672C17.1016 1.88672 17.4023 2.1875 17.4023 2.57031V3.03516C16.9922 3.00781 16.6094 2.98047 16.1992 2.98047C16.1445 2.98047 16.1172 2.98047 16.0625 2.98047V2.57031C16.0625 2.21484 16.3633 1.88672 16.7188 1.88672Z" fill="white"/>
<path d="M22.8437 6.94548C22.5703 6.89079 22.2969 7.05485 22.2422 7.35563C22.1875 7.62907 22.3516 7.90251 22.625 7.9572C22.707 7.98454 24.4023 8.36735 25.25 10.8556C25.332 11.0744 25.5234 11.2111 25.7422 11.2111C25.7969 11.2111 25.8516 11.2111 25.9062 11.1838C26.1797 11.1017 26.3164 10.8009 26.2344 10.5275C25.1953 7.43767 22.9531 6.94548 22.8437 6.94548Z" fill="white"/>
</svg>
