<svg width="25" height="25" viewBox="0 0 25 25" fill="none" xmlns="http://www.w3.org/2000/svg">
<path d="M21.875 7.8125V10.9375H19.9219C19.4041 10.9381 18.9076 11.1441 18.5415 11.5102C18.1753 11.8764 17.9694 12.3728 17.9688 12.8906V14.0625H5.85938C5.20222 14.0628 4.56718 14.2999 4.07062 14.7304C3.57406 15.1608 3.24924 15.7558 3.15566 16.4062H3.125V13.2812H0.78125V24.2188H3.125V20.3125H21.875V24.2188H24.2188V7.8125H21.875ZM18.75 12.8906C18.7503 12.5799 18.8739 12.2821 19.0936 12.0624C19.3133 11.8427 19.6112 11.7191 19.9219 11.7188H21.875V16.4062H18.75V12.8906ZM4.48047 15.4156C4.66067 15.2333 4.87546 15.0888 5.11224 14.9906C5.34903 14.8924 5.60304 14.8425 5.85938 14.8438H17.9688V16.4062H3.94496C4.02056 16.03 4.20707 15.6849 4.48047 15.4156V15.4156ZM2.34375 23.4375H1.5625V14.0625H2.34375V23.4375ZM3.125 19.5312V17.1875H21.875V19.5312H3.125ZM23.4375 23.4375H22.6562V8.59375H23.4375V23.4375Z" fill="white"/>
<path d="M11.3281 9.76562H13.6719V7.42188H16.0156V5.07812H13.6719V2.73438H11.3281V5.07812H8.98438V7.42188H11.3281V9.76562ZM9.76562 6.64062V5.85938H12.1094V3.51562H12.8906V5.85938H15.2344V6.64062H12.8906V8.98438H12.1094V6.64062H9.76562Z" fill="white"/>
<path d="M12.5 11.7188C13.5816 11.7188 14.6389 11.398 15.5383 10.7971C16.4376 10.1962 17.1386 9.34209 17.5525 8.3428C17.9664 7.34352 18.0747 6.24394 17.8637 5.1831C17.6527 4.12227 17.1318 3.14783 16.367 2.38301C15.6022 1.61819 14.6277 1.09735 13.5669 0.886333C12.5061 0.67532 11.4065 0.78362 10.4072 1.19754C9.40792 1.61145 8.55381 2.3124 7.9529 3.21173C7.35199 4.11106 7.03125 5.16839 7.03125 6.25C7.03288 7.6999 7.60958 9.08995 8.63481 10.1152C9.66005 11.1404 11.0501 11.7171 12.5 11.7188ZM12.5 1.5625C13.4271 1.5625 14.3334 1.83742 15.1042 2.35249C15.8751 2.86756 16.4759 3.59965 16.8307 4.45617C17.1855 5.3127 17.2783 6.2552 17.0974 7.16449C16.9166 8.07377 16.4701 8.90901 15.8146 9.56457C15.159 10.2201 14.3238 10.6666 13.4145 10.8474C12.5052 11.0283 11.5627 10.9355 10.7062 10.5807C9.84964 10.2259 9.11756 9.62509 8.60249 8.85424C8.08742 8.08338 7.8125 7.1771 7.8125 6.25C7.81389 5.00723 8.30819 3.81575 9.18697 2.93697C10.0657 2.05819 11.2572 1.56389 12.5 1.5625V1.5625Z" fill="white"/>
</svg>
