<svg width="22" height="17" viewBox="0 0 22 17" fill="none" xmlns="http://www.w3.org/2000/svg">
<path d="M17.9536 7.34668H3.96109C2.40308 7.34668 1 8.49179 1 10.0498V14.1121C1 14.2991 1.29157 14.5333 1.47852 14.5333H20.4362C20.6232 14.5333 20.6933 14.2991 20.6933 14.1121V10.0498C20.6933 8.49179 19.5116 7.34668 17.9536 7.34668Z" stroke="white" stroke-miterlimit="10" stroke-linecap="round" stroke-linejoin="round"/>
<path d="M20.6933 11.0451C20.6933 10.8581 20.5418 10.7065 20.3548 10.7065H1.33852C1.15157 10.7065 1 10.8581 1 11.0451V14.1947C1 14.3816 1.15157 14.5332 1.33852 14.5332H20.3548C20.5418 14.5332 20.6933 14.3816 20.6933 14.1947V11.0451V11.0451Z" stroke="white" stroke-miterlimit="10" stroke-linecap="round" stroke-linejoin="round"/>
<path d="M19.0133 6.32V1.24799C19.0133 1.06104 18.9305 1 18.7435 1H3.17121C2.98426 1 2.77333 1.06104 2.77333 1.24799V6.32" stroke="white" stroke-miterlimit="10" stroke-linecap="round" stroke-linejoin="round"/>
<path d="M1 12.7598V16.1198" stroke="white" stroke-miterlimit="10" stroke-linecap="round" stroke-linejoin="round"/>
<path d="M20.6933 12.7598V16.1198" stroke="white" stroke-miterlimit="10" stroke-linecap="round" stroke-linejoin="round"/>
<path d="M15.517 6.31144C15.517 5.47265 15.6968 4.58935 15.6968 4.58935C15.6968 4.44048 15.576 4.30505 15.4271 4.30505C15.4271 4.30505 14.5884 4.47735 13.7646 4.47735C12.9409 4.47735 12.0124 4.29395 12.0124 4.29395C11.8633 4.29395 11.7426 4.41276 11.7426 4.56172C11.7426 4.56172 11.9224 5.41367 11.9224 6.31237" stroke="white" stroke-miterlimit="10" stroke-linecap="round" stroke-linejoin="round"/>
<path d="M9.99229 6.31144C9.99229 5.47265 10.1721 4.58935 10.1721 4.58935C10.1721 4.44048 10.0513 4.30505 9.90241 4.30505C9.90241 4.30505 9.06363 4.47735 8.23996 4.47735C7.41611 4.47735 6.48763 4.29395 6.48763 4.29395C6.33857 4.29395 6.21799 4.41276 6.21799 4.56172C6.21799 4.56172 6.39765 5.41367 6.39765 6.31237" stroke="white" stroke-miterlimit="10" stroke-linecap="round" stroke-linejoin="round"/>
</svg>
