<svg width="25" height="28" viewBox="0 0 25 28" fill="none" xmlns="http://www.w3.org/2000/svg">
<path d="M13.3333 27.007H11.6667C11.0525 27.0117 10.4581 26.7768 9.99705 26.3471C9.53596 25.9174 9.24037 25.323 9.16668 24.6772C8.60746 24.49 8.06392 24.2539 7.54169 23.9712C7.05815 24.3761 6.45039 24.5776 5.83514 24.5368C5.2199 24.4961 4.64055 24.2161 4.20838 23.7506L3.07505 22.5063C2.63547 22.0486 2.37106 21.4351 2.33261 20.7835C2.29416 20.132 2.48437 19.4883 2.86672 18.9763C2.60189 18.4374 2.37893 17.8767 2.20005 17.2995C1.59028 17.2215 1.02898 16.9085 0.623213 16.4202C0.21745 15.9319 -0.00437112 15.3025 6.52808e-05 14.652V12.887C-0.00437112 12.2366 0.21745 11.6072 0.623213 11.1189C1.02898 10.6306 1.59028 10.3176 2.20005 10.2395C2.37679 9.64731 2.59978 9.0717 2.86672 8.51866C2.48437 8.00659 2.29416 7.36297 2.33261 6.71142C2.37106 6.05987 2.63547 5.44634 3.07505 4.98867L4.25004 3.78847C4.68222 3.32295 5.26156 3.04295 5.87681 3.00222C6.49205 2.9615 7.09981 3.16294 7.58336 3.56785C8.09216 3.28739 8.62169 3.05128 9.16668 2.86185C9.24037 2.2161 9.53596 1.62167 9.99705 1.19197C10.4581 0.762263 11.0525 0.527353 11.6667 0.532052H13.3333C13.9475 0.527353 14.5419 0.762263 15.0029 1.19197C15.464 1.62167 15.7596 2.2161 15.8333 2.86185C16.3925 3.04902 16.9361 3.28516 17.4583 3.56785C17.9419 3.16294 18.5496 2.9615 19.1649 3.00222C19.7801 3.04295 20.3594 3.32295 20.7916 3.78847L21.9249 5.03279C22.3645 5.49047 22.6289 6.104 22.6674 6.75555C22.7058 7.40709 22.5156 8.05071 22.1333 8.56279C22.4002 9.11583 22.6232 9.69144 22.7999 10.2837C23.4026 10.3608 23.9582 10.6675 24.363 11.1465C24.7678 11.6255 24.9942 12.2442 24.9999 12.887V14.652C25.0044 15.3025 24.7825 15.9319 24.3768 16.4202C23.971 16.9085 23.4097 17.2215 22.7999 17.2995C22.6232 17.8918 22.4002 18.4674 22.1333 19.0204C22.5156 19.5325 22.7058 20.1761 22.6674 20.8276C22.6289 21.4792 22.3645 22.0927 21.9249 22.5504L20.75 23.7506C20.3178 24.2161 19.7384 24.4961 19.1232 24.5368C18.5079 24.5776 17.9002 24.3761 17.4166 23.9712C16.8944 24.2539 16.3509 24.49 15.7916 24.6772C15.7188 25.3154 15.4292 25.9038 14.9769 26.3325C14.5245 26.7612 13.9403 27.0009 13.3333 27.007ZM7.42503 22.0032C7.57494 22.0005 7.72244 22.0434 7.85002 22.1268C8.58683 22.5857 9.38062 22.9333 10.2083 23.1593C10.3917 23.2093 10.5535 23.324 10.6671 23.4844C10.7807 23.6448 10.8393 23.8414 10.8333 24.0418V24.3595C10.8333 24.5936 10.9211 24.818 11.0774 24.9835C11.2337 25.149 11.4457 25.242 11.6667 25.242H13.3333C13.5543 25.242 13.7663 25.149 13.9226 24.9835C14.0789 24.818 14.1667 24.5936 14.1667 24.3595V24.0153C14.1607 23.8149 14.2193 23.6183 14.3329 23.4579C14.4465 23.2975 14.6083 23.1829 14.7917 23.1328C15.6194 22.9068 16.4132 22.5593 17.15 22.1003C17.3083 22.0016 17.493 21.961 17.6754 21.9849C17.8578 22.0089 18.0275 22.096 18.1583 22.2327L18.3916 22.4798C18.4691 22.5625 18.5613 22.6282 18.6628 22.673C18.7644 22.7178 18.8733 22.7408 18.9833 22.7408C19.0933 22.7408 19.2022 22.7178 19.3038 22.673C19.4053 22.6282 19.4975 22.5625 19.575 22.4798L20.75 21.2355C20.8281 21.1534 20.8901 21.0558 20.9324 20.9483C20.9747 20.8407 20.9965 20.7254 20.9965 20.6089C20.9965 20.4924 20.9747 20.377 20.9324 20.2695C20.8901 20.162 20.8281 20.0644 20.75 19.9823L20.5166 19.7352C20.3875 19.5967 20.3053 19.4169 20.2827 19.2238C20.2601 19.0307 20.2984 18.8351 20.3916 18.6674C20.825 17.8871 21.1532 17.0465 21.3666 16.1699C21.4139 15.9758 21.5221 15.8044 21.6736 15.6841C21.8251 15.5638 22.0107 15.5017 22.1999 15.5081H22.4999C22.721 15.5081 22.9329 15.4151 23.0892 15.2496C23.2455 15.0841 23.3333 14.8596 23.3333 14.6256V12.887C23.3333 12.653 23.2455 12.4285 23.0892 12.263C22.9329 12.0975 22.721 12.0045 22.4999 12.0045H22.1749C21.9857 12.0109 21.8001 11.9488 21.6486 11.8285C21.4971 11.7082 21.3889 11.5368 21.3416 11.3427C21.1282 10.4661 20.8 9.62547 20.3666 8.84519C20.2734 8.67751 20.2351 8.48189 20.2577 8.28877C20.2803 8.09565 20.3625 7.91585 20.4916 7.77737L20.725 7.53027C20.8031 7.44823 20.8651 7.35062 20.9074 7.24308C20.9497 7.13554 20.9715 7.02019 20.9715 6.90369C20.9715 6.78719 20.9497 6.67184 20.9074 6.5643C20.8651 6.45676 20.8031 6.35916 20.725 6.27712L19.575 5.03279C19.4975 4.95008 19.4053 4.88443 19.3038 4.83962C19.2022 4.79482 19.0933 4.77175 18.9833 4.77175C18.8733 4.77175 18.7644 4.79482 18.6628 4.83962C18.5613 4.88443 18.4691 4.95008 18.3916 5.03279L18.1583 5.27989C18.0275 5.4166 17.8578 5.50371 17.6754 5.52765C17.493 5.55159 17.3083 5.51102 17.15 5.41227C16.4132 4.95333 15.6194 4.60579 14.7917 4.37975C14.6083 4.32972 14.4465 4.21506 14.3329 4.05466C14.2193 3.89425 14.1607 3.69766 14.1667 3.49725V3.17955C14.1667 2.94549 14.0789 2.72103 13.9226 2.55553C13.7663 2.39003 13.5543 2.29705 13.3333 2.29705H11.6667C11.4457 2.29705 11.2337 2.39003 11.0774 2.55553C10.9211 2.72103 10.8333 2.94549 10.8333 3.17955V3.52372C10.8393 3.72413 10.7807 3.92072 10.6671 4.08113C10.5535 4.24154 10.3917 4.35619 10.2083 4.40622C9.38062 4.63227 8.58683 4.97981 7.85002 5.43874C7.69169 5.5375 7.50697 5.57806 7.32461 5.55412C7.14225 5.53018 6.97247 5.44308 6.8417 5.30637L6.60836 5.03279C6.5309 4.95008 6.43873 4.88443 6.33718 4.83962C6.23563 4.79482 6.12671 4.77175 6.0167 4.77175C5.90669 4.77175 5.79777 4.79482 5.69622 4.83962C5.59467 4.88443 5.50251 4.95008 5.42504 5.03279L4.25004 6.27712C4.17194 6.35916 4.10994 6.45676 4.06763 6.5643C4.02533 6.67184 4.00355 6.78719 4.00355 6.90369C4.00355 7.02019 4.02533 7.13554 4.06763 7.24308C4.10994 7.35062 4.17194 7.44823 4.25004 7.53027L4.48338 7.77737C4.61247 7.91585 4.69472 8.09565 4.71732 8.28877C4.73993 8.48189 4.70163 8.67751 4.60837 8.84519C4.17501 9.62547 3.84683 10.4661 3.63338 11.3427C3.58614 11.5368 3.47787 11.7082 3.3264 11.8285C3.17493 11.9488 2.98929 12.0109 2.80005 12.0045H2.50005C2.27904 12.0045 2.06708 12.0975 1.9108 12.263C1.75452 12.4285 1.66672 12.653 1.66672 12.887V14.652C1.66672 14.8861 1.75452 15.1106 1.9108 15.2761C2.06708 15.4416 2.27904 15.5345 2.50005 15.5345H2.82505C3.01429 15.5282 3.19993 15.5903 3.3514 15.7106C3.50287 15.8309 3.61114 16.0022 3.65838 16.1964C3.87183 17.073 4.20001 17.9136 4.63337 18.6939C4.72663 18.8616 4.76493 19.0572 4.74232 19.2503C4.71972 19.4434 4.63747 19.6232 4.50837 19.7617L4.27504 20.0088C4.19694 20.0908 4.13494 20.1884 4.09263 20.296C4.05033 20.4035 4.02855 20.5189 4.02855 20.6354C4.02855 20.7519 4.05033 20.8672 4.09263 20.9748C4.13494 21.0823 4.19694 21.1799 4.27504 21.2619L5.42504 22.5063C5.50251 22.589 5.59467 22.6546 5.69622 22.6994C5.79777 22.7442 5.90669 22.7673 6.0167 22.7673C6.12671 22.7673 6.23563 22.7442 6.33718 22.6994C6.43873 22.6546 6.5309 22.589 6.60836 22.5063L6.8417 22.2592C6.99691 22.0961 7.20641 22.0042 7.42503 22.0032Z" fill="white"/>
<path d="M12.5 19.947C11.3463 19.947 10.2185 19.5847 9.25919 18.9059C8.2999 18.2271 7.55223 17.2623 7.11072 16.1336C6.66921 15.0048 6.5537 13.7627 6.77878 12.5644C7.00385 11.366 7.55942 10.2653 8.37523 9.40139C9.19103 8.53745 10.2304 7.9491 11.362 7.71074C12.4935 7.47238 13.6664 7.59472 14.7323 8.06228C15.7982 8.52984 16.7093 9.32162 17.3502 10.3375C17.9912 11.3534 18.3333 12.5477 18.3333 13.7695C18.3333 15.4079 17.7187 16.9792 16.6248 18.1377C15.5308 19.2962 14.0471 19.947 12.5 19.947ZM12.5 9.35704C11.6759 9.35704 10.8703 9.61583 10.1851 10.1007C9.49993 10.5855 8.96588 11.2747 8.65052 12.0809C8.33515 12.8872 8.25264 13.7744 8.41341 14.6304C8.57418 15.4863 8.97102 16.2725 9.55373 16.8896C10.1365 17.5067 10.8789 17.927 11.6871 18.0972C12.4954 18.2675 13.3332 18.1801 14.0945 17.8461C14.8559 17.5122 15.5066 16.9466 15.9644 16.221C16.4223 15.4954 16.6667 14.6422 16.6667 13.7695C16.6667 12.5993 16.2277 11.4769 15.4463 10.6494C14.6649 9.82193 13.6051 9.35704 12.5 9.35704Z" fill="white"/>
</svg>
