<svg width="25" height="27" viewBox="0 0 25 27" fill="none" xmlns="http://www.w3.org/2000/svg">
<path d="M24.9838 10.3958C24.6938 10.8088 24.4738 11.3171 24.1038 11.603C22.8638 12.5773 22.3838 13.8375 22.6238 15.4366C22.7338 16.1779 22.4838 16.7604 21.9438 17.2581C21.3138 17.8511 20.7338 18.5077 20.1438 19.1537C19.5738 19.7679 19.0438 20.3292 18.1238 20.4351C17.1638 20.5516 16.3638 21.5365 16.4138 22.5425C16.4838 23.771 15.9138 24.5123 15.1638 25.2854C12.9838 27.5199 13.4938 27.4987 11.3938 25.3065C11.3238 25.2324 11.2538 25.1583 11.1838 25.0841C10.3171 24.1663 10.3004 23.2521 11.1338 22.3413C11.9438 21.4518 11.9638 21.0493 10.9838 20.3822C9.86376 19.6197 9.09376 18.7619 9.33377 17.2157C9.37376 16.9722 8.99376 16.5274 8.71376 16.3685C8.10376 16.0297 7.77376 15.6484 7.76376 14.8542C7.76376 14.5576 7.35376 14.1023 7.05376 14.0176C5.96376 13.7104 5.12376 13.2868 5.54376 11.6348C4.78376 12.0266 4.23376 12.4185 3.63376 12.5773C3.24376 12.6832 2.66376 12.6091 2.36376 12.3549C1.63376 11.7407 1.01376 10.9676 0.34376 10.2687C-0.11624 9.78154 -0.11624 9.31558 0.35376 8.84962C0.56376 8.63782 0.74376 8.38366 0.973761 8.19304C1.99376 7.36701 2.46376 6.36096 2.36376 4.9313C2.26376 3.45929 3.49376 2.67563 4.83376 3.16277C5.82376 3.52283 6.03376 3.3428 6.27376 2.24144C6.35376 1.88138 6.67376 1.47895 6.99376 1.29892C7.61376 0.949452 8.30376 0.737651 8.96376 0.4729H9.74376C9.94376 0.970632 10.1638 1.46836 10.3338 1.97669C10.6438 2.9192 11.2238 3.27926 12.0738 2.9192C12.4138 2.78153 12.6738 2.42147 12.9538 2.13554C14.0838 0.960042 14.2838 0.938862 15.1138 2.41088C15.7438 3.53342 16.5638 4.26413 17.7038 4.75128C19.5038 5.53494 21.2538 6.46686 23.0438 7.28229C23.9238 7.68471 24.6238 8.22481 24.9938 9.16732V10.4064L24.9838 10.3958ZM1.77376 9.42148C2.60709 10.6146 3.58376 10.9111 4.70376 10.311C4.96376 10.1734 5.22376 10.0251 5.49376 9.89803C6.48376 9.4003 7.01376 9.65446 6.91376 10.777C6.79376 12.069 7.26376 12.6832 8.41376 12.8632C9.01376 12.9586 9.36376 13.3716 9.28376 14.0176C9.20376 14.7271 9.55376 15.013 10.0638 15.3625C10.4338 15.6061 10.8538 16.1991 10.8138 16.6015C10.7038 17.8829 11.1338 18.6772 12.1438 19.3973C13.4038 20.2974 13.4738 21.8542 12.4938 23.0932C12.3338 23.2944 12.1738 23.5062 12.1638 23.5168L13.1938 25.0524C14.2438 24.1734 14.8838 23.3368 15.0138 21.9813C15.1738 20.3716 16.2738 19.4185 17.7038 18.889C18.2038 18.6984 18.6738 18.3912 19.0938 18.0418C19.5938 17.6076 19.9938 17.0463 20.4938 16.6015C21.0138 16.1356 21.2538 15.5849 21.1438 14.8753C20.8938 13.2233 21.3938 11.9101 22.6738 10.9359C22.8038 10.8405 22.9138 10.7029 23.0238 10.5758C23.7138 9.79213 23.6438 9.30499 22.7138 8.84962C21.1838 8.09773 19.6238 7.38819 18.1038 6.61512C16.5238 5.81028 14.6538 5.42904 13.9438 3.10982C13.1538 4.58183 12.0338 4.41239 10.9238 4.55006C9.21376 4.76186 9.30376 3.25808 8.72376 2.04023C8.27376 2.48501 7.79376 2.74976 7.61376 3.16277C7.00376 4.60301 6.00376 5.16429 4.55376 4.7195C4.35376 4.65596 4.13376 4.62419 3.72376 4.53947C4.21376 6.75279 3.36376 8.29894 1.76376 9.41089L1.77376 9.42148Z" fill="white"/>
</svg>
