<svg width="24" height="27" viewBox="0 0 24 27" fill="none" xmlns="http://www.w3.org/2000/svg">
<path d="M23.0588 24.5294H1V26H23.0588V24.5294Z" stroke="white" stroke-width="0.8" stroke-linejoin="round"/>
<path d="M1.73529 24.5295V4.67651H12.0294V24.5295" stroke="white" stroke-width="0.8" stroke-linejoin="round"/>
<path d="M22.3235 24.5294H12.0294V13.5L22.3235 17.7421V24.5294Z" stroke="white" stroke-width="0.8" stroke-linejoin="round"/>
<path d="M20.1176 17.1765V10.5588H17.9118V16.2794" stroke="white" stroke-width="0.8" stroke-linejoin="round"/>
<path d="M21.2212 1C20.7339 1 20.2665 1.21507 19.9219 1.59789C19.5772 1.98071 19.3836 2.49993 19.3836 3.04133C19.3844 3.19254 19.4004 3.34318 19.4314 3.49042C19.1054 3.57113 18.8138 3.77281 18.6047 4.06223C18.3956 4.35165 18.2814 4.71155 18.2811 5.08265C18.2821 5.41748 18.3758 5.74386 18.5494 6.01758C18.3543 6.11834 18.1901 6.28027 18.0769 6.48342C17.9637 6.68657 17.9064 6.92208 17.9122 7.16093C17.9179 7.39978 17.9864 7.63154 18.1093 7.82767C18.2321 8.02381 18.4039 8.17574 18.6035 8.26476C18.8031 8.35378 19.0218 8.376 19.2327 8.32869C19.4435 8.28137 19.6373 8.16658 19.7901 7.99847C19.9429 7.83035 20.0482 7.61624 20.0928 7.38252C20.1375 7.14879 20.1197 6.90565 20.0415 6.68305C20.3742 6.60859 20.6735 6.40852 20.8885 6.1168C21.1036 5.82508 21.2211 5.4597 21.2212 5.08265C21.7086 5.08265 22.176 4.86758 22.5206 4.48476C22.8652 4.10194 23.0588 3.58272 23.0588 3.04133C23.0588 2.49993 22.8652 1.98071 22.5206 1.59789C22.176 1.21507 21.7086 1 21.2212 1V1Z" stroke="white" stroke-width="0.8" stroke-linejoin="round"/>
<path d="M17.9118 12.0294H20.1176" stroke="white" stroke-linejoin="round"/>
<path d="M2.47059 4.67647V1H11.2941V4.67647" stroke="white" stroke-linejoin="round"/>
<path d="M13.5 24.5294V20.1177H16.4412V24.5294" stroke="white" stroke-width="0.5" stroke-linejoin="round"/>
<path d="M17.9118 24.5294V20.1177H20.8529V24.5294" stroke="white" stroke-width="0.5" stroke-linejoin="round"/>
<path d="M10.5588 6.14709H3.20589V7.61768H10.5588V6.14709Z" stroke="white" stroke-width="0.5" stroke-linejoin="round"/>
<path d="M10.5588 9.08826H3.20589V11.2941H10.5588V9.08826Z" stroke="white" stroke-width="0.5" stroke-linejoin="round"/>
<path d="M10.5588 12.7646H3.20589V14.2352H10.5588V12.7646Z" stroke="white" stroke-width="0.5" stroke-linejoin="round"/>
<path d="M10.5588 16.4412H3.20589V17.9118H10.5588V16.4412Z" stroke="white" stroke-width="0.5" stroke-linejoin="round"/>
<path d="M1.73529 19.3823H12.0294" stroke="white" stroke-linejoin="round"/>
<path d="M3.20589 24.5294V19.3823" stroke="white" stroke-width="0.5" stroke-linejoin="round"/>
<path d="M4.67647 24.5294V19.3823" stroke="white" stroke-width="0.5" stroke-linejoin="round"/>
<path d="M6.14706 24.5294V19.3823" stroke="white" stroke-width="0.5" stroke-linejoin="round"/>
<path d="M7.61765 24.5294V19.3823" stroke="white" stroke-width="0.5" stroke-linejoin="round"/>
<path d="M9.08823 24.5294V19.3823" stroke="white" stroke-width="0.5" stroke-linejoin="round"/>
<path d="M10.5588 24.5294V19.3823" stroke="white" stroke-width="0.5" stroke-linejoin="round"/>
<path d="M3.20589 2.47058H3.94118" stroke="white" stroke-linejoin="round"/>
<path d="M4.67647 2.47058H5.41176" stroke="white" stroke-linejoin="round"/>
<path d="M6.14706 2.47058H6.88235" stroke="white" stroke-linejoin="round"/>
<path d="M7.61765 2.47058H8.35294" stroke="white" stroke-linejoin="round"/>
<path d="M9.08823 2.47058H9.82353" stroke="white" stroke-linejoin="round"/>
</svg>
