<svg width="23" height="29" viewBox="0 0 23 29" fill="none" xmlns="http://www.w3.org/2000/svg">
<path d="M1.99563 4.78637L5.61269 6.37663C4.89552 7.43681 4.52134 8.65289 4.52134 9.93133C4.52134 13.4237 7.35886 16.2924 10.8824 16.2924C14.4059 16.2924 17.2434 13.4549 17.2434 9.93133C17.2434 8.68407 16.8692 7.43681 16.1832 6.40781L19.3638 4.9111V10.9603L18.3971 13.0183C18.3348 13.1742 18.3348 13.3301 18.4283 13.4549C18.5219 13.5796 18.6778 13.6731 18.8337 13.6731H20.6734C20.8293 13.6731 20.9852 13.6108 21.0476 13.4549C21.1411 13.3301 21.1411 13.1742 21.0788 13.0183L20.2369 10.9603V4.50574C20.2369 4.25629 20.2057 4.0692 19.7691 3.88211C19.6756 3.85093 11.1007 0.0467724 11.1007 0.0467724C10.9759 -0.0155908 10.8512 -0.0155908 10.7265 0.0467724L1.99563 3.91329C1.83972 3.97565 1.715 4.16274 1.715 4.34983C1.715 4.53692 1.80854 4.69283 1.99563 4.78637ZM16.2768 9.93133C16.2768 12.9248 13.8446 15.3569 10.8512 15.3569C7.85777 15.3569 5.4256 12.9248 5.4256 9.93133C5.4256 8.77761 5.79978 7.68626 6.4546 6.75081L10.6953 8.65289C10.7577 8.68407 10.82 8.68407 10.8824 8.68407C10.9447 8.68407 11.0071 8.68407 11.0695 8.65289L15.2478 6.78199C15.9338 7.71744 16.2768 8.8088 16.2768 9.93133ZM19.5509 12.7377L19.7691 12.27L19.9562 12.7377H19.5509ZM10.9136 0.98222L18.4907 4.34983L10.9136 7.71744L3.33644 4.34983L10.9136 0.98222Z" fill="white"/>
<path d="M11.0383 17.415C4.95787 17.415 0 22.3729 0 28.4533C0 28.7028 0.218271 28.921 0.467724 28.921H21.6088C21.8583 28.921 22.0766 28.7028 22.0766 28.4533C22.0766 22.3729 17.1187 17.415 11.0383 17.415ZM0.966629 27.9856C1.21608 22.6224 5.64387 18.3505 11.0695 18.3505C16.4951 18.3505 20.8917 22.6535 21.1411 27.9856H0.966629Z" fill="white"/>
</svg>
