<svg width="22" height="30" viewBox="0 0 22 30" fill="none" xmlns="http://www.w3.org/2000/svg">
<path d="M7.90647 1.00115C7.89013 1.00335 7.87385 1.00595 7.85764 1.00896H6.9924C6.95792 1.00717 6.92337 1.00717 6.88889 1.00896C6.62341 1.02268 6.37426 1.14131 6.19625 1.33874C6.01824 1.53616 5.92594 1.79622 5.93967 2.06169C5.9534 2.32717 6.07202 2.57632 6.26945 2.75433C6.46687 2.93234 6.72693 3.02464 6.9924 3.01091H7.00607V13.7707V13.7726L1.40647 25.5402C1.40342 25.5461 1.40167 25.5519 1.39865 25.5578L1.3967 25.5617C1.08733 26.1706 0.938639 26.7435 1.02365 27.3039C1.10968 27.8709 1.47644 28.334 1.8342 28.5754C2.54972 29.0581 3.26389 28.9972 3.26389 28.9972H18.7444C18.7444 28.9972 18.9228 29.0138 19.1877 28.9718C19.2156 28.9676 19.2537 28.9541 19.2834 28.9484C19.5384 28.8995 19.8491 28.8054 20.1682 28.589C20.3463 28.4682 20.5247 28.291 20.6701 28.0754V28.0734C20.7425 27.9661 20.8079 27.8488 20.8596 27.7238V27.7218C20.9112 27.5968 20.9504 27.4642 20.9729 27.3254V27.3234C21.0147 27.0614 21.0033 26.7955 20.9533 26.5226C20.9501 26.505 20.9511 26.4876 20.9475 26.4699C20.9392 26.4294 20.9224 26.3877 20.9123 26.3468C20.8861 26.2406 20.8607 26.1352 20.8225 26.0265C20.7698 25.8771 20.7068 25.7243 20.633 25.5695L20.6311 25.5676V25.5656L15.0237 13.7726V3.00896C15.2867 3.00088 15.536 2.88945 15.7174 2.69883C15.8989 2.50821 15.9979 2.25376 15.993 1.99063C15.9881 1.7275 15.8797 1.47689 15.6913 1.29314C15.5029 1.10938 15.2497 1.00728 14.9865 1.00896H14.1233C14.0889 1.00456 14.0544 1.00196 14.0197 1.00115H8.00217C7.97029 0.999618 7.93835 0.999618 7.90647 1.00115ZM9.00607 3.01091H13.0217V13.0773H9.00607V3.01091ZM8.60178 15.0773H13.426L16.8264 22.2238L18.8244 26.425L18.8264 26.4269V26.4289C18.9072 26.5989 18.947 26.7182 18.9651 26.798C18.9833 26.8787 18.9792 26.9216 18.9787 26.9426C18.9011 26.9626 18.7737 26.9933 18.7737 26.9933C18.7684 26.9933 18.7632 26.9933 18.758 26.9933H3.26389C3.26389 26.9933 3.11738 26.9594 3.02756 26.9347C3.0277 26.9188 3.02557 26.8805 3.03928 26.8156C3.03995 26.8124 3.03852 26.8131 3.03928 26.8097V26.8078C3.05778 26.7335 3.09775 26.6218 3.18381 26.4543C3.18851 26.4452 3.19306 26.4361 3.19748 26.4269V26.425L4.28342 24.1437L8.60178 15.0773ZM11.9885 17.0051C11.4421 17.0051 10.9846 17.4646 10.9846 18.0109C10.9846 18.5572 11.4421 19.007 11.9885 19.007C12.5349 19.007 12.9846 18.5572 12.9846 18.0109C12.9846 17.4646 12.5349 17.0051 11.9885 17.0051ZM7.9885 21.007C7.44214 21.007 6.9924 21.4646 6.9924 22.0109C6.9924 22.5572 7.44214 23.007 7.9885 23.007C8.53486 23.007 8.9924 22.5572 8.9924 22.0109C8.9924 21.4646 8.53486 21.007 7.9885 21.007ZM13.9904 23.007C13.4441 23.007 12.9846 23.4646 12.9846 24.0109C12.9846 24.5572 13.4441 25.007 13.9904 25.007C14.5368 25.007 14.9865 24.5572 14.9865 24.0109C14.9865 23.4646 14.5368 23.007 13.9904 23.007Z" fill="white" stroke="white" stroke-width="0.5"/>
</svg>
