<svg width="31" height="32" viewBox="0 0 31 32" fill="none" xmlns="http://www.w3.org/2000/svg">
<path d="M5.57143 9L3 30H30L27.4286 9H5.57143Z" stroke="white" stroke-width="1.5" stroke-miterlimit="10" stroke-linecap="round"/>
<path d="M22 12C22 11.197 22 7.62653 22 6.82353C22 3.607 19.5378 1 16.5 1C13.4622 1 11 3.607 11 6.82353C11 7.62653 11 11.197 11 12" stroke="white" stroke-width="1.5" stroke-miterlimit="10" stroke-linecap="round"/>
<path d="M22 13C22.5523 13 23 12.5523 23 12C23 11.4477 22.5523 11 22 11C21.4477 11 21 11.4477 21 12C21 12.5523 21.4477 13 22 13Z" fill="white"/>
<path d="M11 13C11.5523 13 12 12.5523 12 12C12 11.4477 11.5523 11 11 11C10.4477 11 10 11.4477 10 12C10 12.5523 10.4477 13 11 13Z" fill="white"/>
</svg>
