<svg width="25" height="24" viewBox="0 0 25 24" fill="none" xmlns="http://www.w3.org/2000/svg">
<path d="M23 3H4.9L4.5 0.8C4.4 0.3 3.9 0 3.4 0C3.3 0 1 0 1 0C0.4 0 0 0.4 0 1C0 1.6 0.4 2 1 2H2.7L3.2 5L5 17C5.1 17.5 5.4 18 6 18H21C21.6 18 22 17.4 22 17L24 4C24.1 3.5 23.6 3 23 3ZM20.2 16H6.8L5.2 5H21.7L20.2 16Z" fill="white"/>
<path d="M17.5 19C16.1 19 15 20.1 15 21.5C15 22.9 16.1 24 17.5 24C18.9 24 20 22.9 20 21.5C20 20.1 18.9 19 17.5 19ZM17.5 23C16.7 23 16 22.3 16 21.5C16 20.7 16.7 20 17.5 20C18.3 20 19 20.7 19 21.5C19 22.3 18.3 23 17.5 23Z" fill="white"/>
<path d="M8.5 19C7.1 19 6 20.1 6 21.5C6 22.9 7.1 24 8.5 24C9.9 24 11 22.9 11 21.5C11 20.1 9.9 19 8.5 19ZM8.5 23C7.7 23 7 22.3 7 21.5C7 20.7 7.7 20 8.5 20C9.3 20 10 20.7 10 21.5C10 22.3 9.3 23 8.5 23Z" fill="white"/>
<path d="M19.8 8L19.9 7H7.10001L7.20001 8H19.8Z" fill="white"/>
<path d="M7.39999 10H19.6L19.7 9H7.29999L7.39999 10Z" fill="white"/>
<path d="M7.70001 12H19.3L19.4 11H7.60001L7.70001 12Z" fill="white"/>
<path d="M7.89999 14H19.1L19.2 13H7.79999L7.89999 14Z" fill="white"/>
</svg>
